<?xml version="1.0" standalone="no"?>
<!DOCTYPE svg PUBLIC "-//W3C//DTD SVG 20010904//EN"
 "http://www.w3.org/TR/2001/REC-SVG-20010904/DTD/svg10.dtd">
<svg version="1.0" xmlns="http://www.w3.org/2000/svg"
 width="744.000000pt" height="744.000000pt" viewBox="0 0 744.000000 744.000000"
 preserveAspectRatio="xMidYMid meet">
<metadata>
Created by potrace 1.14, written by Peter Selinger 2001-2017
</metadata>
<g transform="translate(0.000000,744.000000) scale(0.100000,-0.100000)"
fill="#000000" stroke="none">
<path d="M1837 7434 c-2 -2 -52 -5 -111 -7 l-108 -4 -4 -139 c-10 -420 -14
-536 -19 -545 -4 -5 -1 -9 5 -9 6 0 8 -5 4 -12 -4 -6 -8 -57 -10 -112 -1 -56
-3 -109 -3 -118 -1 -17 -23 -18 -326 -18 -179 0 -325 3 -326 8 -1 4 -3 111 -4
237 -6 386 -12 495 -31 553 -29 89 -88 137 -179 147 -22 2 -42 4 -45 5 -9 2
-153 -1 -195 -5 -22 -1 -76 -6 -119 -9 -44 -4 -82 -9 -86 -11 -3 -2 -30 -5
-59 -6 -28 -2 -55 -7 -58 -12 -7 -12 -10 -107 -3 -107 19 0 16 -1796 -3 -2172
-1 -27 2 -48 8 -49 5 0 19 -2 30 -4 93 -19 386 -26 454 -12 25 5 52 9 59 10 6
0 12 4 12 9 0 4 7 8 16 8 26 0 92 58 118 103 50 86 70 224 80 537 l2 75 317 3
c297 2 317 1 318 -15 0 -10 2 -27 5 -38 2 -11 7 -42 10 -70 3 -27 7 -66 10
-85 3 -19 8 -147 11 -285 3 -137 6 -251 7 -252 1 -2 36 -5 77 -8 41 -3 106 -8
144 -11 364 -28 505 44 542 276 10 58 9 371 -1 575 -13 243 -12 278 10 625 2
36 7 112 10 170 9 147 9 473 0 545 -10 81 -39 137 -85 170 -70 48 -121 58
-303 60 -92 2 -169 1 -171 -1z"/>
<path d="M3628 7435 c-2 -2 -26 -6 -53 -8 -28 -3 -63 -10 -78 -16 -15 -6 -27
-9 -27 -6 0 6 -107 -32 -157 -55 -24 -11 -45 -20 -47 -20 -6 0 -107 -62 -159
-98 -65 -45 -194 -174 -248 -247 -24 -33 -47 -62 -50 -65 -10 -9 -129 -242
-129 -254 0 -3 -5 -17 -11 -33 -6 -15 -11 -30 -11 -33 0 -3 -4 -12 -9 -21 -4
-9 -10 -27 -13 -40 -3 -13 -8 -35 -11 -49 -13 -58 -25 -127 -31 -179 -7 -61
-8 -280 -1 -321 18 -107 53 -237 69 -257 6 -7 8 -13 4 -13 -12 0 85 -179 131
-242 60 -82 152 -177 222 -231 31 -23 58 -44 61 -47 15 -15 192 -110 204 -110
7 0 16 -4 21 -9 13 -12 156 -56 230 -71 101 -20 266 -28 335 -17 19 3 58 9 85
13 112 14 310 92 427 168 140 89 290 233 365 348 15 23 31 45 34 48 12 9 96
183 112 230 47 141 59 213 59 350 0 99 -5 176 -17 245 -3 17 -7 44 -10 60 -64
382 -263 684 -555 843 -64 35 -227 97 -279 107 -15 3 -72 12 -129 21 -32 6
-329 13 -334 9z m261 -760 c143 -41 236 -143 275 -299 26 -102 23 -296 -5
-348 -5 -10 -7 -18 -4 -18 3 0 -2 -15 -12 -32 -9 -18 -17 -36 -18 -39 0 -7
-44 -66 -61 -83 -84 -82 -177 -117 -319 -120 -176 -5 -331 87 -405 238 -39 80
-50 135 -45 226 13 252 168 457 368 488 71 11 158 6 226 -13z"/>
<path d="M7146 7413 c-1 -2 -103 -9 -251 -18 -312 -19 -735 -23 -1020 -11
-159 7 -544 18 -572 17 -7 -1 -21 -1 -30 -1 -10 0 -38 -1 -63 -1 -25 0 -49 0
-55 0 -5 1 -43 2 -83 3 -79 3 -90 -2 -98 -46 -2 -14 -7 -38 -10 -53 -13 -61
-13 -318 1 -376 15 -65 57 -137 80 -137 8 0 15 -4 15 -9 0 -11 132 -54 171
-55 16 -1 29 -4 29 -7 0 -3 6 -6 13 -6 6 0 39 -4 72 -7 33 -4 128 -10 210 -13
83 -3 151 -6 153 -8 21 -19 19 -680 -3 -1160 -10 -228 -17 -353 -20 -393 -2
-32 1 -42 13 -46 17 -4 72 -17 102 -22 8 -2 60 -12 115 -23 176 -34 344 -18
429 43 67 48 131 143 141 212 2 16 6 38 8 49 29 129 45 498 47 1058 l1 327 37
1 c145 5 323 20 350 30 15 6 28 10 30 9 7 -4 68 13 80 22 6 6 12 8 12 4 0 -3
27 8 61 26 107 56 160 141 163 259 0 38 5 69 9 69 5 0 6 3 4 8 -3 4 -8 36 -11
72 -4 36 -11 81 -15 100 -5 19 -12 47 -15 63 -6 25 -10 27 -52 25 -25 -2 -46
-4 -48 -5z"/>
<path d="M6117 4134 c-1 -1 -35 -4 -75 -8 -41 -3 -77 -8 -80 -10 -4 -2 -23 -7
-42 -10 -102 -16 -275 -86 -376 -153 -31 -21 -64 -42 -72 -48 -54 -34 -231
-216 -232 -237 0 -4 -6 -13 -13 -20 -46 -46 -143 -255 -176 -378 -70 -262 -73
-622 -7 -845 31 -107 44 -142 77 -208 148 -302 404 -478 764 -525 67 -9 363
-8 450 1 93 9 209 32 271 53 224 76 405 226 505 419 34 66 91 219 104 278 34
169 45 265 46 414 0 123 -7 149 -39 150 -15 0 -67 4 -117 7 -137 10 -329 10
-440 2 -198 -15 -306 -22 -412 -27 l-61 -2 -8 -36 c-12 -61 -13 -73 -15 -161
-2 -87 10 -128 50 -173 40 -46 173 -75 326 -71 l87 2 -7 -27 c-21 -88 -29
-106 -68 -145 -63 -62 -203 -101 -352 -97 -172 5 -247 39 -380 175 -67 68
-101 130 -120 221 -13 63 -13 234 0 320 5 28 9 58 10 67 1 10 4 21 8 24 4 4 7
16 7 28 0 32 67 157 106 199 43 47 118 89 197 111 68 20 182 27 215 15 14 -5
21 -5 18 0 -10 16 86 -18 143 -51 72 -40 143 -57 200 -46 67 12 441 208 441
231 0 4 3 6 8 3 4 -2 22 8 39 22 l32 27 -60 89 c-95 141 -196 237 -319 304
-54 30 -195 82 -235 87 -11 2 -33 6 -50 9 -71 14 -336 29 -348 20z"/>
<path d="M958 4125 c-2 -2 -42 -6 -90 -10 -49 -3 -98 -8 -110 -10 -12 -3 -40
-7 -63 -10 -22 -3 -66 -10 -97 -16 -32 -6 -70 -12 -85 -15 -16 -3 -36 -7 -45
-10 -9 -3 -27 -7 -40 -9 -39 -8 -190 -56 -238 -76 l-45 -19 0 -613 c0 -336 -3
-657 -7 -712 -4 -55 -10 -256 -14 -446 l-6 -346 44 -20 c49 -24 124 -50 165
-58 15 -3 33 -7 38 -9 17 -5 79 -17 105 -21 14 -2 34 -5 45 -8 18 -4 43 -7
195 -23 256 -26 682 -20 780 11 10 3 31 7 46 9 75 10 232 80 341 152 60 40
203 175 203 192 0 7 4 12 8 12 11 0 58 72 106 163 60 112 120 308 141 462 22
164 22 377 -1 487 -2 13 -6 38 -9 57 -7 49 -55 214 -67 229 -6 6 -8 12 -4 12
11 0 -64 141 -114 215 -46 68 -140 167 -190 202 -14 9 -27 19 -30 22 -34 38
-279 147 -370 165 -14 2 -47 9 -75 15 -27 5 -68 13 -90 17 -40 6 -421 14 -427
9z m355 -725 c32 -8 60 -17 63 -22 3 -4 12 -8 20 -8 26 0 108 -60 140 -103
110 -146 116 -435 14 -651 -17 -36 -36 -66 -41 -66 -5 0 -9 -5 -9 -11 0 -17
-48 -57 -100 -83 -97 -50 -273 -62 -455 -31 -55 9 -102 19 -105 20 -13 8 -1
736 15 875 2 14 3 34 4 45 1 16 9 21 32 23 17 1 39 6 48 11 9 4 36 9 61 10 24
1 46 4 48 6 8 8 212 -4 265 -15z"/>
<path d="M3527 4123 c-1 -1 -31 -4 -67 -8 -35 -3 -67 -8 -70 -10 -4 -2 -19 -6
-34 -9 -15 -3 -44 -10 -64 -16 -51 -16 -56 -17 -64 -19 -25 -4 -212 -108 -259
-144 -185 -138 -320 -313 -422 -547 -24 -53 -65 -191 -72 -240 -4 -25 -9 -48
-11 -52 -19 -30 -22 -332 -4 -440 53 -328 264 -633 555 -799 58 -33 175 -88
199 -94 6 -1 19 -5 28 -9 9 -4 25 -9 35 -11 10 -2 18 -4 18 -5 0 -1 7 -3 15
-5 8 -1 33 -8 55 -13 64 -18 152 -26 265 -26 141 1 233 15 325 50 22 9 40 15
40 14 0 -4 63 22 88 36 15 8 27 12 27 8 0 -3 6 -2 13 4 6 5 35 22 62 37 120
66 245 168 345 281 90 102 203 298 225 392 2 8 7 21 11 30 4 9 8 19 9 22 43
169 51 350 21 520 -3 14 -7 43 -11 65 -3 22 -7 47 -10 55 -2 8 -6 26 -9 40 -6
37 -54 185 -76 236 -11 24 -19 45 -18 47 0 1 -14 26 -31 55 -17 29 -31 57 -31
62 0 4 -4 10 -8 12 -5 2 -24 26 -42 53 -76 111 -227 238 -365 308 -117 58
-290 103 -440 113 -81 6 -225 10 -228 7z m136 -748 c198 -15 341 -154 372
-360 38 -250 -45 -465 -211 -546 -27 -13 -53 -24 -59 -26 -5 -1 -26 -6 -45
-11 -96 -24 -234 -10 -327 33 -56 25 -163 118 -163 141 0 8 -4 14 -9 14 -10 0
-47 88 -58 135 -9 39 -8 179 1 227 4 20 18 65 32 100 67 172 188 275 345 293
29 3 55 8 58 10 2 3 8 2 13 -1 6 -4 29 -8 51 -9z"/>
<path d="M4759 1335 c-23 -52 -22 -83 4 -99 26 -17 48 3 68 60 19 57 11 84
-27 84 -20 0 -29 -9 -45 -45z"/>
<path d="M2233 1253 c-30 -6 -93 -70 -94 -96 -2 -44 3 -73 19 -102 25 -43 71
-93 109 -116 l33 -21 -19 -25 c-29 -35 -90 -82 -119 -90 -37 -9 -55 17 -56 79
0 56 8 113 22 163 4 17 7 37 5 46 -6 23 -48 29 -80 11 -80 -43 -132 -65 -191
-80 -84 -20 -105 -9 -147 75 -37 74 -55 93 -97 99 -28 5 -39 0 -73 -33 -22
-21 -60 -69 -85 -108 -24 -38 -45 -72 -47 -74 -2 -2 -6 -2 -9 1 -3 3 2 23 11
44 24 57 13 84 -33 85 -84 3 -133 -4 -237 -35 -45 -14 -192 -83 -227 -107 -14
-11 -29 -19 -31 -19 -3 0 -4 61 -1 136 6 141 1 164 -37 164 -9 0 -27 -13 -38
-29 l-20 -28 -52 17 c-94 32 -194 7 -255 -64 -66 -77 -144 -268 -138 -338 6
-66 62 -100 119 -71 59 30 161 123 287 262 47 51 48 51 49 24 1 -15 0 -32 -1
-38 -1 -5 -4 -30 -6 -55 -3 -33 -11 -51 -32 -69 -15 -13 -51 -44 -81 -70 -119
-101 -192 -181 -317 -346 -25 -34 -83 -159 -92 -201 -21 -99 2 -160 74 -195
67 -32 127 -33 196 -2 71 31 125 89 175 184 32 61 71 161 79 204 1 6 9 37 18
70 8 33 17 76 20 95 3 19 7 44 10 56 2 11 7 45 10 75 8 72 14 101 23 110 18
18 219 129 233 129 9 0 21 5 28 12 13 13 134 47 169 48 22 0 22 -1 8 -47 -18
-57 -29 -135 -27 -183 1 -46 43 -85 73 -69 11 5 25 22 32 37 6 15 16 30 22 34
5 4 7 8 3 8 -20 0 172 300 192 300 5 0 20 -24 33 -53 43 -93 113 -144 180
-131 77 14 116 27 169 55 34 17 38 11 32 -45 -10 -87 2 -141 41 -181 31 -30
39 -33 82 -31 82 5 141 42 208 130 24 31 29 33 88 34 90 0 148 17 259 73 20
11 40 19 43 19 3 0 4 -27 2 -60 -6 -72 7 -127 38 -166 21 -26 29 -29 81 -29
45 0 69 6 99 25 45 27 94 73 119 111 15 24 23 26 80 27 76 0 172 25 244 64 29
15 55 28 58 28 4 0 3 -15 0 -32 -27 -128 -12 -209 39 -222 40 -10 83 28 153
136 34 51 65 98 71 105 6 7 11 16 11 20 1 9 46 63 54 63 6 0 8 -58 6 -170 -1
-106 16 -144 72 -154 46 -8 95 39 230 221 46 62 87 112 91 113 5 0 6 -3 4 -7
-8 -13 -21 -115 -21 -163 1 -91 58 -161 134 -164 22 0 40 -4 40 -8 0 -11 97
29 157 65 32 20 89 65 127 101 39 37 71 66 73 66 2 0 3 -19 3 -43 0 -24 3 -47
8 -51 4 -4 8 -12 8 -17 1 -5 2 -13 3 -17 3 -22 62 -73 98 -86 49 -17 131 -14
191 8 42 15 156 72 177 89 6 4 28 19 50 33 22 15 59 40 82 57 24 17 45 28 47
26 2 -2 1 -24 -4 -48 -15 -81 4 -169 37 -172 7 -1 20 -2 28 -3 23 -2 71 34 91
68 9 17 20 33 24 36 3 3 21 30 39 60 59 95 105 164 129 190 l22 25 1 -40 c0
-64 7 -188 12 -215 6 -41 38 -100 60 -112 58 -31 172 4 251 76 20 19 36 33 37
32 1 0 2 -14 4 -31 1 -16 5 -38 10 -48 9 -22 54 -45 79 -41 38 6 126 77 244
200 l122 126 -5 -84 c-7 -90 -1 -80 -90 -151 -62 -51 -245 -233 -245 -246 0
-6 -4 -11 -9 -11 -5 0 -19 -16 -31 -35 -12 -20 -27 -41 -33 -48 -27 -28 -78
-121 -100 -184 -59 -164 2 -266 160 -267 36 0 68 5 77 13 9 7 16 10 16 6 0
-11 71 44 108 84 59 64 154 288 168 396 1 11 3 20 4 20 3 0 19 88 24 130 6 49
17 138 19 149 3 15 130 94 222 137 83 39 168 64 243 72 24 3 50 11 57 18 17
18 2 59 -22 60 -82 7 -220 -27 -325 -77 -38 -19 -73 -34 -78 -34 -6 0 -10 -4
-10 -8 0 -5 -16 -16 -35 -25 -34 -16 -35 -16 -36 6 -1 12 -1 26 0 31 1 5 4 58
6 117 2 83 0 111 -11 120 -17 14 -64 4 -64 -14 0 -29 -20 -34 -71 -17 -67 23
-138 17 -200 -17 -27 -14 -49 -29 -49 -33 0 -3 -8 -15 -17 -26 -10 -10 -38
-46 -62 -79 -24 -33 -51 -67 -60 -76 -9 -9 -33 -34 -53 -55 -50 -52 -60 -60
-114 -89 -99 -53 -108 -40 -118 160 -7 141 -26 192 -74 200 -44 7 -83 -31
-169 -163 -111 -172 -125 -192 -134 -192 -4 0 -6 6 -4 13 3 6 7 28 9 47 3 19
12 68 21 108 18 81 16 97 -14 105 -15 4 -38 -8 -79 -41 -31 -26 -61 -50 -67
-54 -5 -4 -23 -18 -40 -31 -56 -44 -130 -92 -137 -89 -5 1 -8 -2 -8 -7 0 -5
-16 -15 -35 -22 -19 -7 -35 -17 -35 -21 0 -4 -3 -7 -7 -6 -5 1 -21 -4 -37 -11
-102 -42 -179 -31 -209 28 -14 28 -16 140 -3 198 5 24 -12 51 -34 53 -28 4
-50 0 -50 -9 0 -10 -88 -109 -135 -152 -79 -72 -104 -91 -151 -115 -65 -32
-128 -34 -156 -6 -25 24 -26 93 -3 197 21 97 19 122 -10 150 -22 23 -27 24
-52 12 -15 -6 -36 -20 -46 -30 -20 -20 -128 -154 -162 -202 -11 -16 -26 -34
-32 -41 -7 -7 -13 -15 -13 -18 0 -12 -68 -78 -72 -70 -3 5 -5 50 -4 99 2 96
-9 172 -28 190 -25 26 -55 35 -79 26 -22 -9 -117 -110 -117 -125 0 -4 -5 -12
-11 -19 -5 -7 -33 -47 -60 -89 -27 -43 -51 -78 -54 -78 -6 0 6 81 16 109 5 13
12 40 15 60 3 20 10 43 14 52 12 22 1 59 -19 60 -29 2 -45 -3 -73 -22 -73 -53
-200 -104 -297 -119 l-43 -7 7 41 c18 103 6 153 -50 208 -25 25 -79 48 -114
48 -35 0 -100 -42 -115 -74 -17 -37 -15 -118 3 -124 6 -2 11 -10 11 -17 0 -17
99 -115 117 -115 25 0 13 -24 -36 -71 -52 -50 -102 -69 -126 -49 -19 16 -19
112 0 203 8 37 12 74 9 81 -10 25 -43 25 -80 0 -131 -89 -366 -161 -350 -106
9 29 19 86 17 102 -7 106 -107 184 -208 163z m71 -84 c34 -16 54 -62 49 -112
-8 -67 -14 -71 -56 -40 -36 28 -77 89 -77 117 0 14 36 46 52 46 4 0 18 -5 32
-11z m750 -21 c16 -18 21 -35 21 -80 -1 -85 -14 -90 -73 -31 -50 50 -68 92
-48 117 25 31 68 28 100 -6z m-2346 -12 c17 -4 32 -12 32 -17 0 -21 -214 -242
-279 -288 l-34 -25 7 45 c9 53 49 148 90 209 58 86 85 98 184 76z m5760 0 c17
-4 32 -11 32 -15 0 -19 -173 -200 -259 -271 l-54 -44 5 44 c3 25 12 62 21 83
9 20 16 38 15 40 -1 1 11 21 25 44 15 24 27 45 27 48 0 8 41 48 68 66 24 17
60 18 120 5z m-5694 -408 c-3 -4 -7 -22 -9 -40 -16 -152 -109 -432 -161 -485
-7 -7 -21 -23 -31 -35 -30 -38 -93 -66 -137 -62 -44 4 -85 27 -87 49 -1 8 -2
21 -3 28 -1 6 4 29 11 50 7 20 12 39 12 42 2 24 38 84 109 183 42 58 210 235
275 290 13 10 30 -6 21 -20z m5751 -30 c-4 -34 -9 -66 -11 -70 -3 -5 -7 -22
-9 -38 -2 -16 -9 -48 -16 -72 -14 -50 -13 -43 -23 -88 -5 -19 -12 -41 -17 -50
-5 -8 -18 -40 -30 -70 -24 -64 -75 -136 -120 -171 -17 -13 -34 -24 -38 -24 -3
0 -10 -3 -16 -6 -9 -6 -46 -4 -87 4 -82 15 -68 125 36 286 24 38 54 82 67 97
30 37 258 264 265 264 3 0 2 -28 -1 -62z"/>
</g>
</svg>
