<svg width="244" height="49" viewBox="0 0 244 49" fill="none" xmlns="http://www.w3.org/2000/svg">
<path d="M21.4003 5.3833C22.2134 5.3833 22.8232 5.99333 22.8232 6.80672C22.8232 6.80672 22.8232 10.772 22.4167 16.1606C27.9048 12.6021 33.7994 10.1619 39.1859 10.1619C39.999 10.1619 40.7104 10.772 40.7104 11.5854C40.7104 12.3987 39.999 13.0088 39.1859 13.0088C34.1043 13.0088 27.9048 15.9573 22.0101 20.0242C21.7052 22.7694 21.2987 25.7179 20.7906 28.5648C19.7742 33.9534 18.2497 39.1387 15.8106 43.0023C14.591 44.9341 13.0665 46.4591 11.2371 47.4759C10.0175 48.1876 8.69633 48.5943 7.27349 48.5943C6.56206 48.5943 5.74901 48.4926 4.93595 48.1876C3.00495 47.6792 1.48047 46.4592 0.972312 44.8324C0.769048 44.324 0.769043 43.714 0.769043 43.1039C0.769043 41.9855 0.972321 40.8672 1.37885 39.5454C2.70006 35.7835 5.64737 31.3099 9.61102 27.0396C12.4567 23.9895 15.7089 21.041 19.2661 18.3975C19.4693 15.9573 19.6726 13.9238 19.7742 12.0937C18.5546 13.6188 17.1318 15.1439 15.6073 16.7707C13.8796 18.6008 12.1518 20.2275 10.6274 21.5493C9.8143 22.1593 9.10287 22.7694 8.39144 23.1761C7.68002 23.5828 7.17187 23.9894 6.25718 23.8878C5.64739 23.8878 4.83433 23.4811 4.4278 22.9727C4.02127 22.4643 3.81801 21.8543 3.71638 21.3459C3.71638 21.1426 3.61473 20.9393 3.61473 20.6342C3.61473 19.7192 3.91962 18.9058 4.12288 17.7874C4.8343 15.1439 6.25717 11.992 8.18817 9.34854C9.91592 7.01006 12.3551 6.29836 14.4893 6.29836C14.8959 6.29836 15.3024 6.29836 15.709 6.29836C17.7416 6.60338 19.1644 7.31508 19.4693 7.51842L19.9775 6.50171C20.0791 5.89167 20.7905 5.3833 21.4003 5.3833ZM14.3877 9.04353H14.0828C12.8633 9.04353 11.6437 9.5519 10.5257 11.077C8.79796 13.4155 7.47674 16.364 6.86695 18.4991C6.56205 19.5158 6.66368 20.4309 6.66368 20.8376C6.76531 20.8376 6.86697 20.7359 6.9686 20.6342C7.47676 20.3292 8.08656 19.9226 8.79798 19.3125C10.2208 18.0924 11.9485 16.4657 13.5747 14.7372C15.0991 13.1105 16.6236 11.4837 17.7416 9.95859C17.335 9.75524 16.522 9.34857 15.3024 9.14523C14.9975 9.14523 14.6926 9.04353 14.3877 9.04353ZM18.7579 22.4644C16.2171 24.4978 13.8796 26.8363 11.7453 29.0731C7.9849 33.14 5.1392 37.4103 4.12288 40.4605C3.81798 41.5789 3.61473 42.4939 3.61473 43.1039C3.61473 43.5106 3.61475 43.714 3.71638 43.9173C3.91964 44.6291 4.42779 45.1374 5.64737 45.4425C6.25717 45.6458 6.76533 45.7475 7.27349 45.7475C8.2898 45.7475 9.10288 45.4424 9.91594 44.9341C11.1355 44.2223 12.2535 43.1039 13.2698 41.4772C15.3024 38.2236 16.9285 33.2417 17.9448 28.0564C18.3514 26.2262 18.5546 24.2945 18.7579 22.4644Z" fill="#1E1E1E"/>
<path d="M48.3811 7.11182H48.5844C48.7876 7.11182 49.0925 7.31515 49.2958 7.41682C51.1252 8.43355 51.6333 10.162 52.1415 11.3821C52.6496 12.6021 53.0562 13.3138 54.2758 13.7205C54.4791 13.8222 54.6823 13.8222 54.8856 13.8222C56.2068 13.8222 58.4427 13.2122 60.2721 12.3988C62.508 11.3821 64.1341 10.3653 64.1341 10.3653C64.3373 10.2637 64.7439 10.162 64.9471 10.162C65.7602 10.162 66.37 10.772 66.37 11.5854C66.37 11.9921 66.0651 12.6021 65.6586 12.8055C65.6586 12.8055 63.8292 14.0256 61.39 15.0423C59.459 15.8557 57.2231 16.8724 55.0888 16.8724C54.5807 16.8724 53.9709 16.7707 53.4627 16.5674H53.3611C51.1252 15.8557 50.1089 13.9239 49.4991 12.5005C48.9909 11.2804 48.686 10.5687 48.1778 10.162C47.9746 10.3653 47.5681 10.6703 47.1615 11.1787C46.2469 12.2971 45.1289 14.0256 44.1126 15.754C41.9783 19.3125 40.1489 23.0745 40.1489 23.0745C39.9456 23.4812 39.3359 23.8878 38.8277 23.8878C38.6245 23.8878 38.3196 23.7861 38.1163 23.6845C37.4049 23.2778 37.0999 22.5661 36.8967 21.9561C36.6934 21.346 36.7951 20.736 36.7951 20.1259C36.7951 18.9059 37.1 17.4824 37.4049 16.1607C38.0147 13.5172 39.031 11.0771 39.031 11.0771C39.2343 10.5687 39.7424 10.162 40.3522 10.162C41.1652 10.162 41.775 10.772 41.775 11.5854C41.775 11.6871 41.775 11.9921 41.6734 12.0938C41.6734 12.0938 40.962 14.1272 40.3522 16.364C40.7587 15.6523 41.1653 15.0423 41.5718 14.3306C42.6897 12.5005 43.8077 10.6703 44.9256 9.34859C45.5354 8.63688 46.1452 8.02686 46.755 7.62017C47.1615 7.31515 47.7713 7.11182 48.3811 7.11182Z" fill="#1E1E1E"/>
<path d="M71.4637 5.07812C73.3947 5.07812 75.4273 6.19653 76.7485 8.53501C77.2567 9.55173 77.46 10.4668 77.46 11.4835C77.46 12.7036 77.1551 14.0253 76.6469 15.2454C76.8502 15.3471 77.0534 15.3471 77.2567 15.3471C78.6795 15.3471 80.204 15.0421 81.6269 14.5337C85.9971 13.212 89.7574 10.4668 89.7574 10.4668C89.9607 10.2634 90.3672 10.1618 90.6721 10.1618C91.4852 10.1618 92.095 10.7718 92.095 11.5852C92.095 11.9919 91.7901 12.5002 91.4852 12.7036C91.4852 12.7036 87.4199 15.8554 82.44 17.3805C80.8138 17.8889 79.1877 18.1939 77.5616 18.1939C76.7486 18.1939 76.0371 18.1939 75.3257 17.9906C73.6996 20.6341 71.4637 22.9726 68.618 23.7859C67.6017 24.091 66.5853 24.1926 65.6707 23.8876C64.756 23.5826 64.0445 23.0742 63.638 22.3625C62.825 21.2441 62.6217 19.8207 62.6217 18.4989C62.6217 18.1939 62.6217 17.9906 62.6217 17.6855C62.7233 14.432 63.8413 11.1785 63.8413 11.1785C64.0445 10.5684 64.6543 10.1618 65.2641 10.1618C66.0772 10.1618 66.687 10.7718 66.687 11.5852C66.687 11.6869 66.5853 11.8902 66.5853 11.9919C66.5853 11.9919 65.6707 15.1437 65.569 17.7872C65.4674 19.109 65.6706 20.3291 65.9755 20.7358C66.0772 20.9391 66.2805 21.0408 66.4837 21.1424C66.687 21.2441 67.0935 21.2441 67.8049 21.0408C69.3294 20.6341 71.1588 19.0073 72.48 17.0755C70.4474 16.0588 68.618 14.432 67.2968 11.8902C66.8902 11.1785 66.687 10.3651 66.687 9.65341C66.687 9.04338 66.7886 8.53501 66.9919 8.02665C67.5 6.90825 68.5163 5.99319 69.6343 5.48483C70.2441 5.28148 70.8539 5.07812 71.4637 5.07812ZM71.6669 7.92495H71.5653C71.2604 7.92495 70.9555 8.02663 70.7523 8.1283C70.2441 8.33165 69.9392 8.73837 69.736 9.14506C69.5327 9.55175 69.5327 9.95843 69.8376 10.5685C70.9555 12.7036 72.2767 13.822 73.8012 14.5337C74.2077 13.4153 74.411 12.1952 74.411 11.2802C74.411 10.7718 74.3094 10.2634 74.2077 9.95842C73.3947 8.43333 72.48 7.92495 71.6669 7.92495Z" fill="#1E1E1E"/>
<path d="M96.9708 5.07812C98.9018 5.07812 100.934 6.19653 102.256 8.53501C102.764 9.55173 102.967 10.4668 102.967 11.4835C102.967 12.7036 102.662 14.0253 102.154 15.2454C102.357 15.3471 102.561 15.3471 102.764 15.3471C104.187 15.3471 105.711 15.0421 107.134 14.5337C111.504 13.212 115.265 10.4668 115.265 10.4668C115.468 10.2634 115.874 10.1618 116.179 10.1618C116.992 10.1618 117.602 10.7718 117.602 11.5852C117.602 11.9919 117.297 12.5002 116.992 12.7036C116.992 12.7036 112.927 15.8554 107.947 17.3805C106.321 17.8889 104.695 18.1939 103.069 18.1939C102.256 18.1939 101.544 18.1939 100.833 17.9906C99.2067 20.6341 96.9708 22.9726 94.1251 23.7859C93.1088 24.091 92.0924 24.1926 91.1777 23.8876C90.263 23.5826 89.5516 23.0742 89.1451 22.3625C88.332 21.2441 88.1288 19.8207 88.1288 18.4989C88.1288 18.1939 88.1288 17.9906 88.1288 17.6855C88.2304 14.432 89.3484 11.1785 89.3484 11.1785C89.5516 10.5684 90.1614 10.1618 90.7712 10.1618C91.5843 10.1618 92.194 10.7718 92.194 11.5852C92.194 11.6869 92.0924 11.8902 92.0924 11.9919C92.0924 11.9919 91.1778 15.1437 91.0761 17.7872C90.9745 19.109 91.1777 20.3291 91.4826 20.7358C91.5843 20.9391 91.7875 21.0408 91.9908 21.1424C92.1941 21.2441 92.6006 21.2441 93.312 21.0408C94.8365 20.6341 96.6659 19.0073 97.9871 17.0755C95.9545 16.0588 94.1251 14.432 92.8038 11.8902C92.3973 11.1785 92.194 10.3651 92.194 9.65341C92.194 9.04338 92.2957 8.53501 92.499 8.02665C93.0071 6.90825 94.0234 5.99319 95.1414 5.48483C95.7512 5.28148 96.361 5.07812 96.9708 5.07812ZM97.174 7.92495H97.0724C96.7675 7.92495 96.4626 8.02663 96.2593 8.1283C95.7512 8.33165 95.4463 8.73837 95.243 9.14506C95.0398 9.55175 95.0398 9.95843 95.3446 10.5685C96.4626 12.7036 97.7838 13.822 99.3083 14.5337C99.7148 13.4153 99.9181 12.1952 99.9181 11.2802C99.9181 10.7718 99.8165 10.2634 99.7148 9.95842C98.9018 8.43333 97.9871 7.92495 97.174 7.92495Z" fill="#1E1E1E"/>
<path d="M140.568 7.41699H140.671C140.772 7.41699 141.077 7.41698 141.179 7.51865C141.687 7.72199 141.992 8.02701 142.195 8.43371C142.398 8.8404 142.5 9.14544 142.5 9.45046C142.602 10.0605 142.499 10.7722 142.398 11.3822C142.195 12.704 141.789 14.1274 141.585 15.6525C141.382 16.5676 141.381 17.2793 141.381 17.991C141.381 18.601 141.382 19.0077 141.585 19.4144C141.89 20.3295 142.195 20.7362 143.415 20.9395C143.618 21.0412 143.821 21.0412 144.126 21.0412C145.142 21.0412 146.362 20.7362 147.683 20.0244C149.309 19.2111 150.935 17.8893 152.459 16.4659C155.508 13.7207 157.745 10.6705 157.745 10.6705C157.948 10.3655 158.456 10.1622 158.862 10.1622C159.675 10.1622 160.286 10.7722 160.286 11.5856C160.286 11.8906 160.184 12.2973 159.981 12.5006C159.981 12.5006 157.643 15.6525 154.391 18.601C152.765 20.1261 150.935 21.5495 149.004 22.5663C147.378 23.4813 145.752 24.0913 144.024 24.0913C143.617 24.0913 143.211 23.9897 142.805 23.888C140.67 23.4813 139.349 21.8545 138.841 20.2278C138.536 19.5161 138.434 18.7027 138.434 17.991C138.434 17.0759 138.536 16.1609 138.74 15.2458C138.943 13.9241 139.146 12.704 139.349 11.6873L139.248 11.7889C138.231 13.009 136.808 14.8391 135.487 16.6692C134.166 18.4993 132.743 20.3295 131.524 21.6512C130.914 22.3629 130.304 22.9729 129.694 23.3796C129.39 23.583 129.084 23.7863 128.677 23.888C128.271 23.9897 127.662 23.888 127.154 23.6846C126.442 23.3796 125.933 22.7696 125.73 22.1596C125.527 21.5495 125.425 21.0411 125.324 20.4311C125.222 20.0244 125.223 19.6177 125.223 19.211C125.223 18.3977 125.324 17.4826 125.324 16.5676C125.324 15.7542 125.324 14.8391 125.324 14.1274C125.324 13.7207 125.324 13.314 125.324 13.009C125.324 12.6023 125.223 12.399 125.121 12.1956C124.918 12.399 124.714 12.704 124.409 13.009C123.596 14.0257 122.478 15.6525 121.462 17.2793C120.445 18.906 119.43 20.6345 118.413 21.8546C117.905 22.4646 117.498 22.9729 116.888 23.3796C116.583 23.583 116.279 23.7863 115.872 23.888C115.466 23.9897 114.856 23.9897 114.347 23.6846C113.636 23.278 113.433 22.5663 113.23 21.9562C113.027 21.3462 113.026 20.7361 113.026 20.1261C113.026 18.906 113.229 17.5843 113.534 16.2625C114.144 13.619 114.958 11.1789 114.958 11.1789C115.161 10.6705 115.669 10.1622 116.279 10.1622C117.092 10.1622 117.803 10.7722 117.803 11.5856C117.803 11.6873 117.701 11.9923 117.701 12.0939C117.701 12.0939 116.888 14.4324 116.38 16.8726C116.075 18.0927 115.872 19.3127 115.872 20.2278V20.3295L116.177 20.0244C116.99 19.0077 118.006 17.2793 119.022 15.6525C120.039 14.0257 121.157 12.399 122.174 11.1789C122.682 10.5688 123.19 9.95881 123.8 9.55211C124.41 9.14542 125.426 8.8404 126.341 9.34876C127.662 10.0605 128.068 11.4839 128.17 12.704C128.272 13.9241 128.271 15.3475 128.271 16.6692C128.271 17.5843 128.17 18.3977 128.17 19.211C128.17 19.5161 128.169 19.8211 128.271 20.1261C128.271 20.4311 128.373 20.5328 128.373 20.7362C128.677 20.5328 128.983 20.1261 129.39 19.7194C130.507 18.4993 131.829 16.7709 133.15 14.9408C134.471 13.1107 135.792 11.3822 137.012 9.95881C137.622 9.2471 138.232 8.63709 138.74 8.23039C139.045 8.02705 139.247 7.82369 139.654 7.62034C139.857 7.51867 140.162 7.41699 140.568 7.41699Z" fill="#1E1E1E"/>
<path d="M160.679 0.706543C161.492 0.706543 162.102 1.31657 162.102 2.12996C162.102 2.23163 162.001 2.53664 162.001 2.63831L161.188 5.07848C160.984 5.68852 160.476 6.09519 159.866 6.09519C159.053 6.09519 158.342 5.48516 158.342 4.67178C158.342 4.57011 158.443 4.2651 158.443 4.16342L159.256 1.72326C159.459 1.11322 160.07 0.706543 160.679 0.706543ZM159.256 10.1621C160.069 10.1621 160.679 10.7722 160.679 11.5855V11.6872C160.577 13.4157 160.273 15.0424 160.273 16.5675C160.273 16.7709 160.273 16.9742 160.273 17.0759C160.374 18.7027 160.679 19.8211 162.001 20.5328C162.509 20.9395 163.322 21.0411 164.237 21.0411C165.05 21.0411 166.066 20.9395 167.082 20.5328C169.216 19.8211 171.757 18.4993 173.993 16.9742C178.566 14.0257 182.225 10.5688 182.225 10.5688C182.429 10.3655 182.936 10.1621 183.241 10.1621C184.054 10.1621 184.665 10.7722 184.665 11.5855C184.665 11.9922 184.562 12.5006 184.257 12.7039C184.257 12.7039 180.294 16.2625 175.517 19.4144C173.078 20.9395 170.538 22.4646 167.997 23.2779C166.676 23.7863 165.354 23.9896 164.033 23.9896C162.711 23.9896 161.492 23.7863 160.476 23.0746C158.138 21.7528 157.427 19.3127 157.326 17.1775C157.326 16.9742 157.326 16.7709 157.326 16.5675C157.326 14.6357 157.63 12.9073 157.732 11.4839C157.732 10.6705 158.443 10.1621 159.256 10.1621Z" fill="#1E1E1E"/>
<path d="M193.736 7.31543H193.939C194.244 7.31543 194.549 7.51876 194.752 7.62044C195.565 8.02713 195.87 8.73882 196.073 9.34886C196.277 9.95889 196.378 10.6706 196.48 11.3823C196.582 12.8057 196.582 14.5342 196.683 16.0593C196.785 17.5844 196.886 19.1095 197.191 20.0245C197.395 20.4312 197.496 20.7362 197.598 20.8379C197.7 20.9396 197.801 20.9396 198.106 20.9396C200.139 20.9396 203.289 18.7028 205.728 16.0593C208.168 13.4158 209.794 10.7723 209.794 10.7723C209.998 10.3656 210.607 10.1623 211.014 10.1623C211.827 10.1623 212.538 10.7723 212.538 11.5857C212.538 11.789 212.335 12.1957 212.233 12.3991C212.233 12.3991 210.506 15.1442 207.863 17.9911C205.22 20.8379 201.866 23.8881 198.106 23.8881C197.191 23.8881 196.277 23.4814 195.667 22.973C195.057 22.4647 194.752 21.6513 194.447 20.9396C193.939 19.5162 193.837 17.7877 193.736 16.161C193.634 14.5342 193.736 12.9074 193.634 11.6874C193.634 11.2807 193.533 10.874 193.431 10.569C193.228 10.7723 192.923 11.0773 192.618 11.484C191.703 12.7041 190.484 14.5342 189.366 16.3643C188.248 18.1944 187.028 20.1262 186.012 21.5496C185.504 22.2613 184.995 22.7697 184.386 23.2781C184.081 23.4814 183.776 23.7864 183.369 23.8881C182.963 23.9898 182.251 23.9898 181.743 23.6847C181.032 23.278 180.829 22.668 180.625 22.058C180.422 21.4479 180.32 20.8379 180.32 20.2279C180.32 19.0078 180.625 17.5844 180.829 16.2626C181.337 13.6191 182.048 11.179 182.048 11.179C182.251 10.5689 182.861 10.1623 183.471 10.1623C184.284 10.1623 184.894 10.7723 184.894 11.5857C184.894 11.6873 184.792 11.8907 184.792 11.9924C184.792 11.9924 184.182 14.3309 183.674 16.771C183.471 17.9911 183.268 19.3128 183.268 20.2279V20.3295C183.369 20.1262 183.573 20.0245 183.674 19.8212C184.589 18.6011 185.809 16.6693 186.926 14.8392C188.044 13.0091 189.264 11.0773 190.382 9.6539C190.992 8.94219 191.5 8.33213 192.11 7.92544C192.415 7.7221 192.821 7.51876 193.228 7.41709C193.431 7.41709 193.533 7.31543 193.736 7.31543Z" fill="#1E1E1E"/>
<path d="M224.169 5.3833C224.982 5.3833 225.592 5.99333 225.592 6.80672C225.592 6.80672 225.592 10.772 225.185 16.1606C230.673 12.6021 236.568 10.1619 241.955 10.1619C242.768 10.1619 243.479 10.772 243.479 11.5854C243.479 12.3987 242.768 13.0088 241.955 13.0088C236.873 13.0088 230.673 15.9573 224.779 20.0242C224.474 22.7694 224.067 25.7179 223.559 28.5648C222.543 33.9534 221.018 39.1387 218.579 43.0023C217.36 44.9341 215.835 46.4591 214.006 47.4759C212.786 48.1876 211.465 48.5943 210.042 48.5943C209.331 48.5943 208.518 48.4926 207.704 48.1876C205.773 47.6792 204.248 46.4592 203.74 44.8324C203.537 44.324 203.537 43.714 203.537 43.1039C203.537 41.9855 203.74 40.8672 204.147 39.5454C205.468 35.7835 208.416 31.3099 212.38 27.0396C215.225 23.9895 218.478 21.041 222.035 18.3975C222.238 15.9573 222.441 13.9238 222.543 12.0937C221.323 13.6188 219.9 15.1439 218.376 16.7707C216.648 18.6008 214.92 20.2275 213.396 21.5493C212.583 22.1593 211.871 22.7694 211.16 23.1761C210.449 23.5828 209.94 23.9894 209.026 23.8878C208.416 23.8878 207.602 23.4811 207.196 22.9727C206.789 22.4643 206.586 21.8543 206.484 21.3459C206.484 21.1426 206.383 20.9393 206.383 20.6342C206.383 19.7192 206.688 18.9058 206.891 17.7874C207.602 15.1439 209.026 11.992 210.957 9.34854C212.685 7.01006 215.124 6.29836 217.258 6.29836C217.664 6.29836 218.071 6.29836 218.478 6.29836C220.51 6.60338 221.933 7.31508 222.238 7.51842L222.746 6.50171C222.848 5.89167 223.559 5.3833 224.169 5.3833ZM217.156 9.04353H216.851C215.632 9.04353 214.412 9.5519 213.294 11.077C211.567 13.4155 210.245 16.364 209.636 18.4991C209.331 19.5158 209.432 20.4309 209.432 20.8376C209.534 20.8376 209.636 20.7359 209.737 20.6342C210.245 20.3292 210.855 19.9226 211.567 19.3125C212.989 18.0924 214.717 16.4657 216.343 14.7372C217.868 13.1105 219.392 11.4837 220.51 9.95859C220.104 9.75524 219.291 9.34857 218.071 9.14523C217.766 9.14523 217.461 9.04353 217.156 9.04353ZM221.526 22.4644C218.986 24.4978 216.648 26.8363 214.514 29.0731C210.753 33.14 207.907 37.4103 206.891 40.4605C206.586 41.5789 206.383 42.4939 206.383 43.1039C206.383 43.5106 206.383 43.714 206.484 43.9173C206.688 44.6291 207.196 45.1374 208.416 45.4425C209.026 45.6458 209.534 45.7475 210.042 45.7475C211.058 45.7475 211.871 45.4424 212.685 44.9341C213.904 44.2223 215.022 43.1039 216.038 41.4772C218.071 38.2236 219.697 33.2417 220.713 28.0564C221.12 26.2262 221.323 24.2945 221.526 22.4644Z" fill="#1E1E1E"/>
</svg>
