<svg width="641" height="353" viewBox="0 0 641 353" fill="none" xmlns="http://www.w3.org/2000/svg">
<path d="M177.1 46.42C175.32 53.38 173.21 60.18 171.53 67.41C173.02 67.1 173.34 65.97 173.87 65.17C180.82 54.74 186.62 43.68 191.3 32.07C193.5 26.61 197.54 26.16 202.25 27.75C202.41 27.8 202.54 27.95 202.7 27.96C210.45 28.71 213.66 35.45 218.48 40.02C222.57 43.89 225.46 48.89 230.25 52.19C232.97 54.06 235.11 56.74 236.7 59.74C239.05 64.17 242 68.2 244.93 72.25C246.25 74.07 247.36 76.02 248.19 78.13C250.01 82.79 252.11 87.33 254.82 91.55C256.94 94.86 258.71 98.33 260.06 102.02C260.85 104.2 262.37 104.91 264.62 104.06C276.9 99.41 289.67 98.15 302.69 98.52C309.93 98.72 317.22 97.75 324.39 99.04C331.18 100.26 337.88 102 344.62 103.54C345.34 103.71 346.13 103.93 346.69 104.37C348.59 105.86 349.28 105.34 349.52 103.07C349.87 99.73 351.19 96.63 352.23 93.47C353.38 89.97 353.24 89.69 349.69 89C348.72 88.81 347.75 88.62 346.77 88.43C346.79 88.2 346.8 87.98 346.82 87.75C348.16 87.98 349.51 88.14 350.83 88.45C352.93 88.94 354.24 88.46 354.99 86.2C358.55 75.52 365.75 66.91 371.37 57.39C374.88 51.44 379.61 46.88 385.11 42.8C389.03 39.9 392.33 36.18 396.32 33.27C398.63 31.58 401.34 30.65 403.6 28.92C404.34 28.36 405.06 28.67 405.41 29.52C407.14 33.66 409.34 37.61 410.06 42.13C410.27 43.45 409.94 44.13 408.54 43.85C406.79 43.51 405.41 44.28 404.18 45.29C400.02 48.73 395.67 51.93 391.63 55.51C389.85 57.09 387.66 58.13 386.08 60.05C375.67 72.72 367.35 86.54 362.75 102.4C361.97 105.11 361.66 107.96 360.95 110.69C360.16 113.75 359.26 114 357.1 111.85C355.05 109.81 352.52 110.06 350.31 110.9C340.79 114.51 331.04 114.49 321.26 112.84C308.37 110.67 295.71 111.67 283.12 114.76C280.01 115.52 276.83 114.74 273.71 115.43C271.58 115.9 269.38 115.88 268.18 118.18C267.99 118.55 267.4 118.8 266.94 118.92C264.05 119.7 261.14 120.45 258.23 121.16C257.68 121.3 256.82 121.51 256.55 121.24C253.81 118.56 249.46 117.99 248.06 113.4C245.88 106.27 244.15 98.94 240.43 92.32C235.6 83.73 231.83 74.51 224.84 67.25C221.84 64.13 219 60.86 216.13 57.62C214.64 55.94 213.23 54.18 212.1 52.22C209.95 48.46 206.08 46.82 202.65 44.67C201.23 43.77 200.74 45.25 200.28 46.12C197.47 51.51 194.43 56.78 191.54 62.13C186.27 71.86 181.44 81.8 174.59 90.62C171.5 94.6 169.7 99.49 168.67 104.55C166.89 113.37 162.86 121.68 162.03 130.66C160.96 142.14 158.31 153.6 160 165.21C161.27 173.96 163.59 182.49 167.31 190.57C167.76 191.55 168.14 192.58 168.4 193.62C169.86 199.34 172.68 204.27 177.01 208.28C178.48 209.64 178.63 210.89 178.43 213.02C177.61 221.75 175 230.12 173.9 238.79C172.57 249.22 172.67 259.72 171.57 270.15C170.81 277.36 173.38 283.74 176.33 290.05C181.15 300.37 188.83 308.21 197.83 314.89C199.91 316.44 202.3 317.38 204.82 318.11C207.93 319.02 210.92 320.32 213.99 321.38C221.63 324.01 229.57 324.71 237.58 325.12C241.01 325.3 244.46 325.35 247.86 326.24C249.66 326.71 251.69 326.63 253.58 326.44C262.51 325.5 271.57 326.14 280.43 324.42C285.26 323.48 290.01 322.03 294.1 319.27C297.74 316.81 300.02 313.01 302.23 309.27C303.09 307.81 301.8 307.63 300.84 307.37C297.47 306.44 294.04 305.6 290.95 303.91C282.36 299.21 278.63 291.83 280.1 282.25C281.53 273 285.5 265 294.28 260.5C299.94 257.6 305.82 255.47 312.5 256.74C315.74 257.36 319.11 257.58 322.42 257.77C329.67 258.19 335.14 262.24 340.82 266.04C346.23 269.66 349.1 274.74 349.39 281.06C349.74 288.43 348.84 295.63 343.32 301.28C340.66 303.99 337.17 305.54 333.85 307.26C328.49 310.04 328.27 310.57 331.43 315.63C332.36 317.11 333.54 318.43 334.41 319.94C336.22 323.07 338.93 324.48 342.45 324.48C343.57 324.48 344.54 324.75 345.44 325.5C346.86 326.69 348.71 326.9 350.41 326.89C358.91 326.82 367.36 328.37 375.85 327.89C384.22 327.41 392.65 327.22 400.77 324.56C413.94 320.24 424.83 312.75 432.63 301.28C436.12 296.14 438.77 290.41 441.67 284.88C442.59 283.13 443.23 281.2 442.68 279.09C442.4 278 442.66 276.83 443.22 275.94C445.44 272.42 445.41 268.46 445.46 264.58C445.57 255.75 445.57 246.91 445.43 238.08C445.34 232.58 444.45 227.14 443.64 221.71C443.37 219.87 442.66 218.24 441.33 216.83C439.48 214.85 439.86 212.32 440.18 209.93C440.4 208.31 440.62 206.9 439.18 205.6C438 204.53 438.45 202.95 438.73 201.57C439.59 197.23 441.09 193.07 442.36 188.84C445.29 179.03 448.52 169.26 449.54 159.01C450.74 146.9 449.99 134.85 446.68 123.1C444.52 115.41 442.85 107.55 439.63 100.19C436.22 92.41 432.38 84.82 429.44 76.84C428.06 73.08 426.37 69.48 424.16 66.13C423.78 65.55 423.82 64.87 423.72 64.21C423.47 62.65 423.16 61.03 422.08 59.83C417.35 54.63 415.37 48.03 412.83 41.72C410.97 37.09 409.26 32.39 407.33 27.79C406.71 26.32 406.71 25.37 408.06 24.38C409.74 23.15 411.34 21.81 412.86 20.39C414.6 18.77 415.9 19.2 417.14 20.97C418.53 22.96 419.71 25.08 420.63 27.31C423.36 33.93 426.03 40.57 428.65 47.24C429.57 49.57 430.57 51.84 431.95 53.95C437.64 62.62 442.21 71.85 445.61 81.64C446.95 85.51 449.01 89.07 450.34 92.93C456.15 109.71 461.5 126.64 463.84 144.32C464.83 151.77 464.8 159.22 463.29 166.69C461.89 173.62 461.12 180.68 460.04 187.68C459.64 190.25 459.03 192.74 457.11 194.71C456.39 195.45 456.36 196.54 455.97 197.45C452.34 205.99 453.44 214.56 455.09 223.36C456.47 230.7 456.72 238.24 457.04 245.73C457.32 252.38 457.94 259.02 457.12 265.68C456.92 267.35 457.91 267.39 459.18 267.08C463.14 266.12 467.01 264.84 471.03 264.02C476.54 262.89 482.06 262.4 487.66 262.49C488.77 262.51 489.81 262.59 490.51 263.66C491.19 264.69 492.42 264.55 493.42 264.88C502.43 267.85 510.94 271.72 517.79 278.54C518.55 279.3 519.15 280.22 519.87 281.02C520.56 281.79 520.82 283.7 522.54 281.8C523.12 281.16 524.42 282.13 525.21 282.7C529.11 285.52 530.67 289.82 532.31 294.1C529.56 290.01 527.37 285.38 521.73 283.69C522.71 286.42 523.94 288.59 525.52 290.47C530.78 296.73 531.37 303.88 529.71 311.45C526.62 325.49 517.84 333.68 503.55 336.16C498.36 337.06 493.16 337.72 487.91 337.42C485.01 337.25 482.4 338.46 479.56 338.65C475.36 338.93 471.26 338.54 467.13 338.03C462.59 337.47 458.04 336.97 453.49 336.47C450.24 336.12 447.79 334.3 445.47 332.22C444.11 331 443.2 329.35 440.68 329.83C439.49 330.06 437.81 328.69 436.61 327.73C434.87 326.34 433.42 326.72 431.9 327.93C430.85 328.76 429.83 329.6 428.76 330.4C426.33 332.23 423.64 333.12 420.58 333.71C414.34 334.92 407.92 335.14 401.86 337.52C396.56 339.6 390.79 339.66 385.17 340.35C372.33 341.92 359.57 340.25 346.81 339.41C341.46 339.06 335.93 338.12 330.96 336.22C326.18 334.39 321.16 332.32 317.58 328.24C316.71 327.25 315.93 326.24 314.13 326.1C316.37 325.12 316.757 323.757 315.29 322.01C314.81 321.44 314.45 320.77 314.02 320.16C313.78 319.81 313.33 319.35 313.04 319.77C311.84 321.48 309.42 321.41 308.28 323.26C305.93 327.06 302.38 329.47 298.52 331.59C293.41 334.39 288.48 337.44 282.91 339.38C278.42 340.94 273.83 341.51 269.2 341.86C262.57 342.36 255.94 342.23 249.26 341.88C240.23 341.42 232.16 337.66 223.59 335.72C219.53 334.8 215.49 333.81 211.52 332.49C208.37 331.44 205.61 333.2 204.99 336.42C204.5 338.97 202.61 340.17 200.5 340.58C194.83 341.68 189.58 344.09 183.99 345.47C168.68 349.26 153.33 349.18 137.87 346.86C132.62 346.07 127.44 344.55 122.04 345.05C120.56 345.19 119.3 344.47 118.08 343.7C108.38 337.58 103.59 328.4 102.57 317.34C101.99 311.09 101.67 304.64 104.45 298.63C108.82 289.16 116.36 283.05 125.88 279.5C135.82 275.79 146.16 273.5 156.83 273.13C158.04 273.09 158.36 272.66 158.54 271.56C159.25 267.06 159.06 262.59 158.35 258.13C158.19 257.11 158.15 256.42 158.89 255.46C160.15 253.83 159.68 251.61 159.88 249.66C161.14 237.64 162.51 225.65 166.22 214.07C166.64 212.76 166.33 211.64 165.75 210.48C160.58 200.09 156.04 189.41 152.81 178.29C150.29 169.61 147.99 160.79 148.37 151.53C148.73 142.8 147.82 134.02 149.48 125.35C150.07 122.24 150.63 119.09 151.64 116.11C154.15 108.7 156.68 101.29 159.4 93.95C161.71 87.7 165.4 82.06 167.13 75.59C169.26 67.62 172.62 60.07 175 52.19C175.59 50.22 176.4 48.31 177.1 46.38V46.42ZM463.35 323.95C464.12 323.95 464.54 323.91 464.95 323.95C467.38 324.26 468.33 323.16 468.02 320.79C467.85 319.47 467.69 318.15 467.59 316.82C467.26 312.19 471.52 308.74 475.78 310.29C478.57 311.3 479.73 313.78 480.42 316.42C481.09 318.99 481.66 321.62 481.51 324.32C481.42 326.01 482.45 326.64 483.8 327.13C485.09 327.59 485.76 326.89 486.54 326.02C487.98 324.41 488.24 322.71 487.49 320.71C486.99 319.39 486.59 318.02 486.33 316.63C485.63 312.93 487.73 309.32 491.1 308.3C494.25 307.34 497.43 309.21 498.87 312.91C499.66 314.93 500.31 317.01 500.51 319.18C500.65 320.64 501.24 320.99 502.66 320.54C509 318.56 509.53 317.42 506.73 311.48C506.55 311.1 506.35 310.74 506.18 310.36C504.09 305.6 506.35 301.63 511.5 301.03C512.47 300.92 513.44 300.84 513.3 299.53C512.79 294.61 511.64 289.64 507.87 286.4C499.96 279.6 490.7 275.38 480.05 275.71C471.74 275.97 463.92 278.92 456.04 281.34C454.52 281.8 453.82 282.7 454.52 284.35C455.35 286.3 454.69 288.11 453.82 289.86C453.38 290.75 452.74 291.58 452.45 292.52C450.34 299.46 447.41 306.08 444.83 312.83C444.41 313.94 444.41 314.66 445.46 315.36C448.91 317.68 452.19 320.28 456.03 321.97C458.46 323.04 460.87 324.29 463.33 323.95H463.35ZM139.42 328.9C139.493 332.573 141.33 334.63 144.93 335.07C145.51 335.14 146.08 335.28 146.65 335.35C148.05 335.52 148.53 334.88 148.08 333.59C147.42 331.71 146.68 329.85 146 327.97C144.78 324.57 146.83 320.87 150.35 320.07C153.89 319.27 156.15 320.68 158 325.17C159.17 328.01 160.12 330.96 161.02 333.9C161.74 336.24 163.38 335.8 165.04 335.48C166.93 335.11 166.34 333.74 166.26 332.52C166.08 329.67 164.52 327.12 164.47 324.25C164.41 321.07 165.88 318.94 168.62 318.22C171.63 317.43 174.4 318.55 175.84 321.22C176.71 322.83 177.78 324.3 178.74 325.82C179.76 327.44 181.28 329.37 179.69 331.71C179.02 332.69 179.99 332.99 180.83 332.91C183.1 332.69 185.17 331.99 187.08 330.64C190.75 328.06 190.72 326.27 186.77 323.91C186.27 323.61 185.76 323.26 185.21 323.13C181.5 322.25 179.18 318.9 175.59 317.77C174.44 317.41 173.84 316.04 173.16 314.99C168.04 307.12 164.31 298.59 161.53 289.65C160.1 285.05 160.13 285.04 155.52 285.83C155.03 285.91 154.53 285.95 154.03 286.02C145.22 287.37 136.5 288.97 128.22 292.55C114.52 298.48 113.2 310.93 116.91 322.68C117.18 323.54 117.52 324.59 118.4 324.91C121.26 325.94 123.18 328.15 125.35 330.07C125.83 330.49 126.33 331.16 127.06 330.78C127.77 330.41 127.53 329.59 127.51 328.96C127.43 326.7 127.68 324.47 128.11 322.26C128.85 318.41 130.93 316.99 134.89 317.55C138.21 318.02 140.21 320.71 139.83 324.17C139.66 325.74 139.56 327.31 139.42 328.89V328.9Z" fill="#1E1E1E"/>
<path d="M381.47 190.89C400.61 190.89 416.07 206.78 416.1 226.51C416.13 246.35 400.42 262.57 381.19 262.57C362.17 262.57 346.45 246.24 346.51 226.54C346.57 206.79 362.16 190.89 381.48 190.89H381.47ZM363.67 237.37C366.56 241.37 368.38 246.32 373.85 248.35C373.75 247.39 372.6 247.47 372.82 246.36C375.09 247.26 377.39 247.92 379.92 248.45C379.05 249.42 378.01 248.64 377.21 249.7C384.54 250.82 390.51 248.47 395.53 243.67C400.74 238.69 403.57 232.68 402.35 224.64C394.29 242.26 382.37 250.08 363.67 237.38V237.37Z" fill="#1E1E1E"/>
<path d="M246.71 260.58C241.09 260.93 235.73 259.63 230.71 256.9C229.55 256.27 228.44 256.01 227.15 256.56C224.05 257.87 221.3 257.44 219.02 254.81C218.58 254.31 218.08 253.87 217.33 253.88C216.83 253.88 216.43 253.67 216.87 253.15C217.97 251.84 217.01 250.78 216.48 249.72C214.09 244.94 211.96 240.06 210.82 234.81C208.45 223.93 210.75 214.18 217.81 205.55C220.91 201.76 225.33 200.16 229.64 198.39C231.1 197.79 232.62 197.32 234.08 196.7C244.04 192.47 253.93 193.49 263.8 197.04C267.14 198.24 269.37 201.22 272.61 202.61C272.89 202.73 273.18 203.35 273.13 203.67C272.71 206.12 274.36 207.48 275.77 209.01C283.39 217.27 284.66 230.92 278.95 241C273.86 249.99 266.32 255.86 256.68 259.26C253.48 260.39 250.2 260.76 246.74 260.59L246.71 260.58ZM228.71 233.24C229.21 234.67 229.16 235.71 229.25 236.71C229.44 238.99 230.28 241.33 232.33 242.37C233.69 243.06 234.61 243.89 235.39 245.03C235.77 245.59 236.07 246.28 236.8 246.33C240.05 246.57 243.07 248.04 246.36 248.01C255.71 247.93 265.16 241.34 268.38 232.57C269.22 230.28 269.85 227.91 269.17 224.99C268.83 225.68 268.66 225.96 268.56 226.25C264.42 237.9 252.47 243.69 241.04 242.19C239.02 241.93 237.18 241.31 235.45 240.22C232.78 238.54 231.43 235.63 228.73 233.22L228.71 233.24Z" fill="#1E1E1E"/>
<path d="M412.5 163.18C412.98 162.19 414.48 162.71 414.96 161.34C413.03 161.5 411.96 160.18 410.79 159.04C407.34 155.67 404.14 152.03 400.32 149.03C399.31 148.23 398.57 146.93 396.92 147.48C396.35 147.67 396.16 147.21 396.27 146.75C396.76 144.73 395.08 144.1 393.9 143.39C391.95 142.23 390.17 140.91 388.56 139.31C386.82 137.58 384.93 136.15 382.29 136.14C381.74 136.14 381.11 135.93 380.64 135.62C375.42 132.29 371.36 127.92 369.01 122.11C368.18 120.06 368.53 118.02 369.26 116.01C372.48 107.1 376.9 98.8399 382.57 91.2499C386.41 86.1199 390.05 80.8399 393.9 75.7199C396.4 72.3899 399.19 69.2899 402.29 66.4999C405.41 63.6899 409.81 64.0499 412.52 67.2199C413.58 68.4699 413.92 69.7599 412.59 70.9599C405.35 77.4799 400.07 85.6399 394.18 93.2699C389.44 99.4199 385.93 106.33 383.28 113.68C382.35 116.26 383.24 117.59 385.36 118.67C388.93 120.5 392.18 122.82 395.29 125.35C399.5 128.77 403.44 132.46 407.18 136.38C408.05 137.3 408.56 138.22 408.19 139.51C407.25 142.75 408.76 145.03 410.96 147.23C414.21 150.49 416.12 154.57 417.23 159.01C417.86 161.53 415.09 163.93 412.5 163.19V163.18Z" fill="#1E1E1E"/>
<path d="M229.03 134.73C229.6 125.75 228.79 116.93 225.72 108.41C225.33 107.32 225.12 106.12 224.55 105.13C219 95.6498 214.82 85.4498 209.27 75.9698C207.13 72.3098 203.78 69.4598 202.28 65.3798C201.92 64.3998 201 63.5198 202.52 62.6698C203.88 61.9098 204.64 62.5098 205.42 63.5798C208.82 68.2398 213.05 72.1598 217.24 76.0198C221.21 79.6798 224.77 83.4098 227.04 88.4098C229.72 94.3298 232.97 99.9398 237.61 104.63C238.06 105.08 238.34 105.75 238.55 106.37C241.24 114.25 242.73 122.29 241.7 130.66C241.48 132.48 241.54 134.31 241.79 136.14C242.37 140.39 241.68 144.61 241.39 148.84C241.3 150.2 240.54 151.33 239.54 152.29C238.63 153.15 237.72 154.01 236.92 154.97C235.1 157.15 233.33 157.28 231.91 154.87C230.4 152.32 229 149.63 229.02 146.48C229.05 142.57 229.02 138.65 229.02 134.74L229.03 134.73Z" fill="#1E1E1E"/>
</svg>
