<svg viewBox="0 0 105 106" fill="none" xmlns="http://www.w3.org/2000/svg">
<g clip-path="url(#clip0_72_1745)">
<path d="M76.8119 7.13492C78.467 8.93232 79.4484 11.0751 80.2024 13.3861C81.0758 16.0709 80.8874 18.7621 80.567 21.4744C80.5055 21.9973 80.5851 22.2486 81.1441 22.1542C82.8103 21.8697 84.433 22.2213 86.0459 22.5233C88.5509 22.9911 90.8467 23.9472 92.6888 25.7836C93.666 26.7589 94.7485 27.637 95.4773 28.8458C96.7932 31.0251 97.0293 33.3258 96.3554 35.7579C95.9223 37.3253 95.2521 38.7794 94.2744 40.0663C92.773 42.0413 90.7864 43.3622 88.3665 43.8918C85.813 44.4535 83.2261 44.6953 80.5864 44.5239C78.7477 44.4039 76.9249 44.0926 75.0821 44.0583C74.852 44.0538 74.6534 44.102 74.4551 44.2091C73.0769 44.9533 71.7928 45.818 70.666 46.9273C68.8909 48.6726 67.3442 50.6029 65.7929 52.5469C63.4791 55.4469 61.2496 58.4146 58.831 61.236C57.0707 63.289 55.1991 65.2356 53.4309 67.278C50.7593 70.3686 47.9766 73.3623 45.413 76.5439C45.0555 76.9882 45.0975 77.4153 45.2177 77.9011C45.8957 80.6371 46.4089 83.3991 46.5184 86.2234C46.6009 88.3295 46.1556 90.3695 45.765 92.4232C45.3596 94.5642 44.3671 96.3953 42.7636 97.7911C39.935 100.255 36.6193 101.399 32.868 100.608C29.7084 99.9397 27.3802 97.9391 25.4834 95.4252C24.4079 93.9982 23.9009 92.3011 23.4902 90.5815C23.0731 88.8464 22.7011 87.1032 22.7842 85.3052C22.8069 84.8029 22.5981 84.736 22.1643 84.7377C19.8307 84.7444 17.578 84.3554 15.4543 83.3281C11.2227 81.2765 8.93958 77.814 8.49375 73.2385C8.27509 70.9981 8.92764 68.8321 10.2394 66.8741C12.7414 63.141 16.3175 61.6729 20.6469 61.5923C22.2574 61.5616 23.8515 61.6195 25.432 61.9544C26.2994 62.1392 27.0922 62.5312 27.9077 62.85C28.3645 63.0286 28.716 63.0384 29.1005 62.6793C29.9497 61.8833 30.8632 61.1566 31.6937 60.3449C34.1742 57.9149 36.8085 55.6547 39.336 53.2772C41.5116 51.2318 43.6073 49.0955 45.6026 46.8665C47.0383 45.262 48.4535 43.6406 49.8799 42.0301C53.0731 38.4256 56.3369 34.8935 59.7636 31.5126C60.3733 30.9125 61.0064 30.3325 61.6396 29.7587C62.018 29.4154 61.9787 29.1327 61.6493 28.759C59.6456 26.4884 58.3105 23.8243 57.5694 20.9332C56.993 18.6832 57.1172 16.3548 57.9995 14.131C58.9062 11.8449 60.0063 9.64124 61.7706 7.91934C64.0985 5.64743 66.7177 3.90676 70.2482 4.27053C71.4728 4.39653 72.7236 4.28928 73.8201 4.97446C74.862 5.62427 75.9407 6.23351 76.8088 7.13805L76.8119 7.13492ZM73.6012 10.2872C72.8709 9.70962 72.1894 9.00734 71.2693 8.83228C68.5352 8.31177 66.4117 9.41136 64.6434 11.4474C63.8664 12.3426 63.3643 13.3911 62.7761 14.3891C61.7704 16.0959 61.5155 18.0056 61.9553 19.8711C62.4415 21.9276 63.4506 23.8074 64.769 25.4923C65.5115 26.4429 66.3962 27.2867 66.9778 28.3599C67.5184 29.3556 67.4072 30.5116 66.6719 31.1546C65.2986 32.3573 64.0287 33.6713 62.7306 34.9451C59.986 37.6367 57.2729 40.3593 54.7806 43.2994C52.6797 45.7763 50.4944 48.1856 48.3168 50.5963C45.325 53.9085 42.0718 56.9694 38.7368 59.9315C35.8978 62.4559 33.2531 65.1904 30.3169 67.6097C29.178 68.5496 28.1198 68.6431 27.0366 67.6313C26.6248 67.2473 26.1626 66.9802 25.6465 66.7742C23.4695 65.9043 21.2201 65.9382 18.9571 66.2553C17.0296 66.5263 15.525 67.4176 14.2585 68.9849C11.8027 72.0258 13.3536 76.3505 15.7136 78.2187C17.5277 79.6542 19.6465 80.2322 21.9243 80.2415C22.7749 80.2461 23.667 80.4275 24.478 80.1275C26.4689 79.3913 28.0331 80.8799 27.5923 82.8748C27.0296 85.4227 27.4502 87.8372 28.0234 90.2972C28.5629 92.6098 30.0501 94.2078 31.9093 95.4191C34.0043 96.7855 36.2524 96.5619 38.4284 95.4152C39.7758 94.7055 40.7894 93.636 41.1877 92.1949C41.9539 89.4247 42.2814 86.5956 41.7889 83.7153C41.4623 81.8069 41.1263 79.9017 40.5981 78.0415C40.2324 76.7584 40.3671 75.61 41.2191 74.5697C41.6075 74.0941 42.0097 73.6262 42.4074 73.1599C44.3295 70.9019 46.2893 68.6778 48.2146 66.4261C50.5699 63.6721 53.1163 61.0907 55.4246 58.2935C57.34 55.9734 59.1929 53.6039 61.0771 51.2592C63.1261 48.7065 65.05 46.0644 67.4243 43.7799C69.0794 42.1878 70.9264 40.9239 72.9697 39.9151C73.69 39.5599 74.4567 39.3831 75.2722 39.4797C78.8031 39.8993 82.3184 40.3191 85.8952 39.7933C88.3894 39.4263 90.3317 38.4198 91.4404 36.1167C92.1264 34.6905 92.6901 33.1376 91.8285 31.6344C90.8567 29.9361 89.4503 28.5505 87.6562 27.7337C85.5737 26.7839 83.3404 26.488 81.0389 26.6561C80.1004 26.7253 79.1802 26.7447 78.2442 26.9585C76.7199 27.3057 75.2248 25.6844 75.5579 24.0619C75.9075 22.3568 76.0566 20.636 76.2802 18.9179C76.5286 16.9959 76.0945 15.2531 75.4892 13.5055C75.0762 12.3144 74.4494 11.2308 73.6029 10.2918L73.6012 10.2872Z" fill="#B7D7A9"/>
</g>
<defs>
<clipPath id="clip0_72_1745">
<rect width="99.1273" height="49.5636" fill="white" transform="translate(0 70.6133) rotate(-45.4264)"/>
</clipPath>
</defs>
</svg>
