<svg width="794" height="509" viewBox="0 0 794 509" fill="none" xmlns="http://www.w3.org/2000/svg">
<g clip-path="url(#clip0_5_16)">
<path d="M448.4 456.486C449.213 456.486 449.823 457.096 449.823 457.909C449.823 457.909 449.823 461.875 449.417 467.263C454.905 463.705 460.799 461.265 466.186 461.265C466.999 461.265 467.71 461.875 467.71 462.688C467.71 463.501 466.999 464.111 466.186 464.111C461.104 464.111 454.905 467.06 449.01 471.127C448.705 473.872 448.299 476.821 447.791 479.667C446.774 485.056 445.25 490.241 442.811 494.105C441.591 496.037 440.067 497.562 438.237 498.579C437.018 499.29 435.696 499.697 434.273 499.697C433.562 499.697 432.749 499.595 431.936 499.29C430.005 498.782 428.48 497.562 427.972 495.935C427.769 495.427 427.769 494.817 427.769 494.207C427.769 493.088 427.972 491.97 428.379 490.648C429.7 486.886 432.647 482.413 436.611 478.142C439.457 475.092 442.709 472.144 446.266 469.5C446.469 467.06 446.673 465.026 446.774 463.196C445.555 464.721 444.132 466.247 442.607 467.873C440.88 469.703 439.152 471.33 437.627 472.652C436.814 473.262 436.103 473.872 435.391 474.279C434.68 474.685 434.172 475.092 433.257 474.99C432.647 474.99 431.834 474.584 431.428 474.075C431.021 473.567 430.818 472.957 430.716 472.449C430.716 472.245 430.615 472.042 430.615 471.737C430.615 470.822 430.92 470.008 431.123 468.89C431.834 466.247 433.257 463.095 435.188 460.451C436.916 458.113 439.355 457.401 441.489 457.401C441.896 457.401 442.302 457.401 442.709 457.401C444.742 457.706 446.164 458.418 446.469 458.621L446.977 457.604C447.079 456.994 447.791 456.486 448.4 456.486ZM441.388 460.146H441.083C439.863 460.146 438.644 460.655 437.526 462.18C435.798 464.518 434.477 467.467 433.867 469.602C433.562 470.619 433.664 471.534 433.664 471.94C433.765 471.94 433.867 471.839 433.969 471.737C434.477 471.432 435.087 471.025 435.798 470.415C437.221 469.195 438.949 467.568 440.575 465.84C442.099 464.213 443.624 462.586 444.742 461.061C444.335 460.858 443.522 460.451 442.302 460.248C441.998 460.248 441.693 460.146 441.388 460.146ZM445.758 473.567C443.217 475.6 440.88 477.939 438.745 480.176C434.985 484.243 432.139 488.513 431.123 491.563C430.818 492.682 430.615 493.597 430.615 494.207C430.615 494.613 430.615 494.817 430.716 495.02C430.92 495.732 431.428 496.24 432.647 496.545C433.257 496.748 433.765 496.85 434.273 496.85C435.29 496.85 436.103 496.545 436.916 496.037C438.136 495.325 439.253 494.207 440.27 492.58C442.302 489.326 443.929 484.344 444.945 479.159C445.351 477.329 445.555 475.397 445.758 473.567Z" fill="#1E1E1E"/>
<path d="M475.381 458.214H475.584C475.788 458.214 476.093 458.418 476.296 458.519C478.125 459.536 478.633 461.265 479.141 462.485C479.65 463.705 480.056 464.416 481.276 464.823C481.479 464.925 481.682 464.925 481.886 464.925C483.207 464.925 485.443 464.315 487.272 463.501C489.508 462.485 491.134 461.468 491.134 461.468C491.337 461.366 491.744 461.265 491.947 461.265C492.76 461.265 493.37 461.875 493.37 462.688C493.37 463.095 493.065 463.705 492.659 463.908C492.659 463.908 490.829 465.128 488.39 466.145C486.459 466.958 484.223 467.975 482.089 467.975C481.581 467.975 480.971 467.873 480.463 467.67H480.361C478.125 466.958 477.109 465.026 476.499 463.603C475.991 462.383 475.686 461.671 475.178 461.265C474.975 461.468 474.568 461.773 474.162 462.281C473.247 463.4 472.129 465.128 471.113 466.857C468.978 470.415 467.149 474.177 467.149 474.177C466.946 474.584 466.336 474.99 465.828 474.99C465.624 474.99 465.32 474.889 465.116 474.787C464.405 474.38 464.1 473.669 463.897 473.059C463.693 472.449 463.795 471.839 463.795 471.228C463.795 470.008 464.1 468.585 464.405 467.263C465.015 464.62 466.031 462.18 466.031 462.18C466.234 461.671 466.742 461.265 467.352 461.265C468.165 461.265 468.775 461.875 468.775 462.688C468.775 462.79 468.775 463.095 468.673 463.196C468.673 463.196 467.962 465.23 467.352 467.467C467.759 466.755 468.165 466.145 468.572 465.433C469.69 463.603 470.808 461.773 471.926 460.451C472.535 459.739 473.145 459.129 473.755 458.723C474.162 458.418 474.771 458.214 475.381 458.214Z" fill="#1E1E1E"/>
<path d="M498.464 456.181C500.395 456.181 502.427 457.299 503.749 459.638C504.257 460.655 504.46 461.57 504.46 462.586C504.46 463.806 504.155 465.128 503.647 466.348C503.85 466.45 504.053 466.45 504.257 466.45C505.68 466.45 507.204 466.145 508.627 465.636C512.997 464.315 516.757 461.57 516.757 461.57C516.961 461.366 517.367 461.265 517.672 461.265C518.485 461.265 519.095 461.875 519.095 462.688C519.095 463.095 518.79 463.603 518.485 463.806C518.485 463.806 514.42 466.958 509.44 468.483C507.814 468.992 506.188 469.297 504.562 469.297C503.749 469.297 503.037 469.297 502.326 469.093C500.7 471.737 498.464 474.075 495.618 474.889C494.602 475.194 493.585 475.295 492.671 474.99C491.756 474.685 491.045 474.177 490.638 473.465C489.825 472.347 489.622 470.923 489.622 469.602C489.622 469.297 489.622 469.093 489.622 468.788C489.723 465.535 490.841 462.281 490.841 462.281C491.045 461.671 491.654 461.265 492.264 461.265C493.077 461.265 493.687 461.875 493.687 462.688C493.687 462.79 493.585 462.993 493.585 463.095C493.585 463.095 492.671 466.247 492.569 468.89C492.467 470.212 492.671 471.432 492.976 471.839C493.077 472.042 493.28 472.144 493.484 472.245C493.687 472.347 494.093 472.347 494.805 472.144C496.329 471.737 498.159 470.11 499.48 468.178C497.447 467.162 495.618 465.535 494.297 462.993C493.89 462.281 493.687 461.468 493.687 460.756C493.687 460.146 493.789 459.638 493.992 459.129C494.5 458.011 495.516 457.096 496.634 456.588C497.244 456.384 497.854 456.181 498.464 456.181ZM498.667 459.028H498.565C498.26 459.028 497.956 459.129 497.752 459.231C497.244 459.434 496.939 459.841 496.736 460.248C496.533 460.655 496.533 461.061 496.838 461.671C497.956 463.806 499.277 464.925 500.801 465.636C501.208 464.518 501.411 463.298 501.411 462.383C501.411 461.875 501.309 461.366 501.208 461.061C500.395 459.536 499.48 459.028 498.667 459.028Z" fill="#1E1E1E"/>
<path d="M523.971 456.181C525.902 456.181 527.934 457.299 529.256 459.638C529.764 460.655 529.967 461.57 529.967 462.586C529.967 463.806 529.662 465.128 529.154 466.348C529.357 466.45 529.561 466.45 529.764 466.45C531.187 466.45 532.711 466.145 534.134 465.636C538.504 464.315 542.265 461.57 542.265 461.57C542.468 461.366 542.874 461.265 543.179 461.265C543.992 461.265 544.602 461.875 544.602 462.688C544.602 463.095 544.297 463.603 543.992 463.806C543.992 463.806 539.927 466.958 534.947 468.483C533.321 468.992 531.695 469.297 530.069 469.297C529.256 469.297 528.544 469.297 527.833 469.093C526.207 471.737 523.971 474.075 521.125 474.889C520.109 475.194 519.092 475.295 518.178 474.99C517.263 474.685 516.552 474.177 516.145 473.465C515.332 472.347 515.129 470.923 515.129 469.602C515.129 469.297 515.129 469.093 515.129 468.788C515.23 465.535 516.348 462.281 516.348 462.281C516.552 461.671 517.161 461.265 517.771 461.265C518.584 461.265 519.194 461.875 519.194 462.688C519.194 462.79 519.092 462.993 519.092 463.095C519.092 463.095 518.178 466.247 518.076 468.89C517.974 470.212 518.178 471.432 518.483 471.839C518.584 472.042 518.788 472.144 518.991 472.245C519.194 472.347 519.601 472.347 520.312 472.144C521.836 471.737 523.666 470.11 524.987 468.178C522.954 467.162 521.125 465.535 519.804 462.993C519.397 462.281 519.194 461.468 519.194 460.756C519.194 460.146 519.296 459.638 519.499 459.129C520.007 458.011 521.023 457.096 522.141 456.588C522.751 456.384 523.361 456.181 523.971 456.181ZM524.174 459.028H524.072C523.768 459.028 523.463 459.129 523.259 459.231C522.751 459.434 522.446 459.841 522.243 460.248C522.04 460.655 522.04 461.061 522.345 461.671C523.463 463.806 524.784 464.925 526.308 465.636C526.715 464.518 526.918 463.298 526.918 462.383C526.918 461.875 526.816 461.366 526.715 461.061C525.902 459.536 524.987 459.028 524.174 459.028Z" fill="#1E1E1E"/>
<path d="M567.568 458.519H567.671C567.772 458.519 568.077 458.519 568.179 458.621C568.687 458.824 568.992 459.129 569.195 459.536C569.398 459.943 569.5 460.248 569.5 460.553C569.602 461.163 569.499 461.875 569.398 462.485C569.195 463.806 568.789 465.23 568.585 466.755C568.382 467.67 568.381 468.382 568.381 469.093C568.381 469.703 568.382 470.11 568.585 470.517C568.89 471.432 569.195 471.839 570.415 472.042C570.618 472.144 570.821 472.144 571.126 472.144C572.142 472.144 573.362 471.839 574.683 471.127C576.309 470.313 577.935 468.992 579.459 467.568C582.508 464.823 584.745 461.773 584.745 461.773C584.948 461.468 585.456 461.265 585.862 461.265C586.675 461.265 587.286 461.875 587.286 462.688C587.286 462.993 587.184 463.4 586.981 463.603C586.981 463.603 584.643 466.755 581.391 469.703C579.765 471.229 577.935 472.652 576.004 473.669C574.378 474.584 572.752 475.194 571.024 475.194C570.617 475.194 570.211 475.092 569.805 474.99C567.67 474.584 566.349 472.957 565.841 471.33C565.536 470.618 565.434 469.805 565.434 469.093C565.434 468.178 565.536 467.263 565.74 466.348C565.943 465.026 566.146 463.806 566.349 462.79L566.248 462.891C565.231 464.111 563.808 465.942 562.487 467.772C561.166 469.602 559.743 471.432 558.524 472.754C557.914 473.465 557.304 474.075 556.694 474.482C556.39 474.685 556.084 474.889 555.677 474.99C555.271 475.092 554.662 474.99 554.154 474.787C553.442 474.482 552.933 473.872 552.73 473.262C552.527 472.652 552.425 472.144 552.324 471.534C552.222 471.127 552.223 470.72 552.223 470.313C552.223 469.5 552.324 468.585 552.324 467.67C552.324 466.857 552.324 465.942 552.324 465.23C552.324 464.823 552.324 464.416 552.324 464.111C552.324 463.705 552.223 463.501 552.121 463.298C551.918 463.501 551.714 463.806 551.409 464.111C550.596 465.128 549.478 466.755 548.462 468.382C547.445 470.008 546.43 471.737 545.413 472.957C544.905 473.567 544.498 474.075 543.888 474.482C543.583 474.685 543.279 474.889 542.872 474.99C542.466 475.092 541.856 475.092 541.347 474.787C540.636 474.38 540.433 473.669 540.23 473.059C540.027 472.449 540.026 471.839 540.026 471.229C540.026 470.008 540.229 468.687 540.534 467.365C541.144 464.721 541.958 462.281 541.958 462.281C542.161 461.773 542.669 461.265 543.279 461.265C544.092 461.265 544.803 461.875 544.803 462.688C544.803 462.79 544.701 463.095 544.701 463.196C544.701 463.196 543.888 465.535 543.38 467.975C543.075 469.195 542.872 470.415 542.872 471.33V471.432L543.177 471.127C543.99 470.11 545.006 468.382 546.022 466.755C547.039 465.128 548.157 463.501 549.174 462.281C549.682 461.671 550.19 461.061 550.8 460.655C551.41 460.248 552.426 459.943 553.341 460.451C554.662 461.163 555.068 462.586 555.17 463.806C555.272 465.026 555.271 466.45 555.271 467.772C555.271 468.687 555.17 469.5 555.17 470.313C555.17 470.618 555.169 470.924 555.271 471.229C555.271 471.534 555.373 471.635 555.373 471.839C555.677 471.635 555.983 471.229 556.39 470.822C557.507 469.602 558.829 467.873 560.15 466.043C561.471 464.213 562.792 462.485 564.012 461.061C564.622 460.35 565.232 459.74 565.74 459.333C566.045 459.129 566.247 458.926 566.654 458.723C566.857 458.621 567.162 458.519 567.568 458.519Z" fill="#1E1E1E"/>
<path d="M587.679 451.809C588.492 451.809 589.102 452.419 589.102 453.232C589.102 453.334 589.001 453.639 589.001 453.741L588.188 456.181C587.984 456.791 587.476 457.198 586.866 457.198C586.053 457.198 585.342 456.588 585.342 455.774C585.342 455.673 585.443 455.368 585.443 455.266L586.256 452.826C586.459 452.216 587.07 451.809 587.679 451.809ZM586.256 461.265C587.069 461.265 587.679 461.875 587.679 462.688V462.79C587.577 464.518 587.273 466.145 587.273 467.67C587.273 467.873 587.273 468.077 587.273 468.178C587.374 469.805 587.679 470.923 589.001 471.635C589.509 472.042 590.322 472.144 591.237 472.144C592.05 472.144 593.066 472.042 594.082 471.635C596.216 470.923 598.757 469.602 600.993 468.077C605.566 465.128 609.225 461.671 609.225 461.671C609.429 461.468 609.936 461.265 610.241 461.265C611.054 461.265 611.665 461.875 611.665 462.688C611.665 463.095 611.562 463.603 611.257 463.806C611.257 463.806 607.294 467.365 602.517 470.517C600.078 472.042 597.538 473.567 594.997 474.38C593.676 474.889 592.354 475.092 591.033 475.092C589.711 475.092 588.492 474.889 587.476 474.177C585.138 472.855 584.427 470.415 584.326 468.28C584.326 468.077 584.326 467.873 584.326 467.67C584.326 465.738 584.63 464.01 584.732 462.586C584.732 461.773 585.443 461.265 586.256 461.265Z" fill="#1E1E1E"/>
<path d="M620.736 458.418H620.939C621.244 458.418 621.549 458.621 621.752 458.723C622.565 459.129 622.87 459.841 623.073 460.451C623.277 461.061 623.378 461.773 623.48 462.485C623.582 463.908 623.582 465.636 623.683 467.162C623.785 468.687 623.886 470.212 624.191 471.127C624.395 471.534 624.496 471.839 624.598 471.94C624.7 472.042 624.801 472.042 625.106 472.042C627.139 472.042 630.289 469.805 632.728 467.162C635.168 464.518 636.794 461.875 636.794 461.875C636.998 461.468 637.607 461.265 638.014 461.265C638.827 461.265 639.538 461.875 639.538 462.688C639.538 462.891 639.335 463.298 639.233 463.501C639.233 463.501 637.506 466.247 634.863 469.093C632.22 471.94 628.866 474.99 625.106 474.99C624.191 474.99 623.277 474.584 622.667 474.075C622.057 473.567 621.752 472.754 621.447 472.042C620.939 470.618 620.837 468.89 620.736 467.263C620.634 465.636 620.736 464.01 620.634 462.79C620.634 462.383 620.533 461.976 620.431 461.671C620.228 461.875 619.923 462.18 619.618 462.586C618.703 463.806 617.484 465.636 616.366 467.467C615.248 469.297 614.028 471.228 613.012 472.652C612.504 473.364 611.995 473.872 611.386 474.38C611.081 474.584 610.776 474.889 610.369 474.99C609.963 475.092 609.251 475.092 608.743 474.787C608.032 474.38 607.829 473.77 607.625 473.16C607.422 472.55 607.32 471.94 607.32 471.33C607.32 470.11 607.625 468.687 607.829 467.365C608.337 464.721 609.048 462.281 609.048 462.281C609.251 461.671 609.861 461.265 610.471 461.265C611.284 461.265 611.894 461.875 611.894 462.688C611.894 462.79 611.792 462.993 611.792 463.095C611.792 463.095 611.182 465.433 610.674 467.873C610.471 469.093 610.268 470.415 610.268 471.33V471.432C610.369 471.228 610.573 471.127 610.674 470.923C611.589 469.703 612.809 467.772 613.926 465.941C615.044 464.111 616.264 462.18 617.382 460.756C617.992 460.044 618.5 459.434 619.11 459.028C619.415 458.824 619.821 458.621 620.228 458.519C620.431 458.519 620.533 458.418 620.736 458.418Z" fill="#1E1E1E"/>
<path d="M651.169 456.486C651.982 456.486 652.592 457.096 652.592 457.909C652.592 457.909 652.592 461.875 652.185 467.263C657.673 463.705 663.568 461.265 668.955 461.265C669.768 461.265 670.479 461.875 670.479 462.688C670.479 463.501 669.768 464.111 668.955 464.111C663.873 464.111 657.673 467.06 651.779 471.127C651.474 473.872 651.067 476.821 650.559 479.667C649.543 485.056 648.018 490.241 645.579 494.105C644.36 496.037 642.835 497.562 641.006 498.579C639.786 499.29 638.465 499.697 637.042 499.697C636.331 499.697 635.518 499.595 634.704 499.29C632.773 498.782 631.248 497.562 630.74 495.935C630.537 495.427 630.537 494.817 630.537 494.207C630.537 493.088 630.74 491.97 631.147 490.648C632.468 486.886 635.416 482.413 639.38 478.142C642.225 475.092 645.478 472.144 649.035 469.5C649.238 467.06 649.441 465.026 649.543 463.196C648.323 464.721 646.9 466.247 645.376 467.873C643.648 469.703 641.92 471.33 640.396 472.652C639.583 473.262 638.871 473.872 638.16 474.279C637.449 474.685 636.94 475.092 636.026 474.99C635.416 474.99 634.602 474.584 634.196 474.075C633.789 473.567 633.586 472.957 633.484 472.449C633.484 472.245 633.383 472.042 633.383 471.737C633.383 470.822 633.688 470.008 633.891 468.89C634.602 466.247 636.026 463.095 637.957 460.451C639.685 458.113 642.124 457.401 644.258 457.401C644.664 457.401 645.071 457.401 645.478 457.401C647.51 457.706 648.933 458.418 649.238 458.621L649.746 457.604C649.848 456.994 650.559 456.486 651.169 456.486ZM644.156 460.146H643.851C642.632 460.146 641.412 460.655 640.294 462.18C638.567 464.518 637.245 467.467 636.636 469.602C636.331 470.619 636.432 471.534 636.432 471.94C636.534 471.94 636.636 471.839 636.737 471.737C637.245 471.432 637.855 471.025 638.567 470.415C639.989 469.195 641.717 467.568 643.343 465.84C644.868 464.213 646.392 462.586 647.51 461.061C647.104 460.858 646.291 460.451 645.071 460.248C644.766 460.248 644.461 460.146 644.156 460.146ZM648.526 473.567C645.986 475.6 643.648 477.939 641.514 480.176C637.753 484.243 634.907 488.513 633.891 491.563C633.586 492.682 633.383 493.597 633.383 494.207C633.383 494.613 633.383 494.817 633.484 495.02C633.688 495.732 634.196 496.24 635.416 496.545C636.026 496.748 636.534 496.85 637.042 496.85C638.058 496.85 638.871 496.545 639.685 496.037C640.904 495.325 642.022 494.207 643.038 492.58C645.071 489.326 646.697 484.344 647.713 479.159C648.12 477.329 648.323 475.397 648.526 473.567Z" fill="#1E1E1E"/>
<path d="M0 435.272C0 435.272 14.9651 437.345 25.1137 436.309C35.7785 434.063 37.8426 427.671 39.0467 417.478C40.0788 407.804 40.0788 397.092 40.0788 397.092H72.5887C72.5887 397.092 73.7931 404.521 74.8253 416.269C74.8253 427.671 74.8253 436.309 74.8253 436.309C86.3497 436.309 103.207 440.628 110.604 431.99C117.828 423.697 113.7 401.411 113.7 377.225C114.904 352.865 117.828 325.224 113.7 316.931C107.335 307.257 88.4141 311.575 74.8253 311.575C74.8253 311.575 75.8575 317.967 74.8253 323.323C74.8253 330.579 73.7931 361.158 73.7931 361.158H40.0788C40.0788 361.158 40.0788 328.506 39.0467 321.077C36.8105 313.649 33.7143 311.575 24.0816 311.575C15.9971 311.575 0 313.649 0 313.649C0 313.649 1.03207 348.546 1.03207 377.225C1.03207 405.73 0 435.272 0 435.272Z" fill="#FF6C24"/>
<path d="M185.449 310.712C152.079 309.675 126.105 340.081 125.073 374.634C123.008 409.013 148.982 436.136 182.353 438.382C216.755 440.282 248.922 409.013 246.857 374.634C244.793 336.799 225.012 310.712 185.449 310.712ZM184.245 399.511C169.796 399.511 160.507 388.108 161.368 374.634C162.571 362.022 169.796 349.41 184.245 349.41C200.93 349.41 207.294 360.985 207.294 374.634C207.294 389.145 200.07 399.511 184.245 399.511Z" fill="#FF6C24"/>
<path d="M248.498 312.612C245.402 326.087 246.434 338.353 249.358 342.5C254.69 350.62 285.653 349.755 285.653 349.755C288.405 362.194 284.448 433.199 284.448 433.199C292.877 434.236 318.163 444.602 325.215 424.043C329.516 409.358 328.483 347.683 328.483 347.683C342.76 346.646 349.985 347.683 360.306 341.463C371.659 334.207 364.434 311.575 364.434 311.575C364.434 311.575 336.568 314.685 300.618 313.822C282.212 312.612 248.498 312.612 248.498 312.612Z" fill="#FF6C24"/>
<path d="M541.362 368.414C539.125 332.652 520.032 311.403 481.33 310.366C446.755 310.366 427.662 319.695 427.662 319.695C427.662 319.695 428.522 364.267 427.662 382.062C426.458 398.129 426.458 429.917 426.458 429.917C426.458 429.917 435.919 438.21 480.125 438.21C521.236 439.246 542.222 410.74 541.362 368.414ZM493.886 396.92C483.566 403.484 463.269 398.129 463.269 398.129C463.269 398.129 463.269 378.088 463.269 371.524C463.269 365.304 464.472 349.41 464.472 349.41C467.569 348.373 486.662 344.228 496.982 352.693C507.647 361.158 505.239 389.49 493.886 396.92Z" fill="#FF6C24"/>
<path d="M606.576 310.712C573.205 309.675 547.232 340.081 546.2 374.634C544.135 409.013 570.109 436.136 603.479 438.382C637.881 440.282 670.047 409.013 667.983 374.634C665.918 336.799 646.138 310.712 606.576 310.712ZM605.372 399.511C590.923 399.511 581.634 388.108 582.494 374.634C583.698 362.022 590.923 349.41 605.372 349.41C622.057 349.41 628.421 360.985 628.421 374.634C628.421 389.145 621.197 399.511 605.372 399.511Z" fill="#FF6C24"/>
<path d="M769.735 367.896C757.355 369.105 738.947 369.969 738.947 369.969C738.947 369.969 735.854 382.408 738.947 387.418C742.047 394.673 761.484 392.773 761.484 392.773C760.62 401.93 755.291 405.04 748.234 406.076C737.054 408.149 728.625 406.076 724.496 401.93C715.381 394.673 712.288 388.627 713.488 373.251C714.524 358.74 719.51 350.447 729.832 347.337C737.054 345.264 745.14 345.264 751.162 349.583C757.355 353.384 762.513 351.483 767.677 348.373C776.964 344.228 787.114 336.971 787.114 336.971C774.9 314.34 757.355 309.33 735.854 310.193C706.266 311.23 679.607 332.998 677.542 372.042C675.307 410.049 692.851 438.037 732.926 438.037C759.591 438.037 771.8 431.817 781.95 419.551C792.272 406.94 795.366 382.408 793.479 369.105C793.479 369.105 781.95 367.896 769.735 367.896Z" fill="#FF6C24"/>
<path d="M253.164 64.2313C253.164 64.2313 254.881 62.8613 255.384 62.1003C261.978 52.178 267.482 41.6563 271.922 30.6115C274.009 25.4172 277.842 24.9891 282.311 26.5017C282.463 26.5493 282.586 26.692 282.738 26.7015C290.091 27.415 293.137 33.8269 297.709 38.1745C301.59 41.8561 304.332 46.6127 308.877 49.7521C311.458 51.531 313.488 54.0806 314.996 56.9346C317.226 61.149 320.025 64.9831 322.805 68.8358C324.058 70.5668 325.111 72.4223 325.898 74.4297C327.625 78.8627 329.617 83.1819 332.189 87.1961C334.2 90.3454 335.879 93.6459 337.16 97.1568C337.909 99.2303 339.352 99.9058 341.487 99.0975C353.138 94.6735 365.253 93.475 377.607 93.827C384.476 94.017 391.393 93.0944 398.196 94.3214C404.638 95.4824 410.995 97.1378 417.389 98.6025C418.072 98.7645 418.822 98.9736 419.353 99.3923C421.156 100.809 421.81 100.315 422.038 98.1558C422.371 94.9778 423.623 92.0287 424.61 89.023C425.701 85.6932 425.045 87.6024 425.545 85.6024C426.475 85.7835 424.624 85.4213 425.545 85.6024C425.564 85.3838 425.967 85.0787 426.045 85.1024C426.545 84.1024 426.724 83.5787 426.545 84.1024C427.321 81.8291 426.517 84.2564 427.228 82.1067C430.606 71.9464 437.437 63.7554 442.769 54.699C446.1 49.0386 450.588 44.7006 455.806 40.8192C459.525 38.0603 462.656 34.5214 466.441 31.753C468.634 30.1453 471.204 29.2605 473.349 27.6148C474.051 27.082 474.734 27.3769 475.066 28.1855C476.708 32.124 478.795 35.8818 479.478 40.1818C479.677 41.4375 479.364 42.0844 478.036 41.818C476.375 41.4946 475.066 42.2271 473.899 43.1879C469.952 46.4605 465.825 49.5048 461.992 52.9105C460.303 54.4136 458.225 55.4029 456.726 57.2295C446.849 69.2826 438.955 82.4301 434.591 97.5184C433.851 100.096 433.557 102.807 432.883 105.404C432.134 108.315 431.279 108.554 429.23 106.508C427.285 104.567 424.885 104.805 422.788 105.605C413.755 109.039 404.505 109.019 395.226 107.45C382.996 105.385 370.984 106.337 359.039 109.276C356.088 109.999 353.071 109.257 350.111 109.914C348.09 110.361 346.002 110.342 344.864 112.53C344.684 112.882 344.124 113.12 343.688 113.234C340.946 113.976 338.185 114.69 335.424 115.365C334.902 115.498 334.086 115.698 333.83 115.441C331.23 112.891 327.103 112.349 325.774 107.982C323.706 101.2 322.065 94.2267 318.535 87.9287C313.953 79.7568 310.376 70.9856 303.744 64.0788C300.898 61.1109 298.203 58 295.48 54.9178C294.066 53.3195 292.728 51.6452 291.657 49.7806C289.616 46.2036 285.945 44.6435 282.69 42.5981C281.343 41.7419 280.878 43.1499 280.442 43.9776C277.776 49.1052 274.891 54.1187 272.149 59.2082C267.149 68.4647 262.566 77.9209 256.068 86.3115C253.136 90.0975 251.428 94.7497 250.451 99.5633C248.762 107.954 244.938 115.86 244.151 124.403C243.136 135.324 240.621 146.226 242.225 157.271C243.43 165.595 245.631 173.71 249.16 181.397C249.587 182.329 249.948 183.309 250.195 184.298C251.579 189.74 254.255 194.429 258.363 198.244C259.758 199.538 259.9 200.727 259.711 202.754C258.932 211.058 256.456 219.021 255.413 227.269C254.151 237.192 254.246 247.18 253.202 257.103C252.481 263.962 254.919 270.031 257.719 276.034C262.291 285.852 269.578 293.31 278.117 299.665C280.091 301.139 282.358 302.033 284.749 302.728C287.7 303.594 290.537 304.831 293.45 305.839C300.698 308.341 308.232 309.007 315.831 309.397C319.086 309.568 322.359 309.616 325.585 310.463C327.293 310.909 329.219 310.833 331.012 310.653C339.485 309.759 348.081 310.367 356.487 308.731C361.069 307.837 365.576 306.457 369.457 303.832C372.91 301.491 375.074 297.876 377.17 294.318C377.986 292.929 376.763 292.758 375.852 292.511C372.654 291.626 369.4 290.827 366.468 289.219C358.318 284.748 354.779 277.727 356.174 268.614C357.531 259.814 361.297 252.204 369.627 247.922C374.997 245.163 380.576 243.138 386.914 244.346C389.988 244.935 393.186 245.144 396.326 245.325C403.205 245.725 408.395 249.578 413.784 253.193C418.917 256.636 421.64 261.469 421.915 267.482C422.247 274.493 421.393 281.342 416.156 286.718C413.632 289.296 410.321 290.77 407.171 292.406C402.086 295.051 401.877 295.555 404.875 300.369C405.757 301.777 406.877 303.032 407.702 304.469C409.42 307.447 411.991 308.788 415.331 308.788C416.393 308.788 417.313 309.045 418.168 309.759C419.515 310.89 421.27 311.091 422.883 311.081C430.948 311.014 438.965 312.489 447.02 312.032C454.962 311.575 462.959 311.395 470.664 308.864C483.159 304.754 493.491 297.629 500.892 286.718C504.203 281.828 506.718 276.376 509.469 271.116C510.342 269.451 510.949 267.615 510.427 265.608C510.162 264.571 510.408 263.457 510.94 262.611C513.046 259.262 513.018 255.495 513.065 251.804C513.169 243.404 513.169 234.994 513.037 226.594C512.951 221.362 512.107 216.187 511.338 211.02C511.082 209.27 510.408 207.72 509.147 206.378C507.391 204.494 507.752 202.088 508.055 199.814C508.264 198.273 508.473 196.932 507.106 195.695C505.987 194.677 506.414 193.174 506.68 191.861C507.496 187.732 508.919 183.775 510.124 179.751C512.904 170.418 515.968 161.124 516.936 151.373C518.074 139.852 517.363 128.389 514.223 117.211C512.173 109.895 510.589 102.417 507.533 95.4157C504.298 88.0145 500.655 80.7938 497.865 73.202C496.556 69.6251 494.952 66.2006 492.856 63.0135C492.495 62.4618 492.533 61.8149 492.438 61.187C492.201 59.7029 491.907 58.1618 490.882 57.0202C486.394 52.0733 484.516 45.7946 482.106 39.7918C480.342 35.3871 478.719 30.9158 476.888 26.5398C476.299 25.1413 476.3 24.2376 477.58 23.2958C479.174 22.1256 480.692 20.8509 482.135 19.5C483.786 17.9588 485.019 18.3679 486.196 20.0518C487.514 21.9449 488.633 23.9617 489.507 26.0831C492.097 32.3809 494.63 38.6977 497.116 45.043C497.989 47.2596 498.938 49.4191 500.247 51.4264C505.645 59.6744 509.981 68.4552 513.207 77.7684C514.478 81.4503 516.433 84.8372 517.695 88.5089C523.207 104.472 528.283 120.578 530.503 137.398C531.443 144.485 531.414 151.572 529.982 158.678C528.654 165.271 527.923 171.987 526.898 178.647C526.519 181.092 525.94 183.461 524.118 185.335C523.435 186.039 523.407 187.076 523.037 187.941C519.592 196.065 520.636 204.218 522.202 212.59C523.511 219.573 523.748 226.746 524.052 233.871C524.318 240.198 524.906 246.514 524.128 252.85C523.938 254.439 524.877 254.477 526.082 254.182C529.84 253.269 533.511 252.051 537.325 251.271C542.553 250.196 547.79 249.73 553.104 249.816C554.157 249.835 555.143 249.911 555.808 250.929C556.453 251.909 557.62 251.775 558.569 252.089C567.118 254.914 575.192 258.596 581.69 265.084C582.412 265.807 582.981 266.682 583.664 267.444C584.319 268.176 584.967 268.579 584.967 268.579L585.429 269.984C586.358 272.581 587.526 274.645 589.025 276.433C594.015 282.389 594.575 289.191 593 296.392C590.069 309.749 581.738 317.54 568.18 319.9C563.255 320.756 558.322 321.384 553.341 321.098C550.59 320.936 548.113 322.088 545.418 322.268C541.434 322.535 537.544 322.164 533.625 321.679C529.317 321.146 525.001 320.67 520.684 320.195C517.6 319.862 515.276 318.13 513.075 316.151C511.784 314.991 510.921 313.421 508.53 313.878C507.4 314.096 505.807 312.793 504.668 311.88C503.018 310.557 501.642 310.919 500.199 312.07C499.203 312.86 498.235 313.659 497.22 314.42C494.915 316.161 492.362 317.007 489.459 317.569C483.539 318.72 477.448 318.93 471.698 321.194C466.67 323.172 461.195 323.229 455.863 323.885C443.68 325.379 431.573 323.791 419.467 322.991C414.391 322.658 409.145 321.764 404.429 319.956C399.893 318.216 395.131 316.247 391.734 312.365C390.909 311.424 390.169 310.463 388.461 310.329C390.587 309.397 390.953 308.1 389.561 306.438C389.106 305.896 388.765 305.259 388.356 304.678C388.129 304.345 387.702 303.908 387.427 304.307C386.288 305.934 383.992 305.868 382.911 307.627C380.681 311.242 377.313 313.535 373.65 315.552C368.802 318.216 364.125 321.117 358.84 322.963C354.58 324.447 350.225 324.989 345.832 325.322C339.542 325.798 333.251 325.674 326.913 325.341C318.346 324.903 310.689 321.327 302.558 319.481C298.706 318.606 294.873 317.664 291.106 316.408C288.117 315.409 285.499 317.084 284.91 320.147C284.446 322.573 282.652 323.715 280.651 324.105C275.271 325.151 270.29 327.443 264.986 328.756C250.46 332.362 235.896 332.286 221.228 330.079C216.247 329.328 211.332 327.881 206.209 328.357C204.804 328.49 203.609 327.805 202.452 327.073C193.248 321.25 188.703 312.517 187.736 301.996C187.185 296.05 186.882 289.914 189.52 284.196C193.666 275.187 200.82 269.375 209.852 265.997C219.283 262.468 229.093 260.29 239.217 259.938C240.365 259.9 240.669 259.49 240.839 258.444C241.513 254.163 241.333 249.911 240.659 245.668C240.507 244.698 240.469 244.041 241.172 243.128C242.367 241.577 241.921 239.465 242.111 237.61C243.306 226.175 244.606 214.769 248.126 203.753C248.525 202.506 248.231 201.441 247.68 200.337C242.775 190.453 238.468 180.293 235.403 169.714C233.012 161.457 230.83 153.066 231.19 144.257C231.532 135.951 230.669 127.599 232.243 119.351C232.803 116.392 233.334 113.396 234.293 110.56C236.674 103.511 239.075 96.4623 241.656 89.4792C243.847 83.5339 247.348 78.1681 248.99 72.0131C252.5 65 253.164 64.2313 253.164 64.2313ZM530.039 308.284C530.769 308.284 531.168 308.246 531.556 308.284C533.862 308.579 534.764 307.533 534.47 305.278C534.308 304.022 534.156 302.766 534.062 301.501C533.749 297.097 537.79 293.814 541.832 295.289C544.479 296.25 545.58 298.609 546.235 301.12C546.87 303.566 547.411 306.067 547.269 308.636C547.183 310.244 548.161 310.843 549.441 311.309C550.665 311.747 551.301 311.081 552.041 310.253C553.407 308.722 553.654 307.104 552.942 305.202C552.468 303.946 552.089 302.643 551.842 301.32C551.178 297.801 553.17 294.366 556.367 293.396C559.356 292.483 562.373 294.261 563.74 297.782C564.489 299.703 565.106 301.682 565.296 303.746C565.429 305.135 565.988 305.468 567.335 305.04C573.351 303.156 573.854 302.072 571.197 296.421C571.027 296.06 570.837 295.717 570.675 295.355C568.692 290.827 570.837 287.051 575.723 286.479C576.643 286.375 577.563 286.299 577.431 285.053C576.947 280.372 575.855 275.644 572.278 272.562C564.774 266.093 555.988 262.078 545.883 262.392C537.999 262.64 530.58 265.446 523.103 267.748C521.661 268.186 520.997 269.042 521.661 270.611C522.448 272.466 521.822 274.188 520.997 275.853C520.58 276.7 519.972 277.49 519.697 278.384C517.695 284.986 514.915 291.284 512.467 297.705C512.069 298.761 512.069 299.446 513.065 300.112C516.338 302.319 519.45 304.793 523.094 306.4C525.399 307.418 527.686 308.607 530.02 308.284H530.039ZM222.699 312.993C222.768 316.488 224.511 318.444 227.926 318.863C228.476 318.93 229.018 319.062 229.558 319.129C230.886 319.29 231.342 318.682 230.915 317.455C230.289 315.667 229.587 313.897 228.941 312.109C227.784 308.873 229.729 305.354 233.069 304.593C236.427 303.832 238.572 305.173 240.327 309.445C241.437 312.146 242.338 314.953 243.192 317.75C243.876 319.976 245.431 319.557 247.007 319.253C248.8 318.901 248.24 317.598 248.164 316.437C247.993 313.726 246.513 311.3 246.466 308.569C246.409 305.544 247.804 303.518 250.403 302.833C253.259 302.081 255.887 303.147 257.254 305.687C258.079 307.219 259.094 308.617 260.005 310.063C260.973 311.604 262.415 313.44 260.906 315.667C260.271 316.599 261.191 316.884 261.988 316.808C264.142 316.599 266.106 315.933 267.918 314.648C271.399 312.194 271.372 310.491 267.624 308.246C267.149 307.96 266.665 307.627 266.143 307.504C262.624 306.667 260.423 303.48 257.016 302.405C255.925 302.062 255.356 300.759 254.711 299.76C249.853 292.273 246.314 284.158 243.676 275.654C242.319 271.277 242.348 271.268 237.974 272.02C237.509 272.096 237.035 272.133 236.561 272.2C228.201 273.484 219.928 275.007 212.072 278.412C199.074 284.054 197.822 295.897 201.341 307.076C201.597 307.894 201.92 308.893 202.755 309.197C205.469 310.177 207.291 312.28 209.349 314.106C209.805 314.506 210.279 315.143 210.972 314.781C211.645 314.429 211.418 313.65 211.398 313.05C211.323 310.9 211.56 308.779 211.968 306.676C212.67 303.013 214.644 301.663 218.4 302.195C221.551 302.643 223.448 305.202 223.087 308.493C222.926 309.987 222.831 311.48 222.699 312.984V312.993Z" fill="#1E1E1E"/>
<path d="M455.308 181.598C473.467 181.598 488.135 196.715 488.164 215.484C488.193 234.359 473.287 249.789 455.042 249.789C436.996 249.789 422.081 234.254 422.138 215.513C422.195 196.724 436.987 181.598 455.317 181.598H455.308ZM438.42 225.816C441.161 229.621 442.888 234.33 448.078 236.261C447.983 235.348 446.892 235.424 447.101 234.368C449.254 235.224 451.437 235.853 453.837 236.357C453.011 237.279 452.025 236.537 451.266 237.545C458.221 238.611 463.885 236.376 468.647 231.809C473.591 227.072 476.276 221.354 475.118 213.706C467.471 230.468 456.161 237.907 438.42 225.825V225.816Z" fill="#1E1E1E"/>
<path d="M327.449 247.896C322.117 248.229 317.031 246.992 312.269 244.395C311.168 243.796 310.115 243.549 308.891 244.072C305.95 245.318 303.34 244.909 301.178 242.407C300.76 241.931 300.286 241.513 299.574 241.522C299.1 241.522 298.72 241.323 299.137 240.828C300.181 239.581 299.27 238.573 298.768 237.564C296.5 233.017 294.479 228.375 293.398 223.38C291.149 213.03 293.331 203.754 300.029 195.544C302.971 191.939 307.164 190.417 311.254 188.733C312.638 188.162 314.081 187.716 315.466 187.125C324.916 183.101 334.299 184.072 343.664 187.449C346.833 188.591 348.949 191.425 352.023 192.748C352.288 192.862 352.563 193.452 352.516 193.756C352.117 196.087 353.683 197.381 355.021 198.836C362.251 206.694 363.456 219.68 358.038 229.269C353.209 237.821 346.055 243.406 336.909 246.64C333.873 247.715 330.761 248.067 327.478 247.905L327.449 247.896ZM310.371 221.887C310.845 223.247 310.798 224.236 310.883 225.188C311.064 227.357 311.861 229.583 313.806 230.573C315.096 231.229 315.969 232.018 316.709 233.103C317.07 233.635 317.354 234.292 318.047 234.34C321.13 234.568 323.996 235.966 327.117 235.938C335.988 235.861 344.954 229.593 348.01 221.249C348.806 219.071 349.404 216.816 348.759 214.039C348.436 214.695 348.275 214.961 348.18 215.237C344.252 226.32 332.914 231.828 322.07 230.401C320.153 230.154 318.407 229.564 316.766 228.527C314.233 226.929 312.952 224.16 310.39 221.868L310.371 221.887Z" fill="#1E1E1E"/>
<path d="M484.748 155.237C485.204 154.296 486.627 154.79 487.082 153.487C485.252 153.639 484.236 152.383 483.126 151.299C479.853 148.093 476.817 144.63 473.192 141.776C472.234 141.015 471.532 139.778 469.966 140.302C469.425 140.482 469.245 140.044 469.35 139.607C469.814 137.685 468.221 137.086 467.101 136.411C465.251 135.307 463.562 134.051 462.034 132.529C460.383 130.883 458.59 129.523 456.086 129.513C455.564 129.513 454.966 129.313 454.52 129.018C449.567 125.851 445.715 121.694 443.486 116.166C442.698 114.216 443.03 112.275 443.723 110.363C446.778 101.887 450.972 94.029 456.351 86.8083C459.995 81.928 463.448 76.9053 467.101 72.0346C469.473 68.8662 472.12 65.917 475.062 63.2631C478.022 60.5899 482.196 60.9323 484.767 63.9478C485.773 65.1373 486.096 66.3644 484.834 67.5057C477.964 73.7084 472.955 81.4717 467.367 88.7299C462.87 94.5805 459.539 101.154 457.025 108.146C456.143 110.601 456.987 111.866 458.998 112.894C462.386 114.635 465.469 116.842 468.42 119.248C472.414 122.502 476.152 126.013 479.701 129.742C480.526 130.617 481.01 131.492 480.659 132.719C479.767 135.801 481.2 137.971 483.287 140.063C486.371 143.165 488.183 147.046 489.236 151.27C489.834 153.667 487.206 155.95 484.748 155.247V155.237Z" fill="#1E1E1E"/>
<path d="M310.675 128.172C311.216 119.629 310.447 111.238 307.534 103.133C307.164 102.096 306.965 100.954 306.424 100.012C301.159 90.994 297.192 81.2906 291.927 72.2716C289.896 68.7899 286.718 66.0791 285.295 62.1974C284.953 61.2651 284.081 60.4279 285.522 59.6193C286.813 58.8963 287.534 59.4671 288.274 60.485C291.5 64.9181 295.513 68.6476 299.489 72.3193C303.255 75.8016 306.633 79.3499 308.787 84.1063C311.329 89.7384 314.413 95.0749 318.815 99.5371C319.242 99.9648 319.508 100.602 319.707 101.192C322.259 108.688 323.673 116.337 322.696 124.3C322.487 126.031 322.544 127.772 322.781 129.513C323.331 133.556 322.677 137.571 322.402 141.595C322.316 142.889 321.595 143.964 320.646 144.877C319.783 145.695 318.92 146.513 318.161 147.426C316.434 149.5 314.754 149.624 313.407 147.332C311.975 144.905 310.647 142.346 310.666 139.35C310.694 135.63 310.666 131.901 310.666 128.182L310.675 128.172Z" fill="#1E1E1E"/>
</g>
<defs>
<clipPath id="clip0_5_16">
<rect width="794" height="509" fill="white"/>
</clipPath>
</defs>
</svg>
