<svg width="648" height="155" viewBox="0 0 648 155" fill="none" xmlns="http://www.w3.org/2000/svg">
<path d="M365.949 119.466C366.612 119.466 367.11 119.964 367.11 120.628C367.11 120.628 367.11 123.864 366.778 128.262C371.257 125.358 376.068 123.366 380.464 123.366C381.128 123.366 381.708 123.864 381.708 124.528C381.708 125.192 381.128 125.69 380.464 125.69C376.317 125.69 371.257 128.096 366.447 131.415C366.198 133.655 365.866 136.062 365.451 138.385C364.622 142.783 363.378 147.015 361.387 150.168C360.392 151.744 359.148 152.989 357.655 153.819C356.659 154.4 355.581 154.732 354.42 154.732C353.839 154.732 353.176 154.649 352.512 154.4C350.936 153.985 349.692 152.989 349.277 151.662C349.111 151.247 349.111 150.749 349.111 150.251C349.111 149.338 349.277 148.425 349.609 147.347C350.687 144.277 353.093 140.626 356.327 137.14C358.65 134.651 361.304 132.245 364.207 130.087C364.373 128.096 364.539 126.436 364.622 124.943C363.627 126.187 362.465 127.432 361.221 128.76C359.811 130.253 358.401 131.581 357.157 132.66C356.493 133.158 355.913 133.655 355.332 133.987C354.752 134.319 354.337 134.651 353.59 134.568C353.093 134.568 352.429 134.236 352.097 133.821C351.766 133.406 351.6 132.909 351.517 132.494C351.517 132.328 351.434 132.162 351.434 131.913C351.434 131.166 351.683 130.502 351.848 129.59C352.429 127.432 353.59 124.86 355.166 122.702C356.576 120.794 358.567 120.213 360.309 120.213C360.641 120.213 360.972 120.213 361.304 120.213C362.963 120.462 364.124 121.043 364.373 121.209L364.788 120.379C364.871 119.881 365.451 119.466 365.949 119.466ZM360.226 122.453H359.977C358.982 122.453 357.986 122.868 357.074 124.113C355.664 126.022 354.586 128.428 354.088 130.17C353.839 131 353.922 131.747 353.922 132.079C354.005 132.079 354.088 131.996 354.171 131.913C354.586 131.664 355.083 131.332 355.664 130.834C356.825 129.838 358.235 128.511 359.562 127.1C360.806 125.773 362.051 124.445 362.963 123.2C362.631 123.034 361.968 122.702 360.972 122.536C360.723 122.536 360.475 122.453 360.226 122.453ZM363.792 133.406C361.719 135.066 359.811 136.975 358.069 138.8C355 142.119 352.678 145.604 351.848 148.093C351.6 149.006 351.434 149.753 351.434 150.251C351.434 150.583 351.434 150.749 351.517 150.915C351.683 151.496 352.097 151.91 353.093 152.159C353.59 152.325 354.005 152.408 354.42 152.408C355.249 152.408 355.913 152.159 356.576 151.744C357.572 151.164 358.484 150.251 359.313 148.923C360.972 146.268 362.299 142.202 363.129 137.97C363.461 136.477 363.627 134.9 363.792 133.406Z" fill="#1E1E1E"/>
<path d="M387.968 120.877H388.134C388.3 120.877 388.549 121.043 388.715 121.126C390.208 121.956 390.622 123.366 391.037 124.362C391.452 125.358 391.783 125.939 392.779 126.27C392.945 126.353 393.111 126.353 393.276 126.353C394.355 126.353 396.18 125.856 397.672 125.192C399.497 124.362 400.824 123.532 400.824 123.532C400.99 123.449 401.322 123.366 401.488 123.366C402.151 123.366 402.649 123.864 402.649 124.528C402.649 124.86 402.4 125.358 402.069 125.524C402.069 125.524 400.576 126.519 398.585 127.349C397.009 128.013 395.184 128.843 393.442 128.843C393.028 128.843 392.53 128.76 392.115 128.594H392.032C390.208 128.013 389.378 126.436 388.88 125.275C388.466 124.279 388.217 123.698 387.802 123.366C387.636 123.532 387.305 123.781 386.973 124.196C386.226 125.109 385.314 126.519 384.484 127.93C382.743 130.834 381.25 133.904 381.25 133.904C381.084 134.236 380.586 134.568 380.171 134.568C380.005 134.568 379.757 134.485 379.591 134.402C379.01 134.07 378.761 133.489 378.595 132.992C378.429 132.494 378.512 131.996 378.512 131.498C378.512 130.502 378.761 129.341 379.01 128.262C379.508 126.105 380.337 124.113 380.337 124.113C380.503 123.698 380.918 123.366 381.415 123.366C382.079 123.366 382.577 123.864 382.577 124.528C382.577 124.611 382.577 124.86 382.494 124.943C382.494 124.943 381.913 126.602 381.415 128.428C381.747 127.847 382.079 127.349 382.411 126.768C383.323 125.275 384.236 123.781 385.148 122.702C385.646 122.122 386.143 121.624 386.641 121.292C386.973 121.043 387.47 120.877 387.968 120.877Z" fill="#1E1E1E"/>
<path d="M406.807 119.217C408.383 119.217 410.041 120.13 411.12 122.039C411.534 122.868 411.7 123.615 411.7 124.445C411.7 125.441 411.451 126.519 411.037 127.515C411.203 127.598 411.368 127.598 411.534 127.598C412.696 127.598 413.94 127.349 415.101 126.934C418.668 125.855 421.736 123.615 421.736 123.615C421.902 123.449 422.234 123.366 422.483 123.366C423.147 123.366 423.644 123.864 423.644 124.528C423.644 124.86 423.395 125.275 423.147 125.441C423.147 125.441 419.829 128.013 415.765 129.258C414.437 129.672 413.11 129.921 411.783 129.921C411.12 129.921 410.539 129.921 409.958 129.755C408.631 131.913 406.807 133.821 404.484 134.485C403.655 134.734 402.825 134.817 402.079 134.568C401.332 134.319 400.752 133.904 400.42 133.323C399.756 132.411 399.59 131.249 399.59 130.17C399.59 129.921 399.59 129.755 399.59 129.506C399.673 126.851 400.586 124.196 400.586 124.196C400.752 123.698 401.249 123.366 401.747 123.366C402.411 123.366 402.908 123.864 402.908 124.528C402.908 124.611 402.825 124.777 402.825 124.86C402.825 124.86 402.079 127.432 401.996 129.589C401.913 130.668 402.079 131.664 402.328 131.996C402.411 132.162 402.576 132.245 402.742 132.328C402.908 132.411 403.24 132.411 403.821 132.245C405.065 131.913 406.558 130.585 407.636 129.009C405.977 128.179 404.484 126.851 403.406 124.777C403.074 124.196 402.908 123.532 402.908 122.951C402.908 122.453 402.991 122.039 403.157 121.624C403.572 120.711 404.401 119.964 405.314 119.549C405.811 119.383 406.309 119.217 406.807 119.217ZM406.972 121.541H406.89C406.641 121.541 406.392 121.624 406.226 121.707C405.811 121.873 405.562 122.204 405.397 122.536C405.231 122.868 405.231 123.2 405.479 123.698C406.392 125.441 407.47 126.353 408.714 126.934C409.046 126.021 409.212 125.026 409.212 124.279C409.212 123.864 409.129 123.449 409.046 123.2C408.383 121.956 407.636 121.541 406.972 121.541Z" fill="#1E1E1E"/>
<path d="M427.623 119.217C429.199 119.217 430.858 120.13 431.936 122.039C432.351 122.868 432.517 123.615 432.517 124.445C432.517 125.441 432.268 126.519 431.853 127.515C432.019 127.598 432.185 127.598 432.351 127.598C433.512 127.598 434.756 127.349 435.917 126.934C439.484 125.855 442.553 123.615 442.553 123.615C442.719 123.449 443.051 123.366 443.299 123.366C443.963 123.366 444.461 123.864 444.461 124.528C444.461 124.86 444.212 125.275 443.963 125.441C443.963 125.441 440.645 128.013 436.581 129.258C435.254 129.672 433.927 129.921 432.6 129.921C431.936 129.921 431.356 129.921 430.775 129.755C429.448 131.913 427.623 133.821 425.301 134.485C424.471 134.734 423.642 134.817 422.895 134.568C422.149 134.319 421.568 133.904 421.236 133.323C420.573 132.411 420.407 131.249 420.407 130.17C420.407 129.921 420.407 129.755 420.407 129.506C420.49 126.851 421.402 124.196 421.402 124.196C421.568 123.698 422.066 123.366 422.564 123.366C423.227 123.366 423.725 123.864 423.725 124.528C423.725 124.611 423.642 124.777 423.642 124.86C423.642 124.86 422.895 127.432 422.812 129.589C422.729 130.668 422.895 131.664 423.144 131.996C423.227 132.162 423.393 132.245 423.559 132.328C423.725 132.411 424.057 132.411 424.637 132.245C425.881 131.913 427.374 130.585 428.453 129.009C426.794 128.179 425.301 126.851 424.222 124.777C423.891 124.196 423.725 123.532 423.725 122.951C423.725 122.453 423.808 122.039 423.974 121.624C424.388 120.711 425.218 119.964 426.13 119.549C426.628 119.383 427.125 119.217 427.623 119.217ZM427.789 121.541H427.706C427.457 121.541 427.208 121.624 427.042 121.707C426.628 121.873 426.379 122.204 426.213 122.536C426.047 122.868 426.047 123.2 426.296 123.698C427.208 125.441 428.287 126.353 429.531 126.934C429.863 126.021 430.028 125.026 430.028 124.279C430.028 123.864 429.946 123.449 429.863 123.2C429.199 121.956 428.453 121.541 427.789 121.541Z" fill="#1E1E1E"/>
<path d="M463.204 121.126H463.288C463.371 121.126 463.619 121.126 463.702 121.209C464.117 121.375 464.366 121.624 464.532 121.956C464.698 122.288 464.781 122.537 464.781 122.786C464.864 123.283 464.78 123.864 464.698 124.362C464.532 125.441 464.2 126.602 464.034 127.847C463.868 128.594 463.868 129.175 463.868 129.756C463.868 130.253 463.868 130.585 464.034 130.917C464.283 131.664 464.532 131.996 465.527 132.162C465.693 132.245 465.859 132.245 466.108 132.245C466.937 132.245 467.932 131.996 469.011 131.415C470.338 130.751 471.664 129.673 472.909 128.511C475.397 126.271 477.222 123.781 477.222 123.781C477.388 123.532 477.802 123.366 478.134 123.366C478.798 123.366 479.296 123.864 479.296 124.528C479.296 124.777 479.213 125.109 479.047 125.275C479.047 125.275 477.139 127.847 474.485 130.253C473.158 131.498 471.664 132.66 470.088 133.49C468.761 134.236 467.434 134.734 466.024 134.734C465.692 134.734 465.361 134.651 465.029 134.568C463.287 134.236 462.209 132.909 461.794 131.581C461.545 131 461.462 130.336 461.462 129.756C461.462 129.009 461.546 128.262 461.712 127.515C461.878 126.437 462.043 125.441 462.209 124.611L462.126 124.694C461.297 125.69 460.135 127.183 459.057 128.677C457.979 130.171 456.818 131.664 455.823 132.743C455.325 133.324 454.827 133.822 454.33 134.153C454.081 134.319 453.831 134.485 453.5 134.568C453.168 134.651 452.671 134.568 452.256 134.402C451.675 134.153 451.26 133.656 451.094 133.158C450.928 132.66 450.845 132.245 450.763 131.747C450.68 131.415 450.68 131.083 450.68 130.751C450.68 130.088 450.763 129.341 450.763 128.594C450.763 127.93 450.763 127.183 450.763 126.602C450.763 126.271 450.763 125.939 450.763 125.69C450.763 125.358 450.68 125.192 450.597 125.026C450.431 125.192 450.265 125.441 450.016 125.69C449.352 126.519 448.44 127.847 447.611 129.175C446.781 130.502 445.952 131.913 445.123 132.909C444.708 133.407 444.376 133.822 443.878 134.153C443.629 134.319 443.381 134.485 443.049 134.568C442.718 134.651 442.219 134.651 441.805 134.402C441.224 134.07 441.059 133.49 440.893 132.992C440.727 132.494 440.726 131.996 440.726 131.498C440.726 130.502 440.892 129.424 441.141 128.345C441.639 126.188 442.303 124.196 442.303 124.196C442.469 123.781 442.883 123.366 443.381 123.366C444.045 123.366 444.625 123.864 444.625 124.528C444.625 124.611 444.542 124.86 444.542 124.943C444.542 124.943 443.878 126.851 443.463 128.843C443.215 129.839 443.049 130.834 443.049 131.581V131.664L443.298 131.415C443.962 130.585 444.791 129.175 445.62 127.847C446.449 126.52 447.362 125.192 448.192 124.196C448.607 123.698 449.021 123.2 449.519 122.868C450.017 122.537 450.846 122.288 451.592 122.703C452.671 123.283 453.003 124.445 453.085 125.441C453.168 126.437 453.168 127.598 453.168 128.677C453.168 129.424 453.085 130.088 453.085 130.751C453.085 131 453.085 131.249 453.168 131.498C453.168 131.747 453.251 131.83 453.251 131.996C453.5 131.83 453.749 131.498 454.081 131.166C454.993 130.17 456.071 128.76 457.15 127.266C458.228 125.773 459.306 124.362 460.302 123.2C460.799 122.62 461.297 122.122 461.712 121.79C461.96 121.624 462.126 121.458 462.458 121.292C462.624 121.209 462.872 121.126 463.204 121.126Z" fill="#1E1E1E"/>
<path d="M479.617 115.649C480.28 115.649 480.778 116.147 480.778 116.811C480.778 116.894 480.695 117.143 480.695 117.226L480.031 119.217C479.865 119.715 479.451 120.047 478.953 120.047C478.29 120.047 477.709 119.549 477.709 118.886C477.709 118.803 477.791 118.554 477.791 118.471L478.455 116.479C478.621 115.981 479.119 115.649 479.617 115.649ZM478.455 123.366C479.118 123.366 479.617 123.864 479.617 124.528V124.611C479.533 126.022 479.285 127.349 479.285 128.594C479.285 128.76 479.285 128.926 479.285 129.009C479.368 130.336 479.617 131.249 480.695 131.83C481.11 132.162 481.773 132.245 482.52 132.245C483.183 132.245 484.013 132.162 484.842 131.83C486.584 131.249 488.657 130.17 490.482 128.926C494.214 126.519 497.201 123.698 497.201 123.698C497.367 123.532 497.781 123.366 498.03 123.366C498.693 123.366 499.191 123.864 499.191 124.528C499.191 124.86 499.108 125.275 498.859 125.441C498.859 125.441 495.624 128.345 491.726 130.917C489.735 132.162 487.662 133.407 485.589 134.07C484.51 134.485 483.432 134.651 482.353 134.651C481.275 134.651 480.28 134.485 479.45 133.904C477.543 132.826 476.962 130.834 476.88 129.092C476.88 128.926 476.88 128.76 476.88 128.594C476.88 127.017 477.128 125.607 477.211 124.445C477.211 123.781 477.791 123.366 478.455 123.366Z" fill="#1E1E1E"/>
<path d="M506.595 121.043H506.761C507.01 121.043 507.258 121.209 507.424 121.292C508.088 121.624 508.337 122.205 508.503 122.702C508.668 123.2 508.751 123.781 508.834 124.362C508.917 125.524 508.917 126.934 509 128.179C509.083 129.424 509.166 130.668 509.415 131.415C509.581 131.747 509.664 131.996 509.747 132.079C509.83 132.162 509.913 132.162 510.161 132.162C511.82 132.162 514.392 130.336 516.382 128.179C518.373 126.022 519.7 123.864 519.7 123.864C519.866 123.532 520.364 123.366 520.696 123.366C521.359 123.366 521.94 123.864 521.94 124.528C521.94 124.694 521.774 125.026 521.691 125.192C521.691 125.192 520.281 127.432 518.124 129.756C515.967 132.079 513.23 134.568 510.161 134.568C509.415 134.568 508.668 134.236 508.171 133.821C507.673 133.407 507.424 132.743 507.175 132.162C506.761 131 506.678 129.59 506.595 128.262C506.512 126.934 506.595 125.607 506.512 124.611C506.512 124.279 506.429 123.947 506.346 123.698C506.18 123.864 505.931 124.113 505.682 124.445C504.936 125.441 503.941 126.934 503.028 128.428C502.116 129.922 501.121 131.498 500.291 132.66C499.876 133.241 499.462 133.656 498.964 134.07C498.715 134.236 498.466 134.485 498.135 134.568C497.803 134.651 497.222 134.651 496.807 134.402C496.227 134.07 496.061 133.573 495.895 133.075C495.729 132.577 495.646 132.079 495.646 131.581C495.646 130.585 495.895 129.424 496.061 128.345C496.476 126.188 497.056 124.196 497.056 124.196C497.222 123.698 497.72 123.366 498.217 123.366C498.881 123.366 499.379 123.864 499.379 124.528C499.379 124.611 499.296 124.777 499.296 124.86C499.296 124.86 498.798 126.768 498.383 128.76C498.217 129.756 498.052 130.834 498.052 131.581V131.664C498.135 131.498 498.3 131.415 498.383 131.249C499.13 130.253 500.125 128.677 501.038 127.183C501.95 125.69 502.945 124.113 503.858 122.951C504.355 122.371 504.77 121.873 505.268 121.541C505.517 121.375 505.848 121.209 506.18 121.126C506.346 121.126 506.429 121.043 506.595 121.043Z" fill="#1E1E1E"/>
<path d="M531.432 119.466C532.096 119.466 532.593 119.964 532.593 120.628C532.593 120.628 532.593 123.864 532.262 128.262C536.741 125.358 541.551 123.366 545.947 123.366C546.611 123.366 547.191 123.864 547.191 124.528C547.191 125.192 546.611 125.69 545.947 125.69C541.8 125.69 536.741 128.096 531.93 131.415C531.681 133.655 531.349 136.062 530.934 138.385C530.105 142.783 528.861 147.015 526.87 150.168C525.875 151.744 524.631 152.989 523.138 153.819C522.142 154.4 521.064 154.732 519.903 154.732C519.322 154.732 518.659 154.649 517.995 154.4C516.419 153.985 515.175 152.989 514.76 151.662C514.594 151.247 514.594 150.749 514.594 150.251C514.594 149.338 514.76 148.425 515.092 147.347C516.17 144.277 518.576 140.626 521.811 137.14C524.133 134.651 526.787 132.245 529.69 130.087C529.856 128.096 530.022 126.436 530.105 124.943C529.11 126.187 527.948 127.432 526.704 128.76C525.294 130.253 523.884 131.581 522.64 132.66C521.977 133.158 521.396 133.655 520.815 133.987C520.235 134.319 519.82 134.651 519.073 134.568C518.576 134.568 517.912 134.236 517.58 133.821C517.248 133.406 517.082 132.909 516.999 132.494C516.999 132.328 516.916 132.162 516.916 131.913C516.916 131.166 517.165 130.502 517.331 129.59C517.912 127.432 519.073 124.86 520.649 122.702C522.059 120.794 524.05 120.213 525.792 120.213C526.124 120.213 526.455 120.213 526.787 120.213C528.446 120.462 529.607 121.043 529.856 121.209L530.271 120.379C530.354 119.881 530.934 119.466 531.432 119.466ZM525.709 122.453H525.46C524.465 122.453 523.47 122.868 522.557 124.113C521.147 126.022 520.069 128.428 519.571 130.17C519.322 131 519.405 131.747 519.405 132.079C519.488 132.079 519.571 131.996 519.654 131.913C520.069 131.664 520.566 131.332 521.147 130.834C522.308 129.838 523.718 128.511 525.045 127.1C526.29 125.773 527.534 124.445 528.446 123.2C528.114 123.034 527.451 122.702 526.455 122.536C526.207 122.536 525.958 122.453 525.709 122.453ZM529.276 133.406C527.202 135.066 525.294 136.975 523.552 138.8C520.484 142.119 518.161 145.604 517.331 148.093C517.082 149.006 516.916 149.753 516.916 150.251C516.916 150.583 516.916 150.749 516.999 150.915C517.165 151.496 517.58 151.91 518.576 152.159C519.073 152.325 519.488 152.408 519.903 152.408C520.732 152.408 521.396 152.159 522.059 151.744C523.055 151.164 523.967 150.251 524.797 148.923C526.456 146.268 527.783 142.202 528.612 137.97C528.944 136.477 529.11 134.9 529.276 133.406Z" fill="#1E1E1E"/>
<path d="M0 102.153C0 102.153 12.2133 103.845 20.4958 102.999C29.1995 101.166 30.8841 95.9492 31.8668 87.6308C32.7091 79.7355 32.7091 70.9938 32.7091 70.9938H59.2411C59.2411 70.9938 60.224 77.0564 61.0664 86.6439C61.0664 95.9492 61.0664 102.999 61.0664 102.999C70.4717 102.999 84.2295 106.524 90.2658 99.4742C96.1621 92.7064 92.793 74.5183 92.793 54.7796C93.7754 34.8992 96.1621 12.3403 92.793 5.57245C87.5986 -2.32284 72.1565 1.20162 61.0664 1.20162C61.0664 1.20162 61.9088 6.41829 61.0664 10.7891C61.0664 16.7111 60.224 41.667 60.224 41.667H32.7091C32.7091 41.667 32.7091 15.0189 31.8668 8.95636C30.0418 2.89384 27.5149 1.20162 19.6535 1.20162C13.0556 1.20162 0 2.89383 0 2.89383C0 2.89383 0.842295 31.3743 0.842295 54.7796C0.842295 78.0433 0 102.153 0 102.153Z" fill="#FF6C24"/>
<path d="M151.349 0.497086C124.115 -0.348764 102.917 24.4661 102.075 52.6649C100.39 80.7227 121.588 102.858 148.822 104.691C176.898 106.242 203.15 80.7227 201.465 52.6649C199.781 21.787 183.637 0.497086 151.349 0.497086ZM150.366 72.9679C138.574 72.9679 130.994 63.662 131.695 52.6649C132.678 42.3721 138.574 32.0798 150.366 32.0798C163.983 32.0798 169.177 41.5263 169.177 52.6649C169.177 64.5084 163.282 72.9679 150.366 72.9679Z" fill="#FF6C24"/>
<path d="M202.804 2.04752C200.277 13.0451 201.119 23.0558 203.506 26.4397C207.858 33.0665 233.126 32.3612 233.126 32.3612C235.373 42.513 232.144 100.461 232.144 100.461C239.023 101.308 259.659 109.767 265.414 92.9886C268.924 81.004 268.082 30.6695 268.082 30.6695C279.733 29.8236 285.629 30.6695 294.052 25.5939C303.318 19.6719 297.421 1.20166 297.421 1.20166C297.421 1.20166 274.68 3.73973 245.34 3.03494C230.319 2.04751 202.804 2.04752 202.804 2.04752Z" fill="#FF6C24"/>
<path d="M441.816 47.5891C439.991 18.4034 424.409 1.06118 392.823 0.215332C364.606 0.215332 349.023 7.82902 349.023 7.82902C349.023 7.82902 349.725 44.2052 349.023 58.7278C348.041 71.8403 348.041 97.7832 348.041 97.7832C348.041 97.7832 355.762 104.551 391.84 104.551C425.391 105.397 442.518 82.1326 441.816 47.5891ZM403.071 70.8534C394.648 76.2111 378.083 71.8403 378.083 71.8403C378.083 71.8403 378.083 55.4849 378.083 50.1272C378.083 45.0516 379.065 32.0802 379.065 32.0802C381.592 31.2338 397.174 27.8504 405.597 34.7588C414.301 41.6677 412.336 64.7903 403.071 70.8534Z" fill="#FF6C24"/>
<path d="M495.038 0.497086C467.804 -0.348764 446.606 24.4661 445.764 52.6649C444.079 80.7227 465.277 102.858 492.511 104.691C520.587 106.242 546.838 80.7227 545.154 52.6649C543.469 21.787 527.326 0.497086 495.038 0.497086ZM494.056 72.9679C482.264 72.9679 474.683 63.662 475.385 52.6649C476.367 42.3721 482.264 32.0798 494.056 32.0798C507.673 32.0798 512.867 41.5263 512.867 52.6649C512.867 64.5084 506.971 72.9679 494.056 72.9679Z" fill="#FF6C24"/>
<path d="M628.197 47.1665C618.093 48.1534 603.07 48.8582 603.07 48.8582C603.07 48.8582 600.545 59.0099 603.07 63.0987C605.599 69.0201 621.463 67.4695 621.463 67.4695C620.758 74.9421 616.408 77.4802 610.649 78.326C601.525 80.0177 594.646 78.326 591.276 74.9421C583.837 69.0201 581.312 64.0855 582.292 51.5373C583.137 39.6939 587.207 32.926 595.631 30.3879C601.525 28.6962 608.124 28.6963 613.039 32.2212C618.093 35.323 622.302 33.7719 626.517 31.2338C634.096 27.8504 642.38 21.9284 642.38 21.9284C632.411 3.4582 618.093 -0.630512 600.545 0.0742766C576.398 0.920127 554.641 18.6856 552.956 50.5504C551.131 81.5689 565.449 104.41 598.155 104.41C619.918 104.41 629.881 99.3338 638.165 89.3236C646.589 79.0308 649.114 59.0099 647.574 48.1534C647.574 48.1534 638.165 47.1665 628.197 47.1665Z" fill="#FF6C24"/>
</svg>
