<svg viewBox="0 0 64 58" fill="none" xmlns="http://www.w3.org/2000/svg">
<g clip-path="url(#clip0_18_536)">
<path d="M50.2744 4.80224C51.0458 5.99537 51.3972 7.32011 51.6017 8.7188C51.8377 10.3435 51.4647 11.8673 51.0138 13.3902C50.9271 13.6838 50.948 13.8356 51.2777 13.8366C52.2606 13.8377 53.1559 14.1991 54.0505 14.531C55.4401 15.0459 56.6616 15.82 57.5364 17.0539C58.0004 17.7091 58.5343 18.319 58.8329 19.0835C59.3723 20.4621 59.281 21.8039 58.6552 23.1314C58.2526 23.987 57.7252 24.7543 57.0382 25.3955C55.9831 26.3795 54.7145 26.9408 53.2755 27.006C51.7567 27.0764 50.2504 26.9601 48.7544 26.6018C47.7125 26.3519 46.6985 25.994 45.6457 25.7927C45.5143 25.7675 45.3957 25.7756 45.2715 25.8174C44.4083 26.1081 43.5873 26.4772 42.8322 27.002C41.643 27.8273 40.5664 28.7812 39.4858 29.7426C37.8741 31.1766 36.3041 32.6578 34.64 34.0365C33.4289 35.0397 32.1646 35.9709 30.95 36.9672C29.1144 38.4753 27.2247 39.9168 25.4421 41.4877C25.1935 41.7071 25.1755 41.956 25.1965 42.2463C25.3155 43.881 25.3376 45.5146 25.1221 47.1439C24.9619 48.3591 24.5058 49.4844 24.0796 50.6229C23.6363 51.8099 22.8872 52.7616 21.8307 53.4036C19.9669 54.5369 17.954 54.866 15.882 54.0431C14.1371 53.3489 12.9998 51.9729 12.1604 50.3454C11.6846 49.4216 11.5613 48.3991 11.4953 47.3731C11.4272 46.3376 11.3857 45.3019 11.6104 44.2797C11.6729 43.994 11.5598 43.9351 11.3111 43.8934C9.973 43.6673 8.7203 43.2225 7.60442 42.4245C5.38137 40.8319 4.41397 38.6226 4.60919 35.9565C4.70457 34.651 5.29192 33.4739 6.23657 32.481C8.03824 30.588 10.2323 30.0989 12.7215 30.4792C13.6475 30.6202 14.5554 30.8105 15.4282 31.1581C15.9071 31.3494 16.3228 31.6522 16.7587 31.9153C17.003 32.0626 17.2034 32.1028 17.4591 31.9349C18.0242 31.5624 18.6194 31.2359 19.1753 30.8525C20.8363 29.7042 22.5686 28.6684 24.2514 27.5548C25.6997 26.5969 27.1112 25.579 28.4743 24.4981C29.4551 23.72 30.4259 22.9302 31.402 22.1477C33.5872 20.3965 35.8056 18.6938 38.1025 17.0938C38.5111 16.8099 38.931 16.5399 39.3504 16.2734C39.6011 16.1139 39.6064 15.948 39.4545 15.7014C38.5298 14.2028 38.0271 12.5444 37.8872 10.8145C37.7785 9.46824 38.0791 8.14606 38.8038 6.9585C39.5486 5.73765 40.3961 4.58311 41.5769 3.77009C43.1348 2.69736 44.8074 1.9578 46.7949 2.51406C47.4843 2.70691 48.2117 2.76865 48.7726 3.26935C49.3057 3.74439 49.8639 4.19982 50.2723 4.80373L50.2744 4.80224ZM48.1238 6.29256C47.7622 5.88958 47.4407 5.41997 46.9307 5.229C45.415 4.66136 44.0898 5.08236 42.8758 6.07503C42.3423 6.51152 41.9512 7.06296 41.5158 7.57695C40.7713 8.45609 40.4371 9.52542 40.5054 10.6379C40.5815 11.8643 40.9746 13.0411 41.5641 14.1366C41.896 14.7545 42.32 15.3253 42.5476 15.9976C42.7593 16.6215 42.5817 17.2731 42.097 17.5691C41.1914 18.1231 40.3342 18.751 39.4647 19.3532C37.6267 20.6254 35.8036 21.9185 34.0856 23.358C32.6376 24.5705 31.1478 25.736 29.6624 26.9031C27.6215 28.5066 25.4555 29.9403 23.2525 31.3094C21.3768 32.4765 19.5917 33.7831 17.6706 34.8804C16.9253 35.3069 16.3097 35.2562 15.7885 34.5696C15.5903 34.3089 15.3518 34.1104 15.0763 33.9415C13.9143 33.2285 12.6219 33.0263 11.2937 32.9851C10.1623 32.9505 9.21222 33.3131 8.33202 34.0866C6.62501 35.5874 7.08786 38.2187 8.25632 39.5219C9.1546 40.5232 10.3119 41.0632 11.6164 41.293C12.1034 41.3794 12.5969 41.5712 13.0912 41.4792C14.3047 41.2534 15.0545 42.2606 14.6053 43.3605C14.0319 44.7652 14.0351 46.1904 14.1213 47.6567C14.2026 49.0352 14.8976 50.0976 15.8437 50.9749C16.9098 51.9644 18.2202 52.0577 19.5802 51.6149C20.4224 51.3409 21.1086 50.8278 21.4788 50.0411C22.1908 48.529 22.6572 46.9399 22.6587 45.2406C22.6595 44.1148 22.6547 42.9898 22.5352 41.8716C22.452 41.1003 22.6423 40.4554 23.2331 39.9431C23.5025 39.7088 23.7791 39.4803 24.053 39.2522C25.377 38.1475 26.7192 37.066 28.0444 35.9652C29.6656 34.6188 31.3792 33.3903 32.9776 32.0146C34.3039 30.8736 35.5993 29.6982 36.91 28.54C38.3358 27.2788 39.6987 25.9542 41.2844 24.8788C42.3898 24.1295 43.5729 23.587 44.8433 23.2102C45.2911 23.0776 45.7479 23.0518 46.2057 23.1874C48.1879 23.7758 50.1612 24.3627 52.2629 24.4136C53.7285 24.4491 54.9408 24.0635 55.803 22.8528C56.3367 22.1031 56.8127 21.2686 56.467 20.3223C56.0774 19.2532 55.4078 18.3206 54.4601 17.6757C53.3602 16.9262 52.1094 16.5367 50.7739 16.4063C50.2292 16.3535 49.6999 16.274 49.1424 16.3043C48.2347 16.3531 47.5375 15.2766 47.8883 14.3796C48.2566 13.4369 48.5115 12.4653 48.8089 11.5028C49.1406 10.4257 49.0635 9.38412 48.8888 8.32292C48.7694 7.59966 48.5169 6.91686 48.1243 6.29535L48.1238 6.29256Z" fill="#F7D6F3"/>
</g>
<defs>
<clipPath id="clip0_18_536">
<rect width="57.6433" height="28.8217" fill="white" transform="translate(0 33.6152) rotate(-35.6733)"/>
</clipPath>
</defs>
</svg>
