<svg width="180" height="186" viewBox="0 0 180 186" fill="none" xmlns="http://www.w3.org/2000/svg">
<path d="M18.2499 154.74C18.8271 154.74 19.2599 155.174 19.2599 155.752C19.2599 155.752 19.2599 158.57 18.9714 162.399C22.867 159.87 27.0512 158.136 30.8747 158.136C31.4518 158.136 31.9568 158.57 31.9568 159.148C31.9568 159.726 31.4518 160.159 30.8747 160.159C27.2676 160.159 22.867 162.255 18.6828 165.145C18.4664 167.096 18.1778 169.191 17.8171 171.214C17.0957 175.043 16.0136 178.728 14.2822 181.474C13.4165 182.847 12.3343 183.93 11.0358 184.653C10.1701 185.159 9.23225 185.448 8.22227 185.448C7.71728 185.448 7.14015 185.376 6.56302 185.159C5.19234 184.797 4.11022 183.93 3.74951 182.774C3.60523 182.413 3.60522 181.98 3.60522 181.546C3.60522 180.751 3.74952 179.957 4.03808 179.017C4.97592 176.344 7.06801 173.165 9.88152 170.13C11.9015 167.963 14.21 165.867 16.735 163.989C16.8793 162.255 17.0235 160.809 17.0957 159.509C16.23 160.593 15.22 161.677 14.1379 162.833C12.9115 164.133 11.6851 165.289 10.603 166.228C10.0258 166.662 9.52082 167.096 9.01583 167.385C8.51084 167.674 8.15014 167.963 7.50087 167.89C7.06802 167.89 6.49089 167.601 6.20232 167.24C5.91376 166.879 5.76947 166.445 5.69733 166.084C5.69733 165.939 5.62518 165.795 5.62518 165.578C5.62518 164.928 5.8416 164.35 5.98588 163.555C6.49087 161.677 7.50086 159.437 8.87155 157.558C10.098 155.896 11.8293 155.391 13.3443 155.391C13.6329 155.391 13.9215 155.391 14.21 155.391C15.6529 155.607 16.6628 156.113 16.8793 156.258L17.24 155.535C17.3121 155.102 17.8171 154.74 18.2499 154.74ZM13.2722 157.341H13.0558C12.1901 157.341 11.3244 157.703 10.5308 158.786C9.30439 160.448 8.36655 162.544 7.9337 164.061C7.71728 164.783 7.78941 165.434 7.78941 165.723C7.86156 165.723 7.93372 165.65 8.00586 165.578C8.36657 165.361 8.79942 165.072 9.30441 164.639C10.3144 163.772 11.5408 162.616 12.695 161.388C13.7772 160.231 14.8593 159.075 15.6528 157.992C15.3643 157.847 14.7872 157.558 13.9215 157.414C13.705 157.414 13.4886 157.341 13.2722 157.341ZM16.3743 166.879C14.5707 168.324 12.9115 169.986 11.3965 171.575C8.72725 174.465 6.70729 177.5 5.98588 179.668C5.76945 180.462 5.62518 181.113 5.62518 181.546C5.62518 181.835 5.62519 181.98 5.69733 182.124C5.84162 182.63 6.20231 182.991 7.06801 183.208C7.50086 183.352 7.86157 183.425 8.22227 183.425C8.94369 183.425 9.52083 183.208 10.098 182.847C10.9637 182.341 11.7572 181.546 12.4786 180.39C13.9214 178.078 15.0757 174.538 15.7971 170.853C16.0857 169.552 16.23 168.179 16.3743 166.879Z" fill="#1E1E1E"/>
<path d="M37.4013 155.969H37.5456C37.6899 155.969 37.9063 156.113 38.0506 156.186C39.3492 156.908 39.7099 158.136 40.0706 159.003C40.4313 159.87 40.7199 160.376 41.5856 160.665C41.7298 160.737 41.8741 160.737 42.0184 160.737C42.9562 160.737 44.5434 160.304 45.8419 159.726C47.429 159.003 48.5833 158.281 48.5833 158.281C48.7275 158.209 49.0161 158.136 49.1604 158.136C49.7375 158.136 50.1704 158.57 50.1704 159.148C50.1704 159.437 49.954 159.87 49.6654 160.015C49.6654 160.015 48.3668 160.882 46.6354 161.604C45.2648 162.183 43.6776 162.905 42.1627 162.905C41.802 162.905 41.3691 162.833 41.0084 162.688H40.9363C39.3492 162.183 38.6278 160.81 38.1949 159.798C37.8342 158.931 37.6178 158.425 37.2571 158.136C37.1128 158.281 36.8242 158.498 36.5357 158.859C35.8864 159.654 35.0928 160.882 34.3714 162.11C32.8564 164.639 31.5579 167.312 31.5579 167.312C31.4136 167.601 30.9808 167.89 30.6201 167.89C30.4758 167.89 30.2594 167.818 30.1151 167.746C29.6101 167.457 29.3936 166.951 29.2494 166.518C29.1051 166.084 29.1772 165.651 29.1772 165.217C29.1772 164.35 29.3937 163.339 29.6101 162.399C30.0429 160.521 30.7643 158.787 30.7643 158.787C30.9086 158.425 31.2693 158.136 31.7022 158.136C32.2793 158.136 32.7121 158.57 32.7121 159.148C32.7121 159.22 32.7121 159.437 32.64 159.509C32.64 159.509 32.135 160.954 31.7022 162.544C31.9907 162.038 32.2793 161.604 32.5679 161.099C33.3614 159.798 34.155 158.498 34.9485 157.558C35.3814 157.053 35.8142 156.619 36.2471 156.33C36.5356 156.113 36.9685 155.969 37.4013 155.969Z" fill="#1E1E1E"/>
<path d="M53.7861 154.523C55.1568 154.523 56.5996 155.318 57.5374 156.98C57.8981 157.703 58.0424 158.353 58.0424 159.075C58.0424 159.942 57.826 160.882 57.4653 161.749C57.6096 161.821 57.7538 161.821 57.8981 161.821C58.9081 161.821 59.9902 161.604 61.0002 161.243C64.1023 160.304 66.7715 158.353 66.7715 158.353C66.9158 158.208 67.2044 158.136 67.4208 158.136C67.9979 158.136 68.4308 158.57 68.4308 159.148C68.4308 159.437 68.2144 159.798 67.9979 159.942C67.9979 159.942 65.1123 162.182 61.5774 163.266C60.4231 163.627 59.2688 163.844 58.1146 163.844C57.5374 163.844 57.0324 163.844 56.5274 163.7C55.3732 165.578 53.7861 167.24 51.7661 167.818C51.0447 168.035 50.3233 168.107 49.674 167.89C49.0247 167.673 48.5197 167.312 48.2312 166.806C47.654 166.012 47.5098 165 47.5098 164.061C47.5098 163.844 47.5098 163.7 47.5098 163.483C47.5819 161.171 48.3755 158.859 48.3755 158.859C48.5197 158.425 48.9526 158.136 49.3854 158.136C49.9626 158.136 50.3954 158.57 50.3954 159.148C50.3954 159.22 50.3233 159.364 50.3233 159.437C50.3233 159.437 49.674 161.676 49.6019 163.555C49.5297 164.494 49.674 165.361 49.8904 165.65C49.9626 165.795 50.1069 165.867 50.2511 165.939C50.3954 166.012 50.684 166.012 51.189 165.867C52.2711 165.578 53.5697 164.422 54.5075 163.049C53.0647 162.327 51.7661 161.171 50.8283 159.364C50.5397 158.859 50.3954 158.281 50.3954 157.775C50.3954 157.341 50.4676 156.98 50.6119 156.619C50.9726 155.824 51.694 155.174 52.4875 154.812C52.9204 154.668 53.3532 154.523 53.7861 154.523ZM53.9304 156.547H53.8582C53.6418 156.547 53.4254 156.619 53.2811 156.691C52.9204 156.836 52.704 157.125 52.5597 157.414C52.4154 157.703 52.4154 157.992 52.6318 158.425C53.4254 159.942 54.3632 160.737 55.4453 161.243C55.7339 160.448 55.8782 159.581 55.8782 158.931C55.8782 158.57 55.806 158.208 55.7339 157.992C55.1568 156.908 54.5075 156.547 53.9304 156.547Z" fill="#1E1E1E"/>
<path d="M71.892 154.523C73.2627 154.523 74.7055 155.318 75.6434 156.98C76.0041 157.703 76.1484 158.353 76.1484 159.075C76.1484 159.942 75.932 160.882 75.5713 161.749C75.7155 161.821 75.8598 161.821 76.0041 161.821C77.0141 161.821 78.0962 161.604 79.1062 161.243C82.2083 160.304 84.8775 158.353 84.8775 158.353C85.0218 158.208 85.3103 158.136 85.5268 158.136C86.1039 158.136 86.5367 158.57 86.5367 159.148C86.5367 159.437 86.3203 159.798 86.1039 159.942C86.1039 159.942 83.2182 162.182 79.6833 163.266C78.529 163.627 77.3748 163.844 76.2205 163.844C75.6434 163.844 75.1384 163.844 74.6334 163.7C73.4791 165.578 71.892 167.24 69.8721 167.818C69.1507 168.035 68.4292 168.107 67.78 167.89C67.1307 167.673 66.6257 167.312 66.3371 166.806C65.76 166.012 65.6157 165 65.6157 164.061C65.6157 163.844 65.6157 163.7 65.6157 163.483C65.6879 161.171 66.4814 158.859 66.4814 158.859C66.6257 158.425 67.0585 158.136 67.4914 158.136C68.0685 158.136 68.5014 158.57 68.5014 159.148C68.5014 159.22 68.4292 159.364 68.4292 159.437C68.4292 159.437 67.78 161.676 67.7078 163.555C67.6357 164.494 67.78 165.361 67.9964 165.65C68.0685 165.795 68.2128 165.867 68.3571 165.939C68.5014 166.012 68.7899 166.012 69.2949 165.867C70.377 165.578 71.6756 164.422 72.6135 163.049C71.1706 162.327 69.8721 161.171 68.9342 159.364C68.6457 158.859 68.5014 158.281 68.5014 157.775C68.5014 157.341 68.5735 156.98 68.7178 156.619C69.0785 155.824 69.7999 155.174 70.5935 154.812C71.0263 154.668 71.4592 154.523 71.892 154.523ZM72.0363 156.547H71.9642C71.7478 156.547 71.5313 156.619 71.387 156.691C71.0263 156.836 70.8099 157.125 70.6656 157.414C70.5213 157.703 70.5213 157.992 70.7378 158.425C71.5313 159.942 72.4692 160.737 73.5513 161.243C73.8398 160.448 73.9841 159.581 73.9841 158.931C73.9841 158.57 73.912 158.208 73.8398 157.992C73.2627 156.908 72.6134 156.547 72.0363 156.547Z" fill="#1E1E1E"/>
<path d="M102.839 156.185H102.911C102.983 156.185 103.2 156.185 103.272 156.257C103.633 156.401 103.849 156.618 103.993 156.907C104.138 157.196 104.21 157.413 104.21 157.63C104.282 158.063 104.209 158.569 104.138 159.002C103.993 159.942 103.705 160.953 103.561 162.037C103.416 162.687 103.416 163.193 103.416 163.699C103.416 164.132 103.416 164.421 103.561 164.71C103.777 165.361 103.993 165.65 104.859 165.794C105.003 165.866 105.148 165.866 105.364 165.866C106.085 165.866 106.951 165.65 107.889 165.144C109.043 164.566 110.197 163.627 111.279 162.615C113.443 160.664 115.031 158.497 115.031 158.497C115.175 158.28 115.536 158.135 115.824 158.135C116.401 158.135 116.835 158.569 116.835 159.147C116.835 159.364 116.762 159.653 116.618 159.797C116.618 159.797 114.959 162.037 112.65 164.132C111.496 165.216 110.197 166.228 108.826 166.95C107.672 167.601 106.518 168.034 105.291 168.034C105.003 168.034 104.714 167.962 104.426 167.89C102.911 167.601 101.973 166.444 101.612 165.288C101.396 164.783 101.324 164.205 101.324 163.699C101.324 163.049 101.396 162.398 101.541 161.748C101.685 160.809 101.829 159.942 101.973 159.219L101.901 159.291C101.18 160.158 100.169 161.459 99.2316 162.76C98.2937 164.06 97.2842 165.361 96.4185 166.3C95.9857 166.806 95.5528 167.239 95.12 167.528C94.9036 167.673 94.6867 167.817 94.3981 167.89C94.1096 167.962 93.6772 167.89 93.3165 167.745C92.8115 167.528 92.4503 167.095 92.306 166.661C92.1617 166.228 92.0896 165.866 92.0174 165.433C91.9453 165.144 91.9458 164.855 91.9458 164.566C91.9458 163.988 92.0174 163.338 92.0174 162.687C92.0174 162.109 92.0174 161.459 92.0174 160.953C92.0174 160.664 92.0174 160.375 92.0174 160.158C92.0174 159.869 91.9458 159.725 91.8736 159.58C91.7293 159.725 91.5846 159.942 91.3682 160.158C90.791 160.881 89.9975 162.037 89.2761 163.193C88.5547 164.349 87.8337 165.577 87.1123 166.445C86.7516 166.878 86.4626 167.239 86.0297 167.528C85.8133 167.673 85.5973 167.817 85.3087 167.89C85.0202 167.962 84.5869 167.962 84.2262 167.745C83.7212 167.456 83.5773 166.95 83.4331 166.517C83.2888 166.083 83.2883 165.65 83.2883 165.216C83.2883 164.349 83.4326 163.41 83.649 162.471C84.0819 160.592 84.6595 158.858 84.6595 158.858C84.8038 158.497 85.1645 158.135 85.5973 158.135C86.1745 158.135 86.6794 158.569 86.6794 159.147C86.6794 159.219 86.6068 159.436 86.6068 159.508C86.6068 159.508 86.0297 161.17 85.669 162.904C85.4526 163.771 85.3087 164.638 85.3087 165.288V165.361L85.5252 165.144C86.1023 164.421 86.8233 163.193 87.5447 162.037C88.2661 160.881 89.0601 159.725 89.7815 158.858C90.1422 158.424 90.5029 157.991 90.9358 157.702C91.3686 157.413 92.09 157.196 92.7393 157.557C93.6772 158.063 93.9657 159.075 94.0379 159.942C94.11 160.809 94.1095 161.82 94.1095 162.76C94.1095 163.41 94.0379 163.988 94.0379 164.566C94.0379 164.783 94.0374 164.999 94.1095 165.216C94.1095 165.433 94.1817 165.505 94.1817 165.65C94.3981 165.505 94.615 165.216 94.9036 164.927C95.6971 164.06 96.635 162.832 97.5728 161.531C98.5106 160.231 99.4485 159.002 100.314 157.991C100.747 157.485 101.18 157.052 101.541 156.763C101.757 156.618 101.901 156.474 102.189 156.329C102.334 156.257 102.55 156.185 102.839 156.185Z" fill="#1E1E1E"/>
<path d="M117.114 151.416C117.691 151.416 118.124 151.85 118.124 152.428C118.124 152.5 118.052 152.717 118.052 152.789L117.475 154.523C117.33 154.956 116.97 155.245 116.537 155.245C115.96 155.245 115.455 154.812 115.455 154.234C115.455 154.162 115.526 153.945 115.526 153.873L116.104 152.139C116.248 151.705 116.681 151.416 117.114 151.416ZM116.104 158.136C116.681 158.136 117.114 158.569 117.114 159.147V159.219C117.041 160.448 116.825 161.604 116.825 162.687C116.825 162.832 116.825 162.977 116.825 163.049C116.898 164.205 117.114 165 118.052 165.505C118.413 165.794 118.99 165.867 119.639 165.867C120.216 165.867 120.938 165.794 121.659 165.505C123.174 165 124.977 164.06 126.564 162.976C129.81 160.881 132.408 158.425 132.408 158.425C132.552 158.28 132.913 158.136 133.129 158.136C133.706 158.136 134.139 158.569 134.139 159.147C134.139 159.436 134.067 159.797 133.85 159.942C133.85 159.942 131.037 162.471 127.646 164.711C125.915 165.794 124.112 166.878 122.308 167.456C121.37 167.817 120.432 167.962 119.494 167.962C118.556 167.962 117.691 167.817 116.969 167.312C115.31 166.372 114.806 164.638 114.733 163.121C114.733 162.976 114.733 162.832 114.733 162.687C114.733 161.315 114.95 160.086 115.022 159.075C115.022 158.497 115.527 158.136 116.104 158.136Z" fill="#1E1E1E"/>
<path d="M140.579 156.113H140.723C140.94 156.113 141.156 156.258 141.3 156.33C141.877 156.619 142.094 157.125 142.238 157.558C142.382 157.992 142.455 158.498 142.527 159.003C142.599 160.015 142.599 161.243 142.671 162.327C142.743 163.411 142.815 164.495 143.032 165.145C143.176 165.434 143.248 165.651 143.32 165.723C143.392 165.795 143.464 165.795 143.681 165.795C145.124 165.795 147.36 164.206 149.092 162.327C150.823 160.448 151.978 158.57 151.978 158.57C152.122 158.281 152.555 158.136 152.843 158.136C153.42 158.136 153.925 158.57 153.925 159.148C153.925 159.292 153.781 159.581 153.709 159.726C153.709 159.726 152.483 161.677 150.606 163.7C148.731 165.723 146.35 167.891 143.681 167.891C143.032 167.891 142.382 167.601 141.95 167.24C141.517 166.879 141.3 166.301 141.084 165.795C140.723 164.784 140.651 163.555 140.579 162.399C140.507 161.243 140.579 160.087 140.507 159.22C140.507 158.931 140.435 158.642 140.362 158.425C140.218 158.57 140.002 158.787 139.785 159.076C139.136 159.943 138.27 161.243 137.477 162.544C136.683 163.844 135.817 165.217 135.096 166.229C134.735 166.734 134.375 167.096 133.942 167.457C133.725 167.602 133.509 167.818 133.22 167.891C132.932 167.963 132.427 167.963 132.066 167.746C131.561 167.457 131.417 167.023 131.273 166.59C131.128 166.156 131.056 165.723 131.056 165.289C131.056 164.422 131.273 163.411 131.417 162.472C131.778 160.593 132.283 158.859 132.283 158.859C132.427 158.425 132.86 158.136 133.293 158.136C133.87 158.136 134.303 158.57 134.303 159.148C134.303 159.22 134.23 159.365 134.23 159.437C134.23 159.437 133.798 161.099 133.437 162.833C133.293 163.7 133.148 164.639 133.148 165.289V165.362C133.22 165.217 133.365 165.145 133.437 165C134.086 164.133 134.952 162.761 135.745 161.46C136.539 160.159 137.405 158.787 138.198 157.775C138.631 157.269 138.992 156.836 139.425 156.547C139.641 156.402 139.93 156.258 140.218 156.186C140.362 156.186 140.435 156.113 140.579 156.113Z" fill="#1E1E1E"/>
<path d="M162.181 154.74C162.758 154.74 163.191 155.174 163.191 155.752C163.191 155.752 163.191 158.57 162.902 162.399C166.798 159.87 170.982 158.136 174.806 158.136C175.383 158.136 175.888 158.57 175.888 159.148C175.888 159.726 175.383 160.159 174.806 160.159C171.199 160.159 166.798 162.255 162.614 165.145C162.397 167.096 162.109 169.191 161.748 171.214C161.027 175.043 159.944 178.728 158.213 181.474C157.347 182.847 156.265 183.93 154.967 184.653C154.101 185.159 153.163 185.448 152.153 185.448C151.648 185.448 151.071 185.376 150.493 185.159C149.123 184.797 148.041 183.93 147.68 182.774C147.536 182.413 147.536 181.98 147.536 181.546C147.536 180.751 147.68 179.957 147.969 179.017C148.906 176.344 150.999 173.165 153.812 170.13C155.832 167.963 158.141 165.867 160.666 163.989C160.81 162.255 160.954 160.809 161.027 159.509C160.161 160.593 159.151 161.677 158.069 162.833C156.842 164.133 155.616 165.289 154.534 166.228C153.957 166.662 153.452 167.096 152.947 167.385C152.442 167.674 152.081 167.963 151.432 167.89C150.999 167.89 150.421 167.601 150.133 167.24C149.844 166.879 149.7 166.445 149.628 166.084C149.628 165.939 149.556 165.795 149.556 165.578C149.556 164.928 149.772 164.35 149.916 163.555C150.421 161.677 151.432 159.437 152.802 157.558C154.029 155.896 155.76 155.391 157.275 155.391C157.564 155.391 157.852 155.391 158.141 155.391C159.584 155.607 160.594 156.113 160.81 156.258L161.171 155.535C161.243 155.102 161.748 154.74 162.181 154.74ZM157.203 157.341H156.987C156.121 157.341 155.255 157.703 154.462 158.786C153.235 160.448 152.297 162.544 151.865 164.061C151.648 164.783 151.72 165.434 151.72 165.723C151.792 165.723 151.865 165.65 151.937 165.578C152.297 165.361 152.73 165.072 153.235 164.639C154.245 163.772 155.472 162.616 156.626 161.388C157.708 160.231 158.79 159.075 159.584 157.992C159.295 157.847 158.718 157.558 157.852 157.414C157.636 157.414 157.419 157.341 157.203 157.341ZM160.305 166.879C158.502 168.324 156.842 169.986 155.327 171.575C152.658 174.465 150.638 177.5 149.916 179.668C149.7 180.462 149.556 181.113 149.556 181.546C149.556 181.835 149.556 181.98 149.628 182.124C149.772 182.63 150.133 182.991 150.999 183.208C151.432 183.352 151.792 183.425 152.153 183.425C152.875 183.425 153.452 183.208 154.029 182.847C154.895 182.341 155.688 181.546 156.41 180.39C157.852 178.078 159.007 174.538 159.728 170.853C160.017 169.552 160.161 168.179 160.305 166.879Z" fill="#1E1E1E"/>
<g clip-path="url(#clip0_37_1507)">
<path d="M0.919189 59.7996C0.919189 59.7996 8.18898 60.7941 13.1191 60.2968C18.2998 59.2195 19.3025 56.1531 19.8874 51.2635C20.3888 46.6224 20.3888 41.4842 20.3888 41.4842H36.1817C36.1817 41.4842 36.7666 45.0478 37.268 50.6833C37.268 56.1531 37.268 60.2968 37.268 60.2968C42.8666 60.2968 51.0555 62.3688 54.6486 58.2249C58.1581 54.247 56.1527 43.5561 56.1527 31.9536C56.7376 20.2682 58.1581 7.00813 56.1527 3.03012C53.0609 -1.61089 43.8693 0.460991 37.268 0.460991C37.268 0.460991 37.7694 3.52737 37.268 6.0965C37.268 9.57726 36.7666 24.2462 36.7666 24.2462H20.3888C20.3888 24.2462 20.3888 8.58273 19.8874 5.01913C18.8012 1.45549 17.297 0.460991 12.6176 0.460991C8.69034 0.460991 0.919189 1.45549 0.919189 1.45549C0.919189 1.45549 1.42055 18.1963 1.42055 31.9536C1.42055 45.628 0.919189 59.7996 0.919189 59.7996Z" fill="#FF6C24"/>
<path d="M91.0072 0.0465336C74.7963 -0.450716 62.1788 14.1353 61.6775 30.7104C60.6747 47.2025 73.2921 60.2139 89.503 61.2913C106.215 62.2029 121.841 47.2025 120.838 30.7104C119.836 12.5607 110.226 0.0465336 91.0072 0.0465336ZM90.4225 42.6444C83.403 42.6444 78.8911 37.1746 79.3089 30.7104C79.8937 24.6605 83.403 18.6105 90.4225 18.6105C98.5276 18.6105 101.619 24.1632 101.619 30.7104C101.619 37.6718 98.1098 42.6444 90.4225 42.6444Z" fill="#FF6C24"/>
<path d="M121.636 0.958189C120.132 7.42246 120.633 13.3066 122.054 15.2956C124.644 19.1907 139.685 18.7763 139.685 18.7763C141.021 24.7434 139.099 58.805 139.099 58.805C143.194 59.3023 155.477 64.2748 158.904 54.4127C160.993 47.3683 160.491 17.7818 160.491 17.7818C167.426 17.2846 170.937 17.7818 175.95 14.7983C181.465 11.3176 177.955 0.460938 177.955 0.460938C177.955 0.460938 164.419 1.95269 146.954 1.53831C138.013 0.958189 121.636 0.958189 121.636 0.958189Z" fill="#FF6C24"/>
<path d="M55.8184 110.602C54.7322 93.4469 45.4569 83.2535 26.6558 82.7559C9.86015 82.7559 0.584923 87.2312 0.584923 87.2312C0.584923 87.2312 1.00273 108.613 0.584923 117.149C0 124.856 0 140.105 0 140.105C0 140.105 4.59583 144.084 26.0709 144.084C46.0419 144.581 56.2362 130.907 55.8184 110.602ZM32.7557 124.277C27.7421 127.426 17.8819 124.856 17.8819 124.856C17.8819 124.856 17.8819 115.243 17.8819 112.094C17.8819 109.11 18.4669 101.486 18.4669 101.486C19.971 100.989 29.2462 98.9995 34.2598 103.061C39.4406 107.121 38.2708 120.713 32.7557 124.277Z" fill="#FF6C24"/>
<path d="M87.4987 82.9216C71.2878 82.4239 58.67 97.0099 58.1687 113.585C57.166 130.078 69.7836 143.089 85.9945 144.166C102.706 145.078 118.333 130.078 117.329 113.585C116.327 95.4357 106.717 82.9216 87.4987 82.9216ZM86.9132 125.519C79.8945 125.519 75.3819 120.05 75.7997 113.585C76.3852 107.536 79.8945 101.485 86.9132 101.485C95.0191 101.485 98.1106 107.038 98.1106 113.585C98.1106 120.547 94.6013 125.519 86.9132 125.519Z" fill="#FF6C24"/>
<path d="M166.76 110.354C160.744 110.934 151.803 111.349 151.803 111.349C151.803 111.349 150.299 117.315 151.803 119.719C153.307 123.2 162.749 122.288 162.749 122.288C162.331 126.68 159.741 128.172 156.315 128.669C150.884 129.663 146.789 128.669 144.784 126.68C140.355 123.2 138.851 120.299 139.435 112.923C139.937 105.961 142.361 101.984 147.374 100.491C150.884 99.4969 154.811 99.4969 157.735 101.569C160.744 103.393 163.251 102.481 165.757 100.989C170.269 98.9999 175.2 95.5192 175.2 95.5192C169.267 84.6627 160.744 82.2593 150.299 82.6735C135.926 83.1705 122.974 93.6127 121.972 112.343C120.885 130.575 129.408 144.001 148.878 144.001C161.83 144.001 167.762 141.018 172.693 135.133C177.706 129.084 179.211 117.315 178.291 110.934C178.291 110.934 172.693 110.354 166.76 110.354Z" fill="#FF6C24"/>
</g>
<defs>
<clipPath id="clip0_37_1507">
<rect width="179.056" height="144.206" fill="white"/>
</clipPath>
</defs>
</svg>
