<svg width="48" height="48" viewBox="0 0 48 48" fill="none" xmlns="http://www.w3.org/2000/svg">
<path d="M23.7363 15C21.9758 15 20.2549 15.5278 18.7911 16.5168C17.3273 17.5057 16.1864 18.9113 15.5127 20.5558C14.839 22.2004 14.6628 24.01 15.0062 25.7558C15.3497 27.5016 16.1974 29.1053 17.4422 30.364C18.6871 31.6226 20.2731 32.4798 21.9998 32.8271C23.7264 33.1743 25.5161 32.9961 27.1426 32.3149C28.769 31.6337 30.1592 30.4802 31.1373 29.0001C32.1153 27.5201 32.6374 25.78 32.6374 24C32.6349 21.6138 31.6963 19.3261 30.0276 17.6388C28.3588 15.9515 26.0962 15.0025 23.7363 15ZM23.7363 30C22.5626 30 21.4153 29.6481 20.4395 28.9888C19.4636 28.3295 18.703 27.3925 18.2539 26.2961C17.8048 25.1997 17.6873 23.9933 17.9162 22.8295C18.1452 21.6656 18.7104 20.5965 19.5403 19.7574C20.3702 18.9182 21.4275 18.3468 22.5786 18.1153C23.7297 17.8838 24.9228 18.0026 26.0071 18.4567C27.0915 18.9108 28.0182 19.6799 28.6703 20.6666C29.3223 21.6533 29.6703 22.8133 29.6703 24C29.6703 25.5913 29.0451 27.1174 27.9323 28.2426C26.8194 29.3679 25.3101 30 23.7363 30ZM32.6374 4.5H14.8352C12.0819 4.50298 9.44225 5.61018 7.4954 7.57867C5.54854 9.54716 4.45351 12.2161 4.45056 15V33C4.45351 35.7839 5.54854 38.4528 7.4954 40.4213C9.44225 42.3898 12.0819 43.497 14.8352 43.5H32.6374C35.3906 43.497 38.0303 42.3898 39.9772 40.4213C41.924 38.4528 43.019 35.7839 43.022 33V15C43.019 12.2161 41.924 9.54716 39.9772 7.57867C38.0303 5.61018 35.3906 4.50298 32.6374 4.5ZM40.055 33C40.055 34.9891 39.2735 36.8968 37.8824 38.3033C36.4913 39.7098 34.6046 40.5 32.6374 40.5H14.8352C12.8679 40.5 10.9812 39.7098 9.59015 38.3033C8.19909 36.8968 7.41759 34.9891 7.41759 33V15C7.41759 13.0109 8.19909 11.1032 9.59015 9.6967C10.9812 8.29018 12.8679 7.5 14.8352 7.5H32.6374C34.6046 7.5 36.4913 8.29018 37.8824 9.6967C39.2735 11.1032 40.055 13.0109 40.055 15V33ZM35.6044 14.25C35.6044 14.695 35.4739 15.13 35.2294 15.5C34.9849 15.87 34.6373 16.1584 34.2307 16.3287C33.8241 16.499 33.3767 16.5436 32.945 16.4568C32.5133 16.37 32.1168 16.1557 31.8056 15.841C31.4944 15.5263 31.2825 15.1254 31.1966 14.689C31.1108 14.2525 31.1548 13.8001 31.3232 13.389C31.4917 12.9778 31.7769 12.6264 32.1428 12.3792C32.5088 12.132 32.939 12 33.3791 12C33.9693 12 34.5353 12.2371 34.9526 12.659C35.37 13.081 35.6044 13.6533 35.6044 14.25Z" />
</svg>
