<svg viewBox="0 0 62 55" fill="none" xmlns="http://www.w3.org/2000/svg">
<g clip-path="url(#clip0_34_1054)">
<path d="M49.4801 4.74331C50.1999 5.91971 50.5089 7.21367 50.6735 8.57584C50.8634 10.1581 50.4645 11.6277 49.9903 13.0946C49.8991 13.3774 49.9156 13.5253 50.2355 13.5342C51.1893 13.5589 52.0494 13.9312 52.9094 14.2749C54.2454 14.8081 55.412 15.5887 56.2311 16.8072C56.6656 17.4542 57.1689 18.0589 57.4402 18.808C57.9304 20.1588 57.8094 21.4586 57.1701 22.7316C56.7587 23.5521 56.2285 24.284 55.5463 24.8896C54.4988 25.819 53.2542 26.333 51.8562 26.3615C50.3808 26.3931 48.9219 26.2439 47.4789 25.8602C46.4739 25.5925 45.4985 25.2207 44.4819 25C44.355 24.9724 44.2397 24.9773 44.1182 25.015C43.2735 25.2762 42.4679 25.6145 41.7225 26.1055C40.5486 26.8777 39.481 27.7773 38.4092 28.6841C36.8106 30.0367 35.2513 31.4361 33.6033 32.7338C32.4039 33.678 31.1545 34.5511 29.9519 35.4886C28.1343 36.9076 26.2658 38.2609 24.4981 39.7421C24.2515 39.949 24.2281 40.1902 24.2415 40.4723C24.3175 42.0615 24.2995 43.6471 24.051 45.223C23.8662 46.3983 23.3965 47.4792 22.9555 48.5737C22.4967 49.7148 21.7467 50.6202 20.7061 51.2177C18.8701 52.2724 16.9089 52.5432 14.9182 51.6946C13.2418 50.9789 12.1714 49.6163 11.3962 48.0167C10.9568 47.1088 10.8617 46.1136 10.8225 45.1164C10.7814 44.11 10.7661 43.104 11.0089 42.1175C11.0764 41.8418 10.9681 41.7819 10.7277 41.7354C9.43479 41.4837 8.22995 41.0218 7.1664 40.2206C5.04768 38.6215 4.16228 36.4543 4.41608 33.8719C4.54015 32.6074 5.13851 31.4794 6.07914 30.5387C7.87311 28.7453 10.014 28.3237 12.4202 28.7528C13.3153 28.912 14.1917 29.1185 15.0303 29.4769C15.4904 29.6741 15.8865 29.9779 16.3031 30.2437C16.5366 30.3926 16.7301 30.4365 16.9823 30.2797C17.5397 29.9319 18.125 29.6294 18.6738 29.2709C20.3132 28.1967 22.0192 27.2334 23.679 26.1934C25.1075 25.2988 26.5017 24.3452 27.8506 23.3293C28.8211 22.5979 29.7822 21.8549 30.7483 21.1192C32.9109 19.4726 35.1047 17.8739 37.3722 16.3767C37.7755 16.1111 38.1895 15.8593 38.6029 15.6108C38.85 15.4621 38.8592 15.3013 38.7177 15.0583C37.8566 13.5817 37.4089 11.9604 37.3148 10.2784C37.2419 8.96937 37.5654 7.69363 38.2973 6.55876C39.0495 5.39207 39.8998 4.2922 41.0653 3.53178C42.6029 2.52845 44.2438 1.85118 46.1589 2.43894C46.8233 2.64272 47.5276 2.72019 48.0598 3.21959C48.5656 3.69343 49.0963 4.14883 49.478 4.7447L49.4801 4.74331ZM47.3573 6.13754C47.0161 5.73778 46.7155 5.27433 46.2252 5.0767C44.7681 4.4893 43.472 4.86582 42.27 5.79977C41.7418 6.21045 41.349 6.7361 40.9141 7.22436C40.1704 8.05946 39.8203 9.08904 39.8597 10.1702C39.9039 11.3621 40.257 12.5135 40.8026 13.5908C41.1098 14.1984 41.5074 14.7625 41.712 15.4203C41.9024 16.0309 41.7143 16.6588 41.2368 16.9344C40.3447 17.4501 39.4977 18.0388 38.6395 18.6021C36.8252 19.7923 35.0249 21.003 33.3231 22.3583C31.8887 23.5 30.415 24.595 28.9454 25.6916C26.9263 27.1983 24.7899 28.5373 22.6191 29.8126C20.7708 30.8998 19.007 32.1246 17.1164 33.143C16.3829 33.5389 15.7867 33.4748 15.2976 32.796C15.1116 32.5383 14.8849 32.3398 14.6216 32.1693C13.5113 31.4494 12.262 31.222 10.9742 31.1499C9.87724 31.0891 8.94651 31.418 8.07373 32.1473C6.38107 33.5625 6.76668 36.1269 7.86906 37.4197C8.71654 38.4131 9.82655 38.965 11.0868 39.2194C11.5573 39.315 12.0315 39.5131 12.5134 39.4357C13.6964 39.2459 14.3997 40.2414 13.9373 41.2978C13.3469 42.6471 13.3156 44.0301 13.3638 45.4551C13.4095 46.7947 14.0582 47.8423 14.9551 48.7164C15.9657 49.7024 17.2351 49.8245 18.5654 49.4277C19.3893 49.1821 20.0676 48.7008 20.4458 47.9464C21.1732 46.4963 21.6641 44.9655 21.7066 43.3167C21.7346 42.2242 21.757 41.1324 21.668 40.0445C21.606 39.294 21.8062 38.6728 22.3918 38.19C22.6589 37.9692 22.9328 37.7541 23.2041 37.5394C24.5155 36.4994 25.8441 35.4823 27.1566 34.4461C28.7622 33.1787 30.4547 32.028 32.039 30.7316C33.3535 29.6565 34.6388 28.5472 35.9387 27.455C37.3527 26.2656 38.7072 25.0132 40.2719 24.0079C41.3626 23.3074 42.5237 22.8096 43.7655 22.4746C44.2033 22.3568 44.6472 22.3427 45.0882 22.4855C46.9974 23.1042 48.8981 23.7213 50.9362 23.8215C52.3575 23.8913 53.5432 23.5464 54.4091 22.3924C54.9451 21.6778 55.4272 20.8795 55.1146 19.9529C54.7623 18.9062 54.1351 17.985 53.231 17.3363C52.1817 16.5825 50.9775 16.1743 49.6847 16.0155C49.1574 15.9511 48.6457 15.8612 48.104 15.8772C47.222 15.9027 46.5714 14.8412 46.9335 13.9793C47.3136 13.0733 47.5845 12.1368 47.8963 11.2099C48.2442 10.1727 48.1945 9.16017 48.0505 8.12621C47.9522 7.42149 47.7237 6.75284 47.3577 6.14027L47.3573 6.13754Z" fill="#B8CFE9"/>
</g>
<defs>
<clipPath id="clip0_34_1054">
<rect width="55.9524" height="27.9762" fill="white" transform="translate(0 31.4888) rotate(-34.2482)"/>
</clipPath>
</defs>
</svg>
