<svg width="48" height="48" viewBox="0 0 48 48" fill="none" xmlns="http://www.w3.org/2000/svg">
<path d="M21.6824 17.874V20.628H19.6886V23.994H21.6824V34H25.7809V23.994H28.5303C28.5303 23.994 28.7894 22.38 28.9141 20.614H25.7967V18.314C25.7967 17.968 26.2437 17.506 26.6868 17.506H28.918V14H25.8818C21.5815 14 21.6824 17.37 21.6824 17.874Z"/>
<path d="M12.3956 7.20002C11.3464 7.20002 9.57702 7.64988 8.83512 8.40002C8.09322 9.15017 7.64831 10.9391 7.64831 12V24V36C7.64831 37.0609 8.09322 38.8499 8.83512 39.6C9.57702 40.3502 11.3464 40.8 12.3956 40.8H36.1319C37.1811 40.8 38.9504 40.3502 39.6923 39.6C40.4342 38.8499 40.8791 37.0609 40.8791 36V12C40.8791 10.9391 40.4342 9.15017 39.6923 8.40002C38.9504 7.64988 37.1811 7.20002 36.1319 7.20002H12.3956ZM12.3956 4H36.1319C38.2303 4 40.2428 4.84285 41.7266 6.34315C43.2104 7.84344 44.044 9.87827 44.044 12V36C44.044 38.1217 43.2104 40.1566 41.7266 41.6569C40.2428 43.1571 38.2303 44 36.1319 44H12.3956C10.2972 44 8.28472 43.1571 6.80092 41.6569C5.31711 40.1566 4.48352 38.1217 4.48352 36V12C4.48352 9.87827 5.31711 7.84344 6.80092 6.34315C8.28472 4.84285 10.2972 4 12.3956 4Z"/>
</svg>
