<svg width="794" height="190" viewBox="0 0 794 190" xmlns="http://www.w3.org/2000/svg">
    <path
        d="M448.4 146.383C449.213 146.383 449.823 146.993 449.823 147.807C449.823 147.807 449.823 151.772 449.417 157.161C454.905 153.602 460.799 151.162 466.186 151.162C466.999 151.162 467.71 151.772 467.71 152.585C467.71 153.399 466.999 154.009 466.186 154.009C461.104 154.009 454.905 156.957 449.01 161.024C448.705 163.769 448.299 166.718 447.791 169.565C446.774 174.953 445.25 180.139 442.811 184.002C441.591 185.934 440.067 187.459 438.237 188.476C437.018 189.188 435.696 189.594 434.273 189.594C433.562 189.594 432.749 189.493 431.936 189.188C430.005 188.679 428.48 187.459 427.972 185.832C427.769 185.324 427.769 184.714 427.769 184.104C427.769 182.986 427.972 181.867 428.379 180.545C429.7 176.784 432.647 172.31 436.611 168.04C439.457 164.989 442.709 162.041 446.266 159.397C446.469 156.957 446.673 154.924 446.774 153.094C445.555 154.619 444.132 156.144 442.607 157.771C440.88 159.601 439.152 161.228 437.627 162.549C436.814 163.159 436.103 163.769 435.391 164.176C434.68 164.583 434.172 164.989 433.257 164.888C432.647 164.888 431.834 164.481 431.428 163.973C431.021 163.464 430.818 162.854 430.716 162.346C430.716 162.143 430.615 161.939 430.615 161.634C430.615 160.719 430.92 159.906 431.123 158.787C431.834 156.144 433.257 152.992 435.188 150.349C436.916 148.01 439.355 147.298 441.489 147.298C441.896 147.298 442.302 147.298 442.709 147.298C444.742 147.603 446.164 148.315 446.469 148.518L446.977 147.502C447.079 146.892 447.791 146.383 448.4 146.383ZM441.388 150.044H441.083C439.863 150.044 438.644 150.552 437.526 152.077C435.798 154.415 434.477 157.364 433.867 159.499C433.562 160.516 433.664 161.431 433.664 161.838C433.765 161.838 433.867 161.736 433.969 161.634C434.477 161.329 435.087 160.923 435.798 160.313C437.221 159.092 438.949 157.466 440.575 155.737C442.099 154.11 443.624 152.484 444.742 150.959C444.335 150.755 443.522 150.349 442.302 150.145C441.998 150.145 441.693 150.044 441.388 150.044ZM445.758 163.464C443.217 165.498 440.88 167.836 438.745 170.073C434.985 174.14 432.139 178.41 431.123 181.46C430.818 182.579 430.615 183.494 430.615 184.104C430.615 184.511 430.615 184.714 430.716 184.917C430.92 185.629 431.428 186.137 432.647 186.442C433.257 186.646 433.765 186.747 434.273 186.747C435.29 186.747 436.103 186.442 436.916 185.934C438.136 185.222 439.253 184.104 440.27 182.477C442.302 179.224 443.929 174.242 444.945 169.056C445.351 167.226 445.555 165.294 445.758 163.464Z"
        fill="#1E1E1E" />
    <path
        d="M475.381 148.112H475.584C475.788 148.112 476.093 148.315 476.296 148.417C478.125 149.434 478.633 151.162 479.141 152.382C479.65 153.602 480.056 154.314 481.276 154.721C481.479 154.822 481.682 154.822 481.886 154.822C483.207 154.822 485.443 154.212 487.272 153.399C489.508 152.382 491.134 151.365 491.134 151.365C491.337 151.264 491.744 151.162 491.947 151.162C492.76 151.162 493.37 151.772 493.37 152.585C493.37 152.992 493.065 153.602 492.659 153.805C492.659 153.805 490.829 155.026 488.39 156.042C486.459 156.856 484.223 157.872 482.089 157.872C481.581 157.872 480.971 157.771 480.463 157.567H480.361C478.125 156.856 477.109 154.924 476.499 153.5C475.991 152.28 475.686 151.569 475.178 151.162C474.975 151.365 474.568 151.67 474.162 152.179C473.247 153.297 472.129 155.026 471.113 156.754C468.978 160.313 467.149 164.074 467.149 164.074C466.946 164.481 466.336 164.888 465.828 164.888C465.624 164.888 465.32 164.786 465.116 164.684C464.405 164.278 464.1 163.566 463.897 162.956C463.693 162.346 463.795 161.736 463.795 161.126C463.795 159.906 464.1 158.482 464.405 157.161C465.015 154.517 466.031 152.077 466.031 152.077C466.234 151.569 466.742 151.162 467.352 151.162C468.165 151.162 468.775 151.772 468.775 152.585C468.775 152.687 468.775 152.992 468.673 153.094C468.673 153.094 467.962 155.127 467.352 157.364C467.759 156.652 468.165 156.042 468.572 155.331C469.69 153.5 470.808 151.67 471.926 150.349C472.535 149.637 473.145 149.027 473.755 148.62C474.162 148.315 474.771 148.112 475.381 148.112Z"
        fill="#1E1E1E" />
    <path
        d="M498.464 146.078C500.395 146.078 502.427 147.197 503.749 149.535C504.257 150.552 504.46 151.467 504.46 152.484C504.46 153.704 504.155 155.025 503.647 156.245C503.85 156.347 504.053 156.347 504.257 156.347C505.68 156.347 507.204 156.042 508.627 155.534C512.997 154.212 516.757 151.467 516.757 151.467C516.961 151.263 517.367 151.162 517.672 151.162C518.485 151.162 519.095 151.772 519.095 152.585C519.095 152.992 518.79 153.5 518.485 153.704C518.485 153.704 514.42 156.855 509.44 158.381C507.814 158.889 506.188 159.194 504.562 159.194C503.749 159.194 503.037 159.194 502.326 158.991C500.7 161.634 498.464 163.973 495.618 164.786C494.602 165.091 493.585 165.193 492.671 164.888C491.756 164.583 491.045 164.074 490.638 163.363C489.825 162.244 489.622 160.821 489.622 159.499C489.622 159.194 489.622 158.991 489.622 158.686C489.723 155.432 490.841 152.178 490.841 152.178C491.045 151.568 491.654 151.162 492.264 151.162C493.077 151.162 493.687 151.772 493.687 152.585C493.687 152.687 493.585 152.89 493.585 152.992C493.585 152.992 492.671 156.144 492.569 158.787C492.467 160.109 492.671 161.329 492.976 161.736C493.077 161.939 493.28 162.041 493.484 162.142C493.687 162.244 494.093 162.244 494.805 162.041C496.329 161.634 498.159 160.007 499.48 158.076C497.447 157.059 495.618 155.432 494.297 152.89C493.89 152.178 493.687 151.365 493.687 150.653C493.687 150.043 493.789 149.535 493.992 149.027C494.5 147.908 495.516 146.993 496.634 146.485C497.244 146.281 497.854 146.078 498.464 146.078ZM498.667 148.925H498.565C498.26 148.925 497.956 149.027 497.752 149.128C497.244 149.332 496.939 149.738 496.736 150.145C496.533 150.552 496.533 150.958 496.838 151.568C497.956 153.704 499.277 154.822 500.801 155.534C501.208 154.415 501.411 153.195 501.411 152.28C501.411 151.772 501.309 151.263 501.208 150.958C500.395 149.433 499.48 148.925 498.667 148.925Z"
        fill="#1E1E1E" />
    <path
        d="M523.971 146.078C525.902 146.078 527.934 147.197 529.256 149.535C529.764 150.552 529.967 151.467 529.967 152.484C529.967 153.704 529.662 155.025 529.154 156.245C529.357 156.347 529.561 156.347 529.764 156.347C531.187 156.347 532.711 156.042 534.134 155.534C538.504 154.212 542.265 151.467 542.265 151.467C542.468 151.263 542.874 151.162 543.179 151.162C543.992 151.162 544.602 151.772 544.602 152.585C544.602 152.992 544.297 153.5 543.992 153.704C543.992 153.704 539.927 156.855 534.947 158.381C533.321 158.889 531.695 159.194 530.069 159.194C529.256 159.194 528.544 159.194 527.833 158.991C526.207 161.634 523.971 163.973 521.125 164.786C520.109 165.091 519.092 165.193 518.178 164.888C517.263 164.583 516.552 164.074 516.145 163.363C515.332 162.244 515.129 160.821 515.129 159.499C515.129 159.194 515.129 158.991 515.129 158.686C515.23 155.432 516.348 152.178 516.348 152.178C516.552 151.568 517.161 151.162 517.771 151.162C518.584 151.162 519.194 151.772 519.194 152.585C519.194 152.687 519.092 152.89 519.092 152.992C519.092 152.992 518.178 156.144 518.076 158.787C517.974 160.109 518.178 161.329 518.483 161.736C518.584 161.939 518.788 162.041 518.991 162.142C519.194 162.244 519.601 162.244 520.312 162.041C521.836 161.634 523.666 160.007 524.987 158.076C522.954 157.059 521.125 155.432 519.804 152.89C519.397 152.178 519.194 151.365 519.194 150.653C519.194 150.043 519.296 149.535 519.499 149.027C520.007 147.908 521.023 146.993 522.141 146.485C522.751 146.281 523.361 146.078 523.971 146.078ZM524.174 148.925H524.072C523.768 148.925 523.463 149.027 523.259 149.128C522.751 149.332 522.446 149.738 522.243 150.145C522.04 150.552 522.04 150.958 522.345 151.568C523.463 153.704 524.784 154.822 526.308 155.534C526.715 154.415 526.918 153.195 526.918 152.28C526.918 151.772 526.816 151.263 526.715 150.958C525.902 149.433 524.987 148.925 524.174 148.925Z"
        fill="#1E1E1E" />
    <path
        d="M567.568 148.417H567.671C567.772 148.417 568.077 148.417 568.179 148.519C568.687 148.722 568.992 149.027 569.195 149.434C569.398 149.84 569.5 150.145 569.5 150.45C569.602 151.06 569.499 151.772 569.398 152.382C569.195 153.704 568.789 155.127 568.585 156.653C568.382 157.568 568.381 158.279 568.381 158.991C568.381 159.601 568.382 160.008 568.585 160.414C568.89 161.329 569.195 161.736 570.415 161.94C570.618 162.041 570.821 162.041 571.126 162.041C572.142 162.041 573.362 161.736 574.683 161.024C576.309 160.211 577.935 158.889 579.459 157.466C582.508 154.721 584.745 151.671 584.745 151.671C584.948 151.366 585.456 151.162 585.862 151.162C586.675 151.162 587.286 151.772 587.286 152.586C587.286 152.891 587.184 153.297 586.981 153.501C586.981 153.501 584.643 156.652 581.391 159.601C579.765 161.126 577.935 162.55 576.004 163.566C574.378 164.481 572.752 165.091 571.024 165.091C570.617 165.091 570.211 164.99 569.805 164.888C567.67 164.481 566.349 162.855 565.841 161.228C565.536 160.516 565.434 159.703 565.434 158.991C565.434 158.076 565.536 157.161 565.74 156.246C565.943 154.924 566.146 153.704 566.349 152.687L566.248 152.789C565.231 154.009 563.808 155.839 562.487 157.669C561.166 159.499 559.743 161.329 558.524 162.651C557.914 163.363 557.304 163.973 556.694 164.38C556.39 164.583 556.084 164.786 555.677 164.888C555.271 164.99 554.662 164.888 554.154 164.685C553.442 164.38 552.933 163.77 552.73 163.16C552.527 162.55 552.425 162.041 552.324 161.431C552.222 161.024 552.223 160.618 552.223 160.211C552.223 159.398 552.324 158.483 552.324 157.568C552.324 156.754 552.324 155.839 552.324 155.127C552.324 154.721 552.324 154.314 552.324 154.009C552.324 153.602 552.223 153.399 552.121 153.196C551.918 153.399 551.714 153.704 551.409 154.009C550.596 155.026 549.478 156.653 548.462 158.279C547.445 159.906 546.43 161.634 545.413 162.855C544.905 163.465 544.498 163.973 543.888 164.38C543.583 164.583 543.279 164.786 542.872 164.888C542.466 164.99 541.856 164.99 541.347 164.685C540.636 164.278 540.433 163.566 540.23 162.956C540.027 162.346 540.026 161.736 540.026 161.126C540.026 159.906 540.229 158.584 540.534 157.263C541.144 154.619 541.958 152.179 541.958 152.179C542.161 151.671 542.669 151.162 543.279 151.162C544.092 151.162 544.803 151.772 544.803 152.586C544.803 152.687 544.701 152.992 544.701 153.094C544.701 153.094 543.888 155.432 543.38 157.873C543.075 159.093 542.872 160.313 542.872 161.228V161.329L543.177 161.024C543.99 160.008 545.006 158.279 546.022 156.653C547.039 155.026 548.157 153.399 549.174 152.179C549.682 151.569 550.19 150.959 550.8 150.552C551.41 150.145 552.426 149.84 553.341 150.349C554.662 151.06 555.068 152.484 555.17 153.704C555.272 154.924 555.271 156.347 555.271 157.669C555.271 158.584 555.17 159.398 555.17 160.211C555.17 160.516 555.169 160.821 555.271 161.126C555.271 161.431 555.373 161.533 555.373 161.736C555.677 161.533 555.983 161.126 556.39 160.719C557.507 159.499 558.829 157.771 560.15 155.941C561.471 154.111 562.792 152.382 564.012 150.959C564.622 150.247 565.232 149.637 565.74 149.23C566.045 149.027 566.247 148.824 566.654 148.62C566.857 148.519 567.162 148.417 567.568 148.417Z"
        fill="#1E1E1E" />
    <path
        d="M587.679 141.707C588.492 141.707 589.102 142.317 589.102 143.13C589.102 143.232 589.001 143.537 589.001 143.638L588.188 146.078C587.984 146.689 587.476 147.095 586.866 147.095C586.053 147.095 585.342 146.485 585.342 145.672C585.342 145.57 585.443 145.265 585.443 145.163L586.256 142.723C586.459 142.113 587.07 141.707 587.679 141.707ZM586.256 151.162C587.069 151.162 587.679 151.772 587.679 152.586V152.687C587.577 154.416 587.273 156.042 587.273 157.568C587.273 157.771 587.273 157.974 587.273 158.076C587.374 159.703 587.679 160.821 589.001 161.533C589.509 161.939 590.322 162.041 591.237 162.041C592.05 162.041 593.066 161.939 594.082 161.533C596.216 160.821 598.757 159.499 600.993 157.974C605.566 155.026 609.225 151.569 609.225 151.569C609.429 151.365 609.936 151.162 610.241 151.162C611.054 151.162 611.665 151.772 611.665 152.586C611.665 152.992 611.562 153.501 611.257 153.704C611.257 153.704 607.294 157.262 602.517 160.414C600.078 161.939 597.538 163.465 594.997 164.278C593.676 164.786 592.354 164.99 591.033 164.99C589.711 164.99 588.492 164.786 587.476 164.075C585.138 162.753 584.427 160.313 584.326 158.178C584.326 157.974 584.326 157.771 584.326 157.568C584.326 155.636 584.63 153.907 584.732 152.484C584.732 151.671 585.443 151.162 586.256 151.162Z"
        fill="#1E1E1E" />
    <path
        d="M620.736 148.315H620.939C621.244 148.315 621.549 148.519 621.752 148.62C622.565 149.027 622.87 149.739 623.073 150.349C623.277 150.959 623.378 151.671 623.48 152.382C623.582 153.806 623.582 155.534 623.683 157.059C623.785 158.584 623.886 160.109 624.191 161.025C624.395 161.431 624.496 161.736 624.598 161.838C624.7 161.94 624.801 161.94 625.106 161.94C627.139 161.94 630.289 159.703 632.728 157.059C635.168 154.416 636.794 151.772 636.794 151.772C636.998 151.366 637.607 151.162 638.014 151.162C638.827 151.162 639.538 151.772 639.538 152.586C639.538 152.789 639.335 153.196 639.233 153.399C639.233 153.399 637.506 156.144 634.863 158.991C632.22 161.838 628.866 164.888 625.106 164.888C624.191 164.888 623.277 164.481 622.667 163.973C622.057 163.465 621.752 162.651 621.447 161.94C620.939 160.516 620.837 158.788 620.736 157.161C620.634 155.534 620.736 153.907 620.634 152.687C620.634 152.281 620.533 151.874 620.431 151.569C620.228 151.772 619.923 152.077 619.618 152.484C618.703 153.704 617.484 155.534 616.366 157.364C615.248 159.194 614.028 161.126 613.012 162.55C612.504 163.261 611.995 163.77 611.386 164.278C611.081 164.481 610.776 164.786 610.369 164.888C609.963 164.99 609.251 164.99 608.743 164.685C608.032 164.278 607.829 163.668 607.625 163.058C607.422 162.448 607.32 161.838 607.32 161.228C607.32 160.008 607.625 158.584 607.829 157.263C608.337 154.619 609.048 152.179 609.048 152.179C609.251 151.569 609.861 151.162 610.471 151.162C611.284 151.162 611.894 151.772 611.894 152.586C611.894 152.687 611.792 152.891 611.792 152.992C611.792 152.992 611.182 155.331 610.674 157.771C610.471 158.991 610.268 160.313 610.268 161.228V161.33C610.369 161.126 610.573 161.025 610.674 160.821C611.589 159.601 612.809 157.669 613.926 155.839C615.044 154.009 616.264 152.077 617.382 150.654C617.992 149.942 618.5 149.332 619.11 148.925C619.415 148.722 619.821 148.519 620.228 148.417C620.431 148.417 620.533 148.315 620.736 148.315Z"
        fill="#1E1E1E" />
    <path
        d="M651.169 146.383C651.982 146.383 652.592 146.993 652.592 147.807C652.592 147.807 652.592 151.772 652.185 157.161C657.673 153.602 663.568 151.162 668.955 151.162C669.768 151.162 670.479 151.772 670.479 152.585C670.479 153.399 669.768 154.009 668.955 154.009C663.873 154.009 657.673 156.957 651.779 161.024C651.474 163.769 651.067 166.718 650.559 169.565C649.543 174.953 648.018 180.139 645.579 184.002C644.36 185.934 642.835 187.459 641.006 188.476C639.786 189.188 638.465 189.594 637.042 189.594C636.331 189.594 635.518 189.493 634.704 189.188C632.773 188.679 631.248 187.459 630.74 185.832C630.537 185.324 630.537 184.714 630.537 184.104C630.537 182.986 630.74 181.867 631.147 180.545C632.468 176.784 635.416 172.31 639.38 168.04C642.225 164.989 645.478 162.041 649.035 159.397C649.238 156.957 649.441 154.924 649.543 153.094C648.323 154.619 646.9 156.144 645.376 157.771C643.648 159.601 641.92 161.228 640.396 162.549C639.583 163.159 638.871 163.769 638.16 164.176C637.449 164.583 636.94 164.989 636.026 164.888C635.416 164.888 634.602 164.481 634.196 163.973C633.789 163.464 633.586 162.854 633.484 162.346C633.484 162.143 633.383 161.939 633.383 161.634C633.383 160.719 633.688 159.906 633.891 158.787C634.602 156.144 636.026 152.992 637.957 150.349C639.685 148.01 642.124 147.298 644.258 147.298C644.664 147.298 645.071 147.298 645.478 147.298C647.51 147.603 648.933 148.315 649.238 148.518L649.746 147.502C649.848 146.892 650.559 146.383 651.169 146.383ZM644.156 150.044H643.851C642.632 150.044 641.412 150.552 640.294 152.077C638.567 154.415 637.245 157.364 636.636 159.499C636.331 160.516 636.432 161.431 636.432 161.838C636.534 161.838 636.636 161.736 636.737 161.634C637.245 161.329 637.855 160.923 638.567 160.313C639.989 159.092 641.717 157.466 643.343 155.737C644.868 154.11 646.392 152.484 647.51 150.959C647.104 150.755 646.291 150.349 645.071 150.145C644.766 150.145 644.461 150.044 644.156 150.044ZM648.526 163.464C645.986 165.498 643.648 167.836 641.514 170.073C637.753 174.14 634.907 178.41 633.891 181.46C633.586 182.579 633.383 183.494 633.383 184.104C633.383 184.511 633.383 184.714 633.484 184.917C633.688 185.629 634.196 186.137 635.416 186.442C636.026 186.646 636.534 186.747 637.042 186.747C638.058 186.747 638.871 186.442 639.685 185.934C640.904 185.222 642.022 184.104 643.038 182.477C645.071 179.224 646.697 174.242 647.713 169.056C648.12 167.226 648.323 165.294 648.526 163.464Z"
        fill="#1E1E1E" />
    <path
        d="M0 125.17C0 125.17 14.9651 127.243 25.1137 126.206C35.7785 123.96 37.8426 117.568 39.0467 107.375C40.0788 97.7009 40.0788 86.9896 40.0788 86.9896H72.5887C72.5887 86.9896 73.7931 94.4181 74.8253 106.166C74.8253 117.568 74.8253 126.206 74.8253 126.206C86.3497 126.206 103.207 130.525 110.604 121.887C117.828 113.594 113.7 91.3082 113.7 67.1221C114.904 42.7626 117.828 15.1208 113.7 6.82815C107.335 -2.84602 88.4141 1.47253 74.8253 1.47253C74.8253 1.47253 75.8575 7.86457 74.8253 13.2202C74.8253 20.4765 73.7931 51.0552 73.7931 51.0552H40.0788C40.0788 51.0552 40.0788 18.403 39.0467 10.9745C36.8105 3.54602 33.7143 1.47253 24.0816 1.47253C15.9971 1.47253 0 3.54602 0 3.54602C0 3.54602 1.03207 38.4434 1.03207 67.1221C1.03207 95.6274 0 125.17 0 125.17Z"
        fill="#FF6C24" />
    <path
        d="M185.449 0.609242C152.079 -0.427186 126.105 29.9787 125.073 64.531C123.008 98.9104 148.982 126.034 182.353 128.279C216.755 130.18 248.922 98.9104 246.857 64.531C244.793 26.696 225.012 0.609242 185.449 0.609242ZM184.245 89.4084C169.796 89.4084 160.507 78.0058 161.368 64.531C162.571 51.9191 169.796 39.3078 184.245 39.3078C200.93 39.3078 207.294 50.8827 207.294 64.531C207.294 79.0429 200.07 89.4084 184.245 89.4084Z"
        fill="#FF6C24" />
    <path
        d="M248.498 2.50909C245.402 15.9846 246.434 28.2507 249.358 32.3971C254.69 40.5169 285.653 39.6527 285.653 39.6527C288.405 52.0918 284.448 123.096 284.448 123.096C292.877 124.133 318.163 134.499 325.215 113.94C329.516 99.2553 328.483 37.5799 328.483 37.5799C342.76 36.5434 349.985 37.5799 360.306 31.3607C371.659 24.1044 364.434 1.47266 364.434 1.47266C364.434 1.47266 336.568 4.58258 300.618 3.71899C282.212 2.50909 248.498 2.50909 248.498 2.50909Z"
        fill="#FF6C24" />
    <path
        d="M541.362 58.3113C539.125 22.5497 520.032 1.3001 481.33 0.263672C446.755 0.263672 427.662 9.5928 427.662 9.5928C427.662 9.5928 428.522 54.1649 427.662 71.9596C426.458 88.0265 426.458 119.814 426.458 119.814C426.458 119.814 435.919 128.107 480.125 128.107C521.236 129.144 542.222 100.638 541.362 58.3113ZM493.886 86.8172C483.566 93.3821 463.269 88.0265 463.269 88.0265C463.269 88.0265 463.269 67.9861 463.269 61.4212C463.269 55.202 464.472 39.3079 464.472 39.3079C467.569 38.2709 486.662 34.1252 496.982 42.5901C507.647 51.0556 505.239 79.3881 493.886 86.8172Z"
        fill="#FF6C24" />
    <path
        d="M606.576 0.609242C573.205 -0.427186 547.232 29.9787 546.2 64.531C544.135 98.9104 570.109 126.034 603.479 128.279C637.881 130.18 670.047 98.9104 667.983 64.531C665.918 26.696 646.138 0.609242 606.576 0.609242ZM605.372 89.4084C590.923 89.4084 581.634 78.0058 582.494 64.531C583.698 51.9191 590.923 39.3078 605.372 39.3078C622.057 39.3078 628.421 50.8827 628.421 64.531C628.421 79.0429 621.197 89.4084 605.372 89.4084Z"
        fill="#FF6C24" />
    <path
        d="M769.735 57.7936C757.355 59.0028 738.947 59.8664 738.947 59.8664C738.947 59.8664 735.854 72.3055 738.947 77.3154C742.047 84.571 761.484 82.671 761.484 82.671C760.62 91.8273 755.291 94.9372 748.234 95.9736C737.054 98.0465 728.625 95.9736 724.496 91.8273C715.381 84.571 712.288 78.5247 713.488 63.1492C714.524 48.6373 719.51 40.3446 729.832 37.2346C737.054 35.1618 745.14 35.1618 751.162 39.481C757.355 43.2817 762.513 41.381 767.677 38.2711C776.964 34.1254 787.114 26.8691 787.114 26.8691C774.9 4.23737 757.355 -0.772572 735.854 0.0910119C706.266 1.12744 679.607 22.8956 677.542 61.9399C675.307 99.9472 692.851 127.935 732.926 127.935C759.591 127.935 771.8 121.715 781.95 109.449C792.272 96.8372 795.366 72.3055 793.479 59.0028C793.479 59.0028 781.95 57.7936 769.735 57.7936Z"
        fill="#FF6C24" />
</svg>