<svg viewBox="0 0 336 98" fill="none" xmlns="http://www.w3.org/2000/svg">
<path class="paw-1" d="M41.4211 15.7878C41.4998 14.3755 41.0142 12.9898 40.0712 11.9355C39.1281 10.8813 37.8049 10.2448 36.3926 10.1661L33.7301 10.0178C32.3178 9.93916 30.9321 10.4248 29.8778 11.3678C28.8235 12.3108 28.1871 13.634 28.1084 15.0463C28.0297 16.4586 28.5153 17.8443 29.4584 18.8986C30.4014 19.9528 31.7246 20.5893 33.1369 20.668L35.7994 20.8163C37.2117 20.8949 38.5974 20.4094 39.6517 19.4663C40.706 18.5233 41.3424 17.2001 41.4211 15.7878ZM40.6796 29.1005C40.7583 27.6882 40.2727 26.3025 39.3297 25.2482C38.3866 24.194 37.0634 23.5575 35.6511 23.4788L32.9886 23.3305C31.5763 23.2519 30.1906 23.7375 29.1363 24.6805C28.0821 25.6235 27.4456 26.9467 27.3669 28.359C27.2883 29.7713 27.7738 31.157 28.7169 32.2113C29.6599 33.2655 30.9831 33.902 32.3954 33.9807L35.0579 34.129C36.4702 34.2076 37.8559 33.722 38.9102 32.779C39.9645 31.836 40.601 30.5128 40.6796 29.1005ZM28.5533 7.05869C28.632 5.64639 28.1464 4.26068 27.2033 3.20642C26.2603 2.15215 24.9371 1.51567 23.5248 1.43701L22.1935 1.36286C20.7812 1.2842 19.3955 1.76979 18.3413 2.71282C17.287 3.65584 16.6505 4.97905 16.5719 6.39135C16.4932 7.80364 16.9788 9.18935 17.9218 10.2436C18.8649 11.2979 20.1881 11.9344 21.6004 12.013L22.9316 12.0872C24.3439 12.1658 25.7296 11.6802 26.7839 10.7372C27.8382 9.79419 28.4746 8.47099 28.5533 7.05869ZM26.922 36.3466C27.0007 34.9343 26.5151 33.5486 25.5721 32.4944C24.629 31.4401 23.3058 30.8036 21.8935 30.725L20.5623 30.6508C19.15 30.5721 17.7643 31.0577 16.71 32.0008C15.6557 32.9438 15.0193 34.267 14.9406 35.6793C14.8619 37.0916 15.3475 38.4773 16.2905 39.5316C17.2336 40.5858 18.5568 41.2223 19.9691 41.301L21.3003 41.3751C22.7126 41.4538 24.0983 40.9682 25.1526 40.0252C26.2069 39.0821 26.8434 37.7589 26.922 36.3466ZM20.0251 26.9165C20.8936 26.2791 21.6102 25.4573 22.1235 24.5102C22.6368 23.5631 22.934 22.514 22.9939 21.4384C23.0538 20.3628 22.8749 19.2873 22.47 18.289C22.065 17.2908 21.4441 16.3945 20.6518 15.6646L11.651 7.37254C7.92437 3.93598 1.88267 6.38778 1.6009 11.4466C1.56057 12.1708 1.68856 12.8937 1.97751 13.5561L2.40337 14.5414C3.19422 16.3708 3.54825 18.3592 3.43742 20.3492C3.32658 22.3391 2.75392 24.276 1.7648 26.0063L1.23216 26.9381C0.871441 27.5643 0.663956 28.2685 0.623618 28.9927C0.341852 34.0516 6.07391 37.1592 10.159 34.1604L20.0251 26.9165Z" fill="#F7D6F3"/>
<path class="paw-2" d="M90.4043 71.0949C90.4829 69.6826 89.9973 68.2969 89.0543 67.2427C88.1113 66.1884 86.7881 65.5519 85.3758 65.4733L82.7132 65.325C81.3009 65.2463 79.9152 65.7319 78.861 66.6749C77.8067 67.6179 77.1702 68.9411 77.0916 70.3534C77.0129 71.7657 77.4985 73.1514 78.4415 74.2057C79.3845 75.26 80.7077 75.8965 82.12 75.9751L84.7826 76.1234C86.1949 76.2021 87.5806 75.7165 88.6349 74.7735C89.6891 73.8304 90.3256 72.5072 90.4043 71.0949ZM89.6628 84.4076C89.7414 82.9953 89.2558 81.6096 88.3128 80.5554C87.3698 79.5011 86.0466 78.8646 84.6343 78.786L81.9717 78.6377C80.5594 78.559 79.1737 79.0446 78.1195 79.9876C77.0652 80.9306 76.4287 82.2538 76.3501 83.6661C76.2714 85.0784 76.757 86.4641 77.7 87.5184C78.643 88.5727 79.9663 89.2092 81.3786 89.2878L84.0411 89.4361C85.4534 89.5148 86.8391 89.0292 87.8934 88.0862C88.9476 87.1431 89.5841 85.8199 89.6628 84.4076ZM77.5365 62.3658C77.6151 60.9535 77.1295 59.5678 76.1865 58.5135C75.2435 57.4593 73.9203 56.8228 72.508 56.7441L71.1767 56.67C69.7644 56.5913 68.3787 57.0769 67.3244 58.0199C66.2702 58.963 65.6337 60.2862 65.555 61.6985C65.4764 63.1108 65.962 64.4965 66.905 65.5507C67.848 66.605 69.1712 67.2415 70.5835 67.3202L71.9148 67.3943C73.3271 67.473 74.7128 66.9874 75.7671 66.0443C76.8213 65.1013 77.4578 63.7781 77.5365 62.3658ZM75.9052 91.6538C75.9838 90.2415 75.4982 88.8558 74.5552 87.8015C73.6122 86.7472 72.289 86.1107 70.8767 86.0321L69.5454 85.9579C68.1331 85.8793 66.7474 86.3649 65.6932 87.3079C64.6389 88.2509 64.0024 89.5741 63.9237 90.9864C63.8451 92.3987 64.3307 93.7844 65.2737 94.8387C66.2167 95.893 67.5399 96.5294 68.9522 96.6081L70.2835 96.6822C71.6958 96.7609 73.0815 96.2753 74.1358 95.3323C75.19 94.3893 75.8265 93.0661 75.9052 91.6538ZM69.0083 82.2236C69.8767 81.5862 70.5933 80.7644 71.1066 79.8173C71.6199 78.8702 71.9172 77.8212 71.9771 76.7456C72.037 75.67 71.8581 74.5944 71.4531 73.5962C71.0482 72.5979 70.4273 71.7016 69.635 70.9717L60.6342 62.6797C56.9075 59.2431 50.8658 61.6949 50.5841 66.7537C50.5437 67.4779 50.6717 68.2008 50.9607 68.8633L51.3865 69.8485C52.1774 71.6779 52.5314 73.6663 52.4206 75.6563C52.3097 77.6463 51.7371 79.5831 50.748 81.3134L50.2153 82.2452C49.8546 82.8714 49.6471 83.5757 49.6068 84.2999C49.325 89.3587 55.0571 92.4663 59.1422 89.4675L69.0083 82.2236Z" fill="#F7D6F3"/>
<path class="paw-3" d="M138.744 15.5373C138.823 14.125 138.337 12.7393 137.394 11.685C136.451 10.6308 135.128 9.9943 133.716 9.91563L131.053 9.76734C129.641 9.68867 128.255 10.1743 127.201 11.1173C126.147 12.0603 125.51 13.3835 125.432 14.7958C125.353 16.2081 125.839 17.5938 126.782 18.6481C127.725 19.7024 129.048 20.3388 130.46 20.4175L133.123 20.5658C134.535 20.6445 135.921 20.1589 136.975 19.2158C138.029 18.2728 138.666 16.9496 138.744 15.5373ZM138.003 28.85C138.082 27.4377 137.596 26.052 136.653 24.9977C135.71 23.9435 134.387 23.307 132.974 23.2283L130.312 23.08C128.9 23.0014 127.514 23.487 126.46 24.43C125.405 25.373 124.769 26.6962 124.69 28.1085C124.611 29.5208 125.097 30.9065 126.04 31.9608C126.983 33.0151 128.306 33.6515 129.719 33.7302L132.381 33.8785C133.793 33.9572 135.179 33.4716 136.233 32.5285C137.288 31.5855 137.924 30.2623 138.003 28.85ZM125.877 6.8082C125.955 5.3959 125.47 4.0102 124.527 2.95593C123.584 1.90166 122.26 1.26518 120.848 1.18652L119.517 1.11237C118.104 1.03371 116.719 1.5193 115.665 2.46233C114.61 3.40535 113.974 4.72856 113.895 6.14086C113.816 7.55316 114.302 8.93886 115.245 9.99313C116.188 11.0474 117.511 11.6839 118.924 11.7625L120.255 11.8367C121.667 11.9153 123.053 11.4298 124.107 10.4867C125.161 9.5437 125.798 8.2205 125.877 6.8082ZM124.245 36.0961C124.324 34.6838 123.838 33.2981 122.895 32.2439C121.952 31.1896 120.629 30.5531 119.217 30.4745L117.886 30.4003C116.473 30.3217 115.088 30.8072 114.033 31.7503C112.979 32.6933 112.342 34.0165 112.264 35.4288C112.185 36.8411 112.671 38.2268 113.614 39.2811C114.557 40.3353 115.88 40.9718 117.292 41.0505L118.624 41.1246C120.036 41.2033 121.422 40.7177 122.476 39.7747C123.53 38.8316 124.167 37.5084 124.245 36.0961ZM117.348 26.666C118.217 26.0286 118.933 25.2068 119.447 24.2597C119.96 23.3126 120.257 22.2636 120.317 21.188C120.377 20.1123 120.198 19.0368 119.793 18.0385C119.388 17.0403 118.767 16.144 117.975 15.4141L108.974 7.12205C105.248 3.68549 99.2059 6.13729 98.9241 11.1961C98.8838 11.9203 99.0118 12.6432 99.3007 13.3057L99.7266 14.2909C100.517 16.1203 100.871 18.1087 100.761 20.0987C100.65 22.0887 100.077 24.0255 99.088 25.7558L98.5554 26.6876C98.1947 27.3138 97.9872 28.018 97.9469 28.7423C97.6651 33.8011 103.397 36.9087 107.482 33.9099L117.348 26.666Z" fill="#F7D6F3"/>
<path class="paw-4" d="M187.404 71.0949C187.483 69.6826 186.997 68.2969 186.054 67.2427C185.111 66.1884 183.788 65.5519 182.376 65.4733L179.713 65.325C178.301 65.2463 176.915 65.7319 175.861 66.6749C174.807 67.6179 174.17 68.9411 174.092 70.3534C174.013 71.7657 174.498 73.1514 175.442 74.2057C176.385 75.26 177.708 75.8965 179.12 75.9751L181.783 76.1234C183.195 76.2021 184.581 75.7165 185.635 74.7735C186.689 73.8304 187.326 72.5072 187.404 71.0949ZM186.663 84.4076C186.741 82.9953 186.256 81.6096 185.313 80.5554C184.37 79.5011 183.047 78.8646 181.634 78.786L178.972 78.6377C177.559 78.559 176.174 79.0446 175.119 79.9876C174.065 80.9306 173.429 82.2538 173.35 83.6661C173.271 85.0784 173.757 86.4641 174.7 87.5184C175.643 88.5727 176.966 89.2092 178.379 89.2878L181.041 89.4361C182.453 89.5148 183.839 89.0292 184.893 88.0862C185.948 87.1431 186.584 85.8199 186.663 84.4076ZM174.536 62.3658C174.615 60.9535 174.13 59.5678 173.187 58.5135C172.243 57.4593 170.92 56.8228 169.508 56.7441L168.177 56.67C166.764 56.5913 165.379 57.0769 164.324 58.0199C163.27 58.963 162.634 60.2862 162.555 61.6985C162.476 63.1108 162.962 64.4965 163.905 65.5507C164.848 66.605 166.171 67.2415 167.584 67.3202L168.915 67.3943C170.327 67.473 171.713 66.9874 172.767 66.0443C173.821 65.1013 174.458 63.7781 174.536 62.3658ZM172.905 91.6538C172.984 90.2415 172.498 88.8558 171.555 87.8015C170.612 86.7472 169.289 86.1107 167.877 86.0321L166.545 85.9579C165.133 85.8793 163.747 86.3649 162.693 87.3079C161.639 88.2509 161.002 89.5741 160.924 90.9864C160.845 92.3987 161.331 93.7844 162.274 94.8387C163.217 95.893 164.54 96.5294 165.952 96.6081L167.283 96.6822C168.696 96.7609 170.082 96.2753 171.136 95.3323C172.19 94.3893 172.827 93.0661 172.905 91.6538ZM166.008 82.2236C166.877 81.5862 167.593 80.7644 168.107 79.8173C168.62 78.8702 168.917 77.8212 168.977 76.7456C169.037 75.67 168.858 74.5944 168.453 73.5962C168.048 72.5979 167.427 71.7016 166.635 70.9717L157.634 62.6797C153.908 59.2431 147.866 61.6949 147.584 66.7537C147.544 67.4779 147.672 68.2008 147.961 68.8633L148.387 69.8485C149.177 71.6779 149.531 73.6663 149.421 75.6563C149.31 77.6463 148.737 79.5831 147.748 81.3134L147.215 82.2452C146.855 82.8714 146.647 83.5757 146.607 84.2999C146.325 89.3587 152.057 92.4663 156.142 89.4675L166.008 82.2236Z" fill="#F7D6F3"/>
<path class="paw-5" d="M236.404 16.0949C236.483 14.6826 235.997 13.2969 235.054 12.2427C234.111 11.1884 232.788 10.5519 231.376 10.4733L228.713 10.325C227.301 10.2463 225.915 10.7319 224.861 11.6749C223.807 12.6179 223.17 13.9411 223.092 15.3534C223.013 16.7657 223.498 18.1514 224.442 19.2057C225.385 20.26 226.708 20.8965 228.12 20.9751L230.783 21.1234C232.195 21.2021 233.581 20.7165 234.635 19.7735C235.689 18.8304 236.326 17.5072 236.404 16.0949ZM235.663 29.4076C235.741 27.9953 235.256 26.6096 234.313 25.5554C233.37 24.5011 232.047 23.8646 230.634 23.786L227.972 23.6377C226.559 23.559 225.174 24.0446 224.119 24.9876C223.065 25.9306 222.429 27.2538 222.35 28.6661C222.271 30.0784 222.757 31.4641 223.7 32.5184C224.643 33.5727 225.966 34.2092 227.379 34.2878L230.041 34.4361C231.453 34.5148 232.839 34.0292 233.893 33.0862C234.948 32.1431 235.584 30.8199 235.663 29.4076ZM223.536 7.36582C223.615 5.95352 223.13 4.56781 222.187 3.51354C221.243 2.45928 219.92 1.8228 218.508 1.74414L217.177 1.66999C215.764 1.59133 214.379 2.07692 213.324 3.01995C212.27 3.96297 211.634 5.28618 211.555 6.69847C211.476 8.11077 211.962 9.49648 212.905 10.5507C213.848 11.605 215.171 12.2415 216.584 12.3202L217.915 12.3943C219.327 12.473 220.713 11.9874 221.767 11.0443C222.821 10.1013 223.458 8.77811 223.536 7.36582ZM221.905 36.6538C221.984 35.2415 221.498 33.8558 220.555 32.8015C219.612 31.7472 218.289 31.1107 216.877 31.0321L215.545 30.9579C214.133 30.8793 212.747 31.3649 211.693 32.3079C210.639 33.2509 210.002 34.5741 209.924 35.9864C209.845 37.3987 210.331 38.7844 211.274 39.8387C212.217 40.893 213.54 41.5294 214.952 41.6081L216.283 41.6822C217.696 41.7609 219.082 41.2753 220.136 40.3323C221.19 39.3893 221.827 38.0661 221.905 36.6538ZM215.008 27.2236C215.877 26.5862 216.593 25.7644 217.107 24.8173C217.62 23.8702 217.917 22.8212 217.977 21.7456C218.037 20.67 217.858 19.5944 217.453 18.5962C217.048 17.5979 216.427 16.7016 215.635 15.9717L206.634 7.67967C202.908 4.2431 196.866 6.69491 196.584 11.7537C196.544 12.4779 196.672 13.2008 196.961 13.8633L197.387 14.8485C198.177 16.6779 198.531 18.6663 198.421 20.6563C198.31 22.6463 197.737 24.5831 196.748 26.3134L196.215 27.2452C195.855 27.8714 195.647 28.5757 195.607 29.2999C195.325 34.3587 201.057 37.4663 205.142 34.4675L215.008 27.2236Z" fill="#F7D6F3"/>
<path class="paw-6" d="M285.404 71.0949C285.483 69.6826 284.997 68.2969 284.054 67.2427C283.111 66.1884 281.788 65.5519 280.376 65.4733L277.713 65.325C276.301 65.2463 274.915 65.7319 273.861 66.6749C272.807 67.6179 272.17 68.9411 272.092 70.3534C272.013 71.7657 272.498 73.1514 273.442 74.2057C274.385 75.26 275.708 75.8965 277.12 75.9751L279.783 76.1234C281.195 76.2021 282.581 75.7165 283.635 74.7735C284.689 73.8304 285.326 72.5072 285.404 71.0949ZM284.663 84.4076C284.741 82.9953 284.256 81.6096 283.313 80.5554C282.37 79.5011 281.047 78.8646 279.634 78.786L276.972 78.6377C275.559 78.559 274.174 79.0446 273.119 79.9876C272.065 80.9306 271.429 82.2538 271.35 83.6661C271.271 85.0784 271.757 86.4641 272.7 87.5184C273.643 88.5727 274.966 89.2092 276.379 89.2878L279.041 89.4361C280.453 89.5148 281.839 89.0292 282.893 88.0862C283.948 87.1431 284.584 85.8199 284.663 84.4076ZM272.536 62.3658C272.615 60.9535 272.13 59.5678 271.187 58.5135C270.243 57.4593 268.92 56.8228 267.508 56.7441L266.177 56.67C264.764 56.5913 263.379 57.0769 262.324 58.0199C261.27 58.963 260.634 60.2862 260.555 61.6985C260.476 63.1108 260.962 64.4965 261.905 65.5507C262.848 66.605 264.171 67.2415 265.584 67.3202L266.915 67.3943C268.327 67.473 269.713 66.9874 270.767 66.0443C271.821 65.1013 272.458 63.7781 272.536 62.3658ZM270.905 91.6538C270.984 90.2415 270.498 88.8558 269.555 87.8015C268.612 86.7472 267.289 86.1107 265.877 86.0321L264.545 85.9579C263.133 85.8793 261.747 86.3649 260.693 87.3079C259.639 88.2509 259.002 89.5741 258.924 90.9864C258.845 92.3987 259.331 93.7844 260.274 94.8387C261.217 95.893 262.54 96.5294 263.952 96.6081L265.283 96.6822C266.696 96.7609 268.082 96.2753 269.136 95.3323C270.19 94.3893 270.827 93.0661 270.905 91.6538ZM264.008 82.2236C264.877 81.5862 265.593 80.7644 266.107 79.8173C266.62 78.8702 266.917 77.8212 266.977 76.7456C267.037 75.67 266.858 74.5944 266.453 73.5962C266.048 72.5979 265.427 71.7016 264.635 70.9717L255.634 62.6797C251.908 59.2431 245.866 61.6949 245.584 66.7537C245.544 67.4779 245.672 68.2008 245.961 68.8633L246.387 69.8485C247.177 71.6779 247.531 73.6663 247.421 75.6563C247.31 77.6463 246.737 79.5831 245.748 81.3134L245.215 82.2452C244.855 82.8714 244.647 83.5757 244.607 84.2999C244.325 89.3587 250.057 92.4663 254.142 89.4675L264.008 82.2236Z" fill="#F7D6F3"/>
<path class="paw-7" d="M334.404 18.0949C334.483 16.6826 333.997 15.2969 333.054 14.2427C332.111 13.1884 330.788 12.5519 329.376 12.4733L326.713 12.325C325.301 12.2463 323.915 12.7319 322.861 13.6749C321.807 14.6179 321.17 15.9411 321.092 17.3534C321.013 18.7657 321.498 20.1514 322.442 21.2057C323.385 22.26 324.708 22.8965 326.12 22.9751L328.783 23.1234C330.195 23.2021 331.581 22.7165 332.635 21.7735C333.689 20.8304 334.326 19.5072 334.404 18.0949ZM333.663 31.4076C333.741 29.9953 333.256 28.6096 332.313 27.5554C331.37 26.5011 330.047 25.8646 328.634 25.786L325.972 25.6377C324.559 25.559 323.174 26.0446 322.119 26.9876C321.065 27.9306 320.429 29.2538 320.35 30.6661C320.271 32.0784 320.757 33.4641 321.7 34.5184C322.643 35.5727 323.966 36.2092 325.379 36.2878L328.041 36.4361C329.453 36.5148 330.839 36.0292 331.893 35.0862C332.948 34.1431 333.584 32.8199 333.663 31.4076ZM321.536 9.36582C321.615 7.95352 321.13 6.56781 320.187 5.51354C319.243 4.45928 317.92 3.8228 316.508 3.74414L315.177 3.66999C313.764 3.59133 312.379 4.07692 311.324 5.01995C310.27 5.96297 309.634 7.28618 309.555 8.69847C309.476 10.1108 309.962 11.4965 310.905 12.5507C311.848 13.605 313.171 14.2415 314.584 14.3202L315.915 14.3943C317.327 14.473 318.713 13.9874 319.767 13.0443C320.821 12.1013 321.458 10.7781 321.536 9.36582ZM319.905 38.6538C319.984 37.2415 319.498 35.8558 318.555 34.8015C317.612 33.7472 316.289 33.1107 314.877 33.0321L313.545 32.9579C312.133 32.8793 310.747 33.3649 309.693 34.3079C308.639 35.2509 308.002 36.5741 307.924 37.9864C307.845 39.3987 308.331 40.7844 309.274 41.8387C310.217 42.893 311.54 43.5294 312.952 43.6081L314.283 43.6822C315.696 43.7609 317.082 43.2753 318.136 42.3323C319.19 41.3893 319.827 40.0661 319.905 38.6538ZM313.008 29.2236C313.877 28.5862 314.593 27.7644 315.107 26.8173C315.62 25.8702 315.917 24.8212 315.977 23.7456C316.037 22.67 315.858 21.5944 315.453 20.5962C315.048 19.5979 314.427 18.7016 313.635 17.9717L304.634 9.67967C300.908 6.2431 294.866 8.69491 294.584 13.7537C294.544 14.4779 294.672 15.2008 294.961 15.8633L295.387 16.8485C296.177 18.6779 296.531 20.6663 296.421 22.6563C296.31 24.6463 295.737 26.5831 294.748 28.3134L294.215 29.2452C293.855 29.8714 293.647 30.5757 293.607 31.2999C293.325 36.3587 299.057 39.4663 303.142 36.4675L313.008 29.2236Z" fill="#F7D6F3"/>
</svg>
