<svg width="40" height="40" viewBox="0 0 40 40" fill="none" xmlns="http://www.w3.org/2000/svg">
    <g clip-path="url(#clip0_7_322)">
        <path
            d="M13.3333 0C11.9188 0 10.5623 0.561903 9.5621 1.5621C8.5619 2.56229 8 3.91885 8 5.33333V8C8 9.41449 8.5619 10.771 9.5621 11.7712C10.5623 12.7714 11.9188 13.3333 13.3333 13.3333C14.7478 13.3333 16.1044 12.7714 17.1046 11.7712C18.1048 10.771 18.6667 9.41449 18.6667 8V5.33333C18.6667 3.91885 18.1048 2.56229 17.1046 1.5621C16.1044 0.561903 14.7478 0 13.3333 0ZM26.6667 0C25.2522 0 23.8956 0.561903 22.8954 1.5621C21.8952 2.56229 21.3333 3.91885 21.3333 5.33333V8C21.3333 9.41449 21.8952 10.771 22.8954 11.7712C23.8956 12.7714 25.2522 13.3333 26.6667 13.3333C28.0812 13.3333 29.4377 12.7714 30.4379 11.7712C31.4381 10.771 32 9.41449 32 8V5.33333C32 3.91885 31.4381 2.56229 30.4379 1.5621C29.4377 0.561903 28.0812 0 26.6667 0ZM5.33333 13.3333C3.91885 13.3333 2.56229 13.8952 1.5621 14.8954C0.561903 15.8956 0 17.2522 0 18.6667L0 20C0 21.4145 0.561903 22.771 1.5621 23.7712C2.56229 24.7714 3.91885 25.3333 5.33333 25.3333C6.74782 25.3333 8.10438 24.7714 9.10457 23.7712C10.1048 22.771 10.6667 21.4145 10.6667 20V18.6667C10.6667 17.2522 10.1048 15.8956 9.10457 14.8954C8.10438 13.8952 6.74782 13.3333 5.33333 13.3333ZM34.6667 13.3333C33.2522 13.3333 31.8956 13.8952 30.8954 14.8954C29.8952 15.8956 29.3333 17.2522 29.3333 18.6667V20C29.3333 21.4145 29.8952 22.771 30.8954 23.7712C31.8956 24.7714 33.2522 25.3333 34.6667 25.3333C36.0812 25.3333 37.4377 24.7714 38.4379 23.7712C39.4381 22.771 40 21.4145 40 20V18.6667C40 17.2522 39.4381 15.8956 38.4379 14.8954C37.4377 13.8952 36.0812 13.3333 34.6667 13.3333ZM25.6347 20.744C24.9499 19.9123 24.0896 19.2425 23.1154 18.7827C22.1412 18.3229 21.0773 18.0844 20 18.0844C18.9227 18.0844 17.8588 18.3229 16.8846 18.7827C15.9104 19.2425 15.0501 19.9123 14.3653 20.744L6.58667 30.192C3.36267 34.104 6.14667 40 11.2133 40C11.9387 40 12.6533 39.832 13.2987 39.5067L14.2587 39.0267C16.0413 38.1353 18.007 37.6712 20 37.6712C21.993 37.6712 23.9587 38.1353 25.7413 39.0267L26.7013 39.5067C27.3467 39.832 28.0613 40 28.7867 40C33.8533 40 36.6373 34.104 33.416 30.192L25.6347 20.744Z"
            fill="#ff6c24" />
    </g>
    <defs>
        <clipPath id="clip0_7_322">
            <rect width="40" height="40" fill="white" />
        </clipPath>
    </defs>
</svg>